<?xml version="1.0" encoding="UTF-8" standalone="no"?>
<!DOCTYPE svg PUBLIC "-//W3C//DTD SVG 1.1//EN" "http://www.w3.org/Graphics/SVG/1.1/DTD/svg11.dtd">
<svg width="100%" height="100%" viewBox="0 0 30000 4000" version="1.1" xmlns="http://www.w3.org/2000/svg" xmlns:xlink="http://www.w3.org/1999/xlink" xml:space="preserve" xmlns:serif="http://www.serif.com/" style="fill-rule:evenodd;clip-rule:evenodd;stroke-linecap:round;stroke-linejoin:round;stroke-miterlimit:1.5;">
    <g transform="matrix(5.55556,0,0,5.55556,0,0)">
        <g transform="matrix(0.756565,0,0,0.756565,-9.34395,-57.2349)">
            <text x="18.681px" y="168.48px" style="font-family:'EthnocentricRg-Regular', 'Ethnocentric';font-size:126.889px;">A Timeline of</text>
            <text x="18.681px" y="268.48px" style="font-family:'EthnocentricRg-Regular', 'Ethnocentric';font-size:126.889px;">the E<tspan x="510.757px " y="268.48px ">a</tspan>rth</text>
        </g>
        <g>
            <g transform="matrix(0.484233,0.484233,-0.707107,0.707107,373.107,-80.6325)">
                <path d="M752.426,322.127C752.426,310.275 738.375,300.653 721.069,300.653L193.728,300.653C176.421,300.653 162.37,310.275 162.37,322.127L162.37,502.556C162.37,514.408 176.421,524.03 193.728,524.03L721.069,524.03C738.375,524.03 752.426,514.408 752.426,502.556L752.426,322.127Z" style="fill:rgb(190,190,190);"/>
            </g>
            <g transform="matrix(0.484233,-0.484233,0.707107,0.707107,-208.572,365.693)">
                <path d="M752.426,322.127C752.426,310.275 738.375,300.653 721.069,300.653L193.728,300.653C176.421,300.653 162.37,310.275 162.37,322.127L162.37,502.556C162.37,514.408 176.421,524.03 193.728,524.03L721.069,524.03C738.375,524.03 752.426,514.408 752.426,502.556L752.426,322.127Z" style="fill:rgb(190,190,190);"/>
            </g>
        </g>
        <g>
            <g transform="matrix(0.925622,0,0,1,-1.41564,-0.533253)">
                <rect x="556.096" y="414.646" width="413.177" height="43.441" style="fill:rgb(101,65,167);"/>
            </g>
            <g transform="matrix(6.10822e-17,1,-0.991873,6.15827e-17,1245.49,-516.998)">
                <path d="M947.798,292.064L1018.78,405.371L876.819,405.371L947.798,292.064Z" style="fill:rgb(101,65,167);"/>
            </g>
        </g>
        <g>
            <g transform="matrix(0.484233,0.484233,-0.707107,0.707107,1288.69,-77.0775)">
                <path d="M752.426,322.127C752.426,310.275 738.375,300.653 721.069,300.653L193.728,300.653C176.421,300.653 162.37,310.275 162.37,322.127L162.37,502.556C162.37,514.408 176.421,524.03 193.728,524.03L721.069,524.03C738.375,524.03 752.426,514.408 752.426,502.556L752.426,322.127Z" style="fill:rgb(190,190,190);"/>
            </g>
            <g transform="matrix(0.484233,-0.484233,0.707107,0.707107,707.014,369.248)">
                <path d="M752.426,322.127C752.426,310.275 738.375,300.653 721.069,300.653L193.728,300.653C176.421,300.653 162.37,310.275 162.37,322.127L162.37,502.556C162.37,514.408 176.421,524.03 193.728,524.03L721.069,524.03C738.375,524.03 752.426,514.408 752.426,502.556L752.426,322.127Z" style="fill:rgb(190,190,190);"/>
            </g>
        </g>
        <g transform="matrix(0.99119,0.132447,-0.132447,0.99119,79.0409,-120.597)">
            <g transform="matrix(0.925622,0,0,1,914.171,3.02177)">
                <rect x="556.096" y="414.646" width="413.177" height="43.441" style="fill:rgb(61,98,144);"/>
            </g>
            <g transform="matrix(6.10822e-17,1,-0.991873,6.15827e-17,2161.08,-513.443)">
                <path d="M947.798,292.064L1018.78,405.371L876.819,405.371L947.798,292.064Z" style="fill:rgb(61,98,144);"/>
            </g>
        </g>
        <g transform="matrix(0.890039,-0.455885,0.455885,0.890039,-32.3836,623.532)">
            <g transform="matrix(0.925622,0,0,1,914.171,3.02177)">
                <rect x="556.096" y="414.646" width="413.177" height="43.441" style="fill:rgb(186,41,41);"/>
            </g>
            <g transform="matrix(6.10822e-17,1,-0.991873,6.15827e-17,2161.08,-513.443)">
                <path d="M947.798,292.064L1018.78,405.371L876.819,405.371L947.798,292.064Z" style="fill:rgb(186,41,41);"/>
            </g>
        </g>
        <g transform="matrix(1,0,0,1,875.095,-323.47)">
            <g transform="matrix(0.925622,0,0,1,914.171,3.02177)">
                <rect x="556.096" y="414.646" width="413.177" height="43.441" style="fill:rgb(186,41,41);"/>
            </g>
            <g transform="matrix(6.10822e-17,1,-0.991873,6.15827e-17,2161.08,-513.443)">
                <path d="M947.798,292.064L1018.78,405.371L876.819,405.371L947.798,292.064Z" style="fill:rgb(186,41,41);"/>
            </g>
        </g>
        <g transform="matrix(0.684809,-5.55112e-17,1.11022e-16,1,1775.21,130.107)">
            <path d="M752.426,322.127C752.426,310.275 738.375,300.653 721.069,300.653L193.728,300.653C176.421,300.653 162.37,310.275 162.37,322.127L162.37,502.556C162.37,514.408 176.421,524.03 193.728,524.03L721.069,524.03C738.375,524.03 752.426,514.408 752.426,502.556L752.426,322.127Z" style="fill:rgb(190,190,190);stroke:black;stroke-width:1.17px;"/>
        </g>
        <g transform="matrix(0.684809,-5.55112e-17,1.11022e-16,1,1778.81,-287.87)">
            <path d="M752.426,322.127C752.426,310.275 738.375,300.653 721.069,300.653L193.728,300.653C176.421,300.653 162.37,310.275 162.37,322.127L162.37,502.556C162.37,514.408 176.421,524.03 193.728,524.03L721.069,524.03C738.375,524.03 752.426,514.408 752.426,502.556L752.426,322.127Z" style="fill:rgb(190,190,190);stroke:black;stroke-width:1.17px;"/>
        </g>
        <g transform="matrix(1,0,0,1,-4.25417,0)">
            <g transform="matrix(0.925622,0,0,1,1793.52,114.401)">
                <rect x="556.096" y="414.646" width="413.177" height="43.441" style="fill:rgb(61,98,144);"/>
            </g>
            <g transform="matrix(6.10822e-17,1,-0.991873,6.15827e-17,3040.43,-402.063)">
                <path d="M947.798,292.064L1018.78,405.371L876.819,405.371L947.798,292.064Z" style="fill:rgb(61,98,144);"/>
            </g>
        </g>
        <g transform="matrix(1,0,0,1,1750.36,-321.169)">
            <g transform="matrix(0.925622,0,0,1,914.171,3.02177)">
                <rect x="556.096" y="414.646" width="413.177" height="43.441" style="fill:rgb(186,41,41);"/>
            </g>
            <g transform="matrix(6.10822e-17,1,-0.991873,6.15827e-17,2161.08,-513.443)">
                <path d="M947.798,292.064L1018.78,405.371L876.819,405.371L947.798,292.064Z" style="fill:rgb(186,41,41);"/>
            </g>
        </g>
        <g transform="matrix(0.684809,-5.55112e-17,1.11022e-16,1,2650.47,132.408)">
            <path d="M752.426,322.127C752.426,310.275 738.375,300.653 721.069,300.653L193.728,300.653C176.421,300.653 162.37,310.275 162.37,322.127L162.37,502.556C162.37,514.408 176.421,524.03 193.728,524.03L721.069,524.03C738.375,524.03 752.426,514.408 752.426,502.556L752.426,322.127Z" style="fill:rgb(190,190,190);stroke:black;stroke-width:1.17px;"/>
        </g>
        <g transform="matrix(0.684809,-5.55112e-17,1.11022e-16,1,2654.07,-285.568)">
            <path d="M752.426,322.127C752.426,310.275 738.375,300.653 721.069,300.653L193.728,300.653C176.421,300.653 162.37,310.275 162.37,322.127L162.37,502.556C162.37,514.408 176.421,524.03 193.728,524.03L721.069,524.03C738.375,524.03 752.426,514.408 752.426,502.556L752.426,322.127Z" style="fill:rgb(190,190,190);stroke:black;stroke-width:1.17px;"/>
        </g>
        <g transform="matrix(1,0,0,1,871.01,2.30141)">
            <g transform="matrix(0.925622,0,0,1,1793.52,114.401)">
                <rect x="556.096" y="414.646" width="413.177" height="43.441" style="fill:rgb(61,98,144);"/>
            </g>
            <g transform="matrix(6.10822e-17,1,-0.991873,6.15827e-17,3040.43,-402.063)">
                <path d="M947.798,292.064L1018.78,405.371L876.819,405.371L947.798,292.064Z" style="fill:rgb(61,98,144);"/>
            </g>
        </g>
        <g transform="matrix(0.722239,0,0,0.722239,44.831,175.047)">
            <text x="164.666px" y="742.849px" style="font-family:'EthnocentricRg-Italic', 'Ethnocentric';font-style:italic;font-size:88.458px;">2020</text>
            <text x="496.031px" y="742.849px" style="font-family:'EthnocentricRg-Italic', 'Ethnocentric';font-style:italic;font-size:24.923px;">(present)</text>
        </g>
        <g transform="matrix(0.722239,0,0,0.722239,975.82,176.095)">
            <text x="164.666px" y="742.849px" style="font-family:'EthnocentricRg-Italic', 'Ethnocentric';font-style:italic;font-size:88.458px;">2300</text>
        </g>
        <g transform="matrix(0.722239,0,0,0.722239,1862.99,-242.482)">
            <text x="164.666px" y="742.849px" style="font-family:'EthnocentricRg-Italic', 'Ethnocentric';font-style:italic;font-size:88.458px;">2750</text>
        </g>
        <g transform="matrix(0.722239,0,0,0.722239,1918.51,169.466)">
            <text x="164.666px" y="742.849px" style="font-family:'EthnocentricRg-Italic', 'Ethnocentric';font-style:italic;font-size:88.458px;">0</text>
            <text x="247.64px" y="742.849px" style="font-family:'EthnocentricRg-Italic', 'Ethnocentric';font-style:italic;font-size:33.23px;">(L<tspan x="277.547px 311.708px " y="742.849px 742.849px ">Y)</tspan></text>
        </g>
        <g transform="matrix(0.722239,0,0,0.722239,2787.16,169.376)">
            <text x="164.666px" y="742.849px" style="font-family:'EthnocentricRg-Italic', 'Ethnocentric';font-style:italic;font-size:88.458px;">5</text>
            <text x="244.19px" y="742.849px" style="font-family:'EthnocentricRg-Italic', 'Ethnocentric';font-style:italic;font-size:33.23px;">(L<tspan x="274.097px 308.258px " y="742.849px 742.849px ">Y)</tspan></text>
        </g>
        <g transform="matrix(0.722239,0,0,0.722239,3650.3,170.756)">
            <text x="164.666px" y="742.849px" style="font-family:'EthnocentricRg-Italic', 'Ethnocentric';font-style:italic;font-size:88.458px;">8.3</text>
            <text x="356.886px" y="742.849px" style="font-family:'EthnocentricRg-Italic', 'Ethnocentric';font-style:italic;font-size:33.23px;">(L<tspan x="386.793px 420.954px " y="742.849px 742.849px ">Y)</tspan></text>
        </g>
        <g transform="matrix(0.722239,0,0,0.722239,4552,171.907)">
            <text x="164.666px" y="742.849px" style="font-family:'EthnocentricRg-Italic', 'Ethnocentric';font-style:italic;font-size:88.458px;">71.<tspan x="304.253px " y="742.849px ">6</tspan></text>
            <text x="390.147px" y="742.849px" style="font-family:'EthnocentricRg-Italic', 'Ethnocentric';font-style:italic;font-size:33.23px;">(L<tspan x="420.054px 454.214px " y="742.849px 742.849px ">Y)</tspan></text>
        </g>
        <g transform="matrix(0.722239,0,0,0.722239,2746.58,-239.775)">
            <text x="164.666px" y="742.849px" style="font-family:'EthnocentricRg-Italic', 'Ethnocentric';font-style:italic;font-size:88.458px;">3000</text>
        </g>
        <g transform="matrix(0.722239,0,0,0.722239,3624.44,-239.293)">
            <text x="164.666px" y="742.849px" style="font-family:'EthnocentricRg-Italic', 'Ethnocentric';font-style:italic;font-size:88.458px;">3100</text>
        </g>
        <g transform="matrix(0.722239,0,0,0.722239,4517.91,-238.32)">
            <text x="164.666px" y="742.849px" style="font-family:'EthnocentricRg-Italic', 'Ethnocentric';font-style:italic;font-size:88.458px;">5000</text>
        </g>
        <g transform="matrix(1,0,0,1,2646.06,-319.644)">
            <g transform="matrix(0.925622,0,0,1,914.171,3.02177)">
                <rect x="556.096" y="414.646" width="413.177" height="43.441" style="fill:rgb(186,41,41);"/>
            </g>
            <g transform="matrix(6.10822e-17,1,-0.991873,6.15827e-17,2161.08,-513.443)">
                <path d="M947.798,292.064L1018.78,405.371L876.819,405.371L947.798,292.064Z" style="fill:rgb(186,41,41);"/>
            </g>
        </g>
        <g transform="matrix(0.684809,-5.55112e-17,1.11022e-16,1,3546.18,133.933)">
            <path d="M752.426,322.127C752.426,310.275 738.375,300.653 721.069,300.653L193.728,300.653C176.421,300.653 162.37,310.275 162.37,322.127L162.37,502.556C162.37,514.408 176.421,524.03 193.728,524.03L721.069,524.03C738.375,524.03 752.426,514.408 752.426,502.556L752.426,322.127Z" style="fill:rgb(190,190,190);stroke:black;stroke-width:1.17px;"/>
        </g>
        <g transform="matrix(0.684809,-5.55112e-17,1.11022e-16,1,3549.78,-284.043)">
            <path d="M752.426,322.127C752.426,310.275 738.375,300.653 721.069,300.653L193.728,300.653C176.421,300.653 162.37,310.275 162.37,322.127L162.37,502.556C162.37,514.408 176.421,524.03 193.728,524.03L721.069,524.03C738.375,524.03 752.426,514.408 752.426,502.556L752.426,322.127Z" style="fill:rgb(190,190,190);stroke:black;stroke-width:1.17px;"/>
        </g>
        <g transform="matrix(1,0,0,1,1766.72,3.82632)">
            <g transform="matrix(0.925622,0,0,1,1793.52,114.401)">
                <rect x="556.096" y="414.646" width="413.177" height="43.441" style="fill:rgb(61,98,144);"/>
            </g>
            <g transform="matrix(6.10822e-17,1,-0.991873,6.15827e-17,3040.43,-402.063)">
                <path d="M947.798,292.064L1018.78,405.371L876.819,405.371L947.798,292.064Z" style="fill:rgb(61,98,144);"/>
            </g>
        </g>
        <g transform="matrix(0.684809,-5.55112e-17,1.11022e-16,1,4435.98,133.381)">
            <path d="M752.426,322.127C752.426,310.275 738.375,300.653 721.069,300.653L193.728,300.653C176.421,300.653 162.37,310.275 162.37,322.127L162.37,502.556C162.37,514.408 176.421,524.03 193.728,524.03L721.069,524.03C738.375,524.03 752.426,514.408 752.426,502.556L752.426,322.127Z" style="fill:rgb(190,190,190);stroke:black;stroke-width:1.17px;"/>
        </g>
        <g transform="matrix(0.684809,-5.55112e-17,1.11022e-16,1,4439.58,-284.595)">
            <path d="M752.426,322.127C752.426,310.275 738.375,300.653 721.069,300.653L193.728,300.653C176.421,300.653 162.37,310.275 162.37,322.127L162.37,502.556C162.37,514.408 176.421,524.03 193.728,524.03L721.069,524.03C738.375,524.03 752.426,514.408 752.426,502.556L752.426,322.127Z" style="fill:rgb(190,190,190);stroke:black;stroke-width:1.17px;"/>
        </g>
        <g transform="matrix(1.39244,0,0,1.39244,-2106.43,-402.853)">
            <text x="5041.05px" y="692.992px" style="font-family:'EthnocentricRg-Italic', 'Ethnocentric';font-style:italic;font-size:424.171px;">?</text>
        </g>
        <g transform="matrix(0.181185,0,0,0.181185,110.036,314.979)">
            <text x="223.381px" y="502.597px" style="font-family:'AvenirNext-Bold', 'Avenir Next', sans-serif;font-weight:700;font-size:166.194px;">Ear<tspan x="482.145px " y="502.597px ">t</tspan>h as we know it.</text>
            <text x="223.381px" y="668.79px" style="font-family:'AvenirNext-Bold', 'Avenir Next', sans-serif;font-weight:700;font-size:166.194px;">Global warming is an</text>
            <text x="223.381px" y="834.984px" style="font-family:'AvenirNext-Bold', 'Avenir Next', sans-serif;font-weight:700;font-size:166.194px;">issue,<tspan x="675.428px 716.977px " y="834.984px 834.984px "> b</tspan>ut not a global</text>
            <text x="223.381px" y="1001.18px" style="font-family:'AvenirNext-Bold', 'Avenir Next', sans-serif;font-weight:700;font-size:166.194px;">thr<tspan x="450.568px 548.622px 641.026px " y="1001.18px 1001.18px 1001.18px ">eat</tspan></text>
        </g>
        <g transform="matrix(0.181185,0,0,0.181185,1017.21,267.397)">
            <text x="223.381px" y="502.597px" style="font-family:'AvenirNext-Bold', 'Avenir Next', sans-serif;font-weight:700;font-size:166.194px;">T<tspan x="316.948px 419.49px " y="502.597px 502.597px ">he</tspan> global warming has</text>
            <text x="223.381px" y="668.79px" style="font-family:'AvenirNext-Bold', 'Avenir Next', sans-serif;font-weight:700;font-size:166.194px;">become such an issue</text>
            <text x="223.381px" y="834.984px" style="font-family:'AvenirNext-Bold', 'Avenir Next', sans-serif;font-weight:700;font-size:166.194px;">tha<tspan x="480.151px " y="834.984px ">t</tspan> we ar<tspan x="1025.77px 1124.82px " y="834.984px 834.984px ">e </tspan>beginning</text>
            <text x="223.381px" y="1001.18px" style="font-family:'AvenirNext-Bold', 'Avenir Next', sans-serif;font-weight:700;font-size:166.194px;">to move under<tspan x="1400.86px 1510.22px 1573.04px 1678.08px " y="1001.18px 1001.18px 1001.18px 1001.18px ">grou</tspan>nd.</text>
            <text x="223.381px" y="1167.37px" style="font-family:'AvenirNext-Bold', 'Avenir Next', sans-serif;font-weight:700;font-size:166.194px;">A<tspan x="341.545px 383.094px 492.449px 555.27px 660.305px " y="1167.37px 1167.37px 1167.37px 1167.37px 1167.37px "> grou</tspan>p of<tspan x="1082.6px 1124.15px 1268.91px 1366.96px " y="1167.37px 1167.37px 1167.37px 1167.37px "> wea</tspan>lthy elite</text>
            <text x="223.381px" y="1333.57px" style="font-family:'AvenirNext-Bold', 'Avenir Next', sans-serif;font-weight:700;font-size:166.194px;">decide to see if<tspan x="1454.71px 1496.26px " y="1333.57px 1333.57px "> b</tspan>uilding</text>
            <text x="223.381px" y="1499.76px" style="font-family:'AvenirNext-Bold', 'Avenir Next', sans-serif;font-weight:700;font-size:166.194px;">a sk<tspan x="534.33px " y="1499.76px ">y</tspan>-city is fe<tspan x="1340.87px " y="1499.76px ">a</tspan>sible</text>
        </g>
        <g transform="matrix(0.181185,0,0,0.181185,1858.24,-32.1203)">
            <text x="223.381px" y="502.597px" style="font-family:'AvenirNext-Bold', 'Avenir Next', sans-serif;font-weight:700;font-size:166.194px;">T<tspan x="316.948px 419.49px " y="502.597px 502.597px ">he</tspan> F<tspan x="652.826px 702.019px " y="502.597px 502.597px ">iv</tspan>e Original Cities of</text>
            <text x="223.381px" y="668.79px" style="font-family:'AvenirNext-Bold', 'Avenir Next', sans-serif;font-weight:700;font-size:166.194px;">Neve<tspan x="646.012px " y="668.79px ">a</tspan>h ar<tspan x="1041.05px 1140.11px " y="668.79px 668.79px ">e </tspan>fully</text>
            <text x="223.381px" y="834.984px" style="font-family:'AvenirNext-Bold', 'Avenir Next', sans-serif;font-weight:700;font-size:166.194px;">constructed.<tspan x="1221.21px 1258.77px 1352.34px 1454.88px " y="834.984px 834.984px 834.984px 834.984px "> The</tspan>y ar<tspan x="1846.6px 1945.65px " y="834.984px 834.984px ">e:</tspan></text>
            <text x="223.381px" y="1001.18px" style="font-family:'AvenirNext-Bold', 'Avenir Next', sans-serif;font-weight:700;font-size:166.194px;">C<tspan x="337.058px " y="1001.18px ">e</tspan>nterville,<tspan x="1151.57px 1193.12px " y="1001.18px 1001.18px "> S</tspan>pringﬁeld,</text>
            <text x="223.381px" y="1167.37px" style="font-family:'AvenirNext-Bold', 'Avenir Next', sans-serif;font-weight:700;font-size:166.194px;">W<tspan x="387.747px 481.813px " y="1167.37px 1167.37px ">as</tspan>hington,<tspan x="1237.83px 1279.38px 1407.18px 1470px 1569.05px " y="1167.37px 1167.37px 1167.37px 1167.37px 1167.37px "> Gree</tspan>nville,</text>
            <text x="223.381px" y="1333.57px" style="font-family:'AvenirNext-Bold', 'Avenir Next', sans-serif;font-weight:700;font-size:166.194px;">and F<tspan x="659.474px 722.627px 816.693px " y="1333.57px 1333.57px 1333.57px ">ran</tspan>klin</text>
        </g>
        <g transform="matrix(0.181185,0,0,0.181185,2727.5,-8.3819)">
            <text x="223.381px" y="502.597px" style="font-family:'AvenirNext-Bold', 'Avenir Next', sans-serif;font-weight:700;font-size:166.194px;">T<tspan x="316.948px 419.49px " y="502.597px 502.597px ">he</tspan> popula<tspan x="1127.48px " y="502.597px ">t</tspan>ion of<tspan x="1656.97px 1698.52px " y="502.597px 502.597px "> N</tspan>eve<tspan x="2121.15px " y="502.597px ">a</tspan>h</text>
            <text x="223.381px" y="668.79px" style="font-family:'AvenirNext-Bold', 'Avenir Next', sans-serif;font-weight:700;font-size:166.194px;">is declining a<tspan x="1280.54px " y="668.79px ">t</tspan> a r<tspan x="1582.68px 1675.08px " y="668.79px 668.79px ">at</tspan>e of</text>
            <text x="223.381px" y="834.984px" style="font-family:'AvenirNext-Bold', 'Avenir Next', sans-serif;font-weight:700;font-size:166.194px;">2.5% per ye<tspan x="1188.8px 1282.87px 1340.7px 1385.57px 1423.13px 1516.7px 1619.24px " y="834.984px 834.984px 834.984px 834.984px 834.984px 834.984px 834.984px ">ar. Thi</tspan>s is</text>
            <text x="223.381px" y="1001.18px" style="font-family:'AvenirNext-Bold', 'Avenir Next', sans-serif;font-weight:700;font-size:166.194px;">concerning the councilmen.</text>
        </g>
        <g transform="matrix(0.181185,0,0,0.181185,3623.84,-22.0563)">
            <text x="223.381px" y="502.597px" style="font-family:'AvenirNext-Bold', 'Avenir Next', sans-serif;font-weight:700;font-size:166.194px;">A<tspan x="341.545px 383.094px " y="502.597px 502.597px "> g</tspan>enetic diversiﬁca<tspan x="1860.89px " y="502.597px ">t</tspan>ion</text>
            <text x="223.381px" y="668.79px" style="font-family:'AvenirNext-Bold', 'Avenir Next', sans-serif;font-weight:700;font-size:166.194px;">system is in place,<tspan x="1673.09px 1714.64px " y="668.79px 668.79px "> a</tspan>llowing</text>
            <text x="223.381px" y="834.984px" style="font-family:'AvenirNext-Bold', 'Avenir Next', sans-serif;font-weight:700;font-size:166.194px;">older citizens to tr<tspan x="1677.41px 1771.48px " y="834.984px 834.984px ">an</tspan>splant</text>
            <text x="223.381px" y="1001.18px" style="font-family:'AvenirNext-Bold', 'Avenir Next', sans-serif;font-weight:700;font-size:166.194px;">their br<tspan x="816.028px 910.094px " y="1001.18px 1001.18px ">ai</tspan>n into a newly</text>
            <text x="223.381px" y="1167.37px" style="font-family:'AvenirNext-Bold', 'Avenir Next', sans-serif;font-weight:700;font-size:166.194px;">gener<tspan x="696.369px 788.772px " y="1167.37px 1167.37px ">at</tspan>ed version of</text>
            <text x="223.381px" y="1333.57px" style="font-family:'AvenirNext-Bold', 'Avenir Next', sans-serif;font-weight:700;font-size:166.194px;">themselves.</text>
        </g>
        <g transform="matrix(0.181185,0,0,0.181185,4521.31,-6.84701)">
            <text x="223.381px" y="502.597px" style="font-family:'AvenirNext-Bold', 'Avenir Next', sans-serif;font-weight:700;font-size:166.194px;">T<tspan x="316.948px 419.49px " y="502.597px 502.597px ">he</tspan> cities of<tspan x="1192.46px 1234.01px " y="502.597px 502.597px "> N</tspan>eve<tspan x="1656.64px " y="502.597px ">a</tspan>h ar<tspan x="2051.68px " y="502.597px ">e</tspan></text>
            <text x="223.381px" y="668.79px" style="font-family:'AvenirNext-Bold', 'Avenir Next', sans-serif;font-weight:700;font-size:166.194px;">falling apar<tspan x="1140.6px " y="668.79px ">t</tspan> as the</text>
            <text x="223.381px" y="834.984px" style="font-family:'AvenirNext-Bold', 'Avenir Next', sans-serif;font-weight:700;font-size:166.194px;">a<tspan x="315.785px " y="834.984px ">t</tspan>mospher<tspan x="1088.25px 1187.31px " y="834.984px 834.984px ">e </tspan>disintegr<tspan x="1950.8px 2043.2px " y="834.984px 834.984px ">at</tspan>es.</text>
            <text x="223.381px" y="1001.18px" style="font-family:'AvenirNext-Bold', 'Avenir Next', sans-serif;font-weight:700;font-size:166.194px;">T<tspan x="316.948px 419.49px " y="1001.18px 1001.18px ">he</tspan> futur<tspan x="949.316px 1048.37px " y="1001.18px 1001.18px ">e </tspan>is uncer<tspan x="1709.98px " y="1001.18px ">t</tspan>ain.</text>
        </g>
        <g transform="matrix(0.181185,0,0,0.181185,1866.56,398.92)">
            <text x="223.381px" y="502.597px" style="font-family:'AvenirNext-Bold', 'Avenir Next', sans-serif;font-weight:700;font-size:166.194px;">T<tspan x="316.948px 419.49px " y="502.597px 502.597px ">he</tspan> new P<tspan x="1046.37px 1140.44px " y="502.597px 502.597px ">ap</tspan>al S<tspan x="1531.99px 1593.82px 1686.22px " y="502.597px 502.597px 502.597px ">tat</tspan>e of</text>
            <text x="223.381px" y="668.79px" style="font-family:'AvenirNext-Bold', 'Avenir Next', sans-serif;font-weight:700;font-size:166.194px;">Lleh is established.</text>
            <text x="223.381px" y="834.984px" style="font-family:'AvenirNext-Bold', 'Avenir Next', sans-serif;font-weight:700;font-size:166.194px;">A<tspan x="341.545px 383.094px " y="834.984px 834.984px "> n</tspan>ew calendar of<tspan x="1679.74px 1721.29px " y="834.984px 834.984px "> 1</tspan>000</text>
            <text x="223.381px" y="1001.18px" style="font-family:'AvenirNext-Bold', 'Avenir Next', sans-serif;font-weight:700;font-size:166.194px;">&quot;S<tspan x="403.369px " y="1001.18px ">t</tspan>andar<tspan x="927.877px 1037.23px " y="1001.18px 1001.18px ">d </tspan>Days&quot; is</text>
            <text x="223.381px" y="1167.37px" style="font-family:'AvenirNext-Bold', 'Avenir Next', sans-serif;font-weight:700;font-size:166.194px;">insta<tspan x="607.621px " y="1167.37px ">t</tspan>ed</text>
        </g>
        <g transform="matrix(0.181185,0,0,0.181185,2738.11,404.388)">
            <text x="223.381px" y="502.597px" style="font-family:'AvenirNext-Bold', 'Avenir Next', sans-serif;font-weight:700;font-size:166.194px;">T<tspan x="316.948px 419.49px " y="502.597px 502.597px ">he</tspan> popula<tspan x="1127.48px " y="502.597px ">t</tspan>ion of<tspan x="1656.97px 1698.52px " y="502.597px 502.597px "> L</tspan>leh is</text>
            <text x="223.381px" y="668.79px" style="font-family:'AvenirNext-Bold', 'Avenir Next', sans-serif;font-weight:700;font-size:166.194px;">r<tspan x="286.535px 380.601px " y="668.79px 668.79px ">ap</tspan>idly incr<tspan x="1131.63px 1229.68px " y="668.79px 668.79px ">ea</tspan>sing a<tspan x="1797.07px " y="668.79px ">t</tspan> a r<tspan x="2099.21px 2191.61px " y="668.79px 668.79px ">at</tspan>e</text>
            <text x="223.381px" y="834.984px" style="font-family:'AvenirNext-Bold', 'Avenir Next', sans-serif;font-weight:700;font-size:166.194px;">of<tspan x="392.899px 434.447px " y="834.984px 834.984px "> 6</tspan>% a ye<tspan x="1062.66px 1156.73px 1214.56px 1259.43px 1296.99px 1390.56px 1493.1px " y="834.984px 834.984px 834.984px 834.984px 834.984px 834.984px 834.984px ">ar. The</tspan> P<tspan x="1731.76px 1836.79px " y="834.984px 834.984px ">op</tspan>e</text>
            <text x="223.381px" y="1001.18px" style="font-family:'AvenirNext-Bold', 'Avenir Next', sans-serif;font-weight:700;font-size:166.194px;">intends to mak<tspan x="1419.48px 1518.53px " y="1001.18px 1001.18px ">e </tspan>a bir<tspan x="1918.23px " y="1001.18px ">t</tspan>h</text>
            <text x="223.381px" y="1167.37px" style="font-family:'AvenirNext-Bold', 'Avenir Next', sans-serif;font-weight:700;font-size:166.194px;">contr<tspan x="639.032px 744.066px " y="1167.37px 1167.37px ">ol</tspan> system but fails</text>
        </g>
        <g transform="matrix(0.181185,0,0,0.181185,3615.15,395.432)">
            <text x="223.381px" y="502.597px" style="font-family:'AvenirNext-Bold', 'Avenir Next', sans-serif;font-weight:700;font-size:166.194px;">T<tspan x="316.948px 419.49px " y="502.597px 502.597px ">he</tspan> community of<tspan x="1676.58px 1718.13px " y="502.597px 502.597px "> L</tspan>leh now</text>
            <text x="223.381px" y="668.79px" style="font-family:'AvenirNext-Bold', 'Avenir Next', sans-serif;font-weight:700;font-size:166.194px;">occupies 82% of<tspan x="1552.27px 1593.82px " y="668.79px 668.79px "> a</tspan>ll</text>
            <text x="223.381px" y="834.984px" style="font-family:'AvenirNext-Bold', 'Avenir Next', sans-serif;font-weight:700;font-size:166.194px;">under<tspan x="699.028px 808.383px 871.204px 976.239px " y="834.984px 834.984px 834.984px 834.984px ">grou</tspan>nd land on Ear<tspan x="2236.15px " y="834.984px ">t</tspan>h.</text>
            <text x="223.381px" y="1001.18px" style="font-family:'AvenirNext-Bold', 'Avenir Next', sans-serif;font-weight:700;font-size:166.194px;">T<tspan x="316.948px 419.49px " y="1001.18px 1001.18px ">he</tspan> popula<tspan x="1127.48px " y="1001.18px ">t</tspan>ion is ne<tspan x="1857.07px " y="1001.18px ">a</tspan>ring</text>
            <text x="223.381px" y="1167.37px" style="font-family:'AvenirNext-Bold', 'Avenir Next', sans-serif;font-weight:700;font-size:166.194px;">13Billion.</text>
        </g>
        <g transform="matrix(0.181185,0,0,0.181185,4510.76,390.784)">
            <text x="223.381px" y="502.597px" style="font-family:'AvenirNext-Bold', 'Avenir Next', sans-serif;font-weight:700;font-size:166.194px;">T<tspan x="316.948px 419.49px " y="502.597px 502.597px ">he</tspan> Lleh uprising occurs</text>
            <text x="223.381px" y="668.79px" style="font-family:'AvenirNext-Bold', 'Avenir Next', sans-serif;font-weight:700;font-size:166.194px;">and the P<tspan x="974.245px 1068.31px " y="668.79px 668.79px ">ap</tspan>al sta<tspan x="1595.31px " y="668.79px ">t</tspan>e is</text>
            <text x="223.381px" y="834.984px" style="font-family:'AvenirNext-Bold', 'Avenir Next', sans-serif;font-weight:700;font-size:166.194px;">over<tspan x="585.517px " y="834.984px ">t</tspan>hr<tspan x="812.704px 917.739px " y="834.984px 834.984px ">ow</tspan>n.<tspan x="1209.74px 1247.3px 1340.87px 1443.41px " y="834.984px 834.984px 834.984px 834.984px "> The</tspan> people of</text>
            <text x="223.381px" y="1001.18px" style="font-family:'AvenirNext-Bold', 'Avenir Next', sans-serif;font-weight:700;font-size:166.194px;">Lleh a<tspan x="695.87px 753.706px 815.53px " y="1001.18px 1001.18px 1001.18px ">tte</tspan>mpt to r<tspan x="1551.93px 1649.99px " y="1001.18px 1001.18px ">ea</tspan>ch</text>
            <text x="223.381px" y="1167.37px" style="font-family:'AvenirNext-Bold', 'Avenir Next', sans-serif;font-weight:700;font-size:166.194px;">Neve<tspan x="646.012px " y="1167.37px ">a</tspan>h as it is most</text>
            <text x="223.381px" y="1333.57px" style="font-family:'AvenirNext-Bold', 'Avenir Next', sans-serif;font-weight:700;font-size:166.194px;">vulner<tspan x="733.762px 827.828px " y="1333.57px 1333.57px ">ab</tspan>le.<tspan x="1130.8px 1172.35px 1220.54px 1719.12px 2217.71px " y="1333.57px 1333.57px 1333.57px 1333.57px 1333.57px ">     </tspan>          <tspan x="2672.74px " y="1333.57px ">W</tspan>ha<tspan x="3038.04px " y="1333.57px ">t</tspan> will happen...</text>
        </g>
    </g>
</svg>
