<?xml version="1.0" encoding="UTF-8" standalone="no"?>
<!DOCTYPE svg PUBLIC "-//W3C//DTD SVG 1.1//EN" "http://www.w3.org/Graphics/SVG/1.1/DTD/svg11.dtd">
<svg width="100%" height="100%" viewBox="0 0 21334 12000" version="1.1" xmlns="http://www.w3.org/2000/svg" xmlns:xlink="http://www.w3.org/1999/xlink" xml:space="preserve" xmlns:serif="http://www.serif.com/" style="fill-rule:evenodd;clip-rule:evenodd;stroke-linecap:round;stroke-miterlimit:3;">
    <g transform="matrix(5.55556,0,0,5.55556,0,0)">
        <g transform="matrix(0.963493,0,0,1.13245,1328.44,-873.341)">
            <ellipse cx="970.168" cy="1275.03" rx="479.977" ry="408.367" style="fill:rgb(98,206,135);"/>
        </g>
        <g transform="matrix(1,0,0,1,-116.464,-258.153)">
            <text x="131.767px" y="397.512px" style="font-family:'RicksAmericanNF', 'Ricks American NF';font-size:170px;">The Cities of Ne<tspan x="961.877px 1029.54px " y="397.512px 397.512px ">ve</tspan>ah</text>
        </g>
        <g transform="matrix(1.08344,0,0,1.18387,-502.821,-288.546)">
            <text x="2158.3px" y="811.913px" style="font-family:'RicksAmericanNF', 'Ricks American NF';font-size:253.03px;">Green<tspan x="2626.15px " y="811.913px ">v</tspan>ille</text>
        </g>
        <g transform="matrix(1.36045,0,0,1.59902,-285.869,-1099.38)">
            <ellipse cx="970.168" cy="1275.03" rx="479.977" ry="408.367" style="fill:rgb(208,150,255);"/>
        </g>
        <g transform="matrix(0.0936378,0,0,0.110058,3368.81,113.537)">
            <ellipse cx="970.168" cy="1275.03" rx="479.977" ry="408.367"/>
        </g>
        <g transform="matrix(1.04363,0,0,0.610764,649.379,1052.97)">
            <ellipse cx="970.168" cy="1275.03" rx="479.977" ry="408.367" style="fill:rgb(0,255,248);"/>
        </g>
        <g transform="matrix(1.35109,0,0,1.46843,1696.31,-370.045)">
            <ellipse cx="970.168" cy="1275.03" rx="479.977" ry="408.367" style="fill:rgb(255,219,0);"/>
        </g>
        <g transform="matrix(0.981791,0,0,1.17043,-518.715,-184.43)">
            <text x="2989.13px" y="1547.35px" style="font-family:'RicksAmericanNF', 'Ricks American NF';font-size:349.107px;">W<tspan x="3172.06px " y="1547.35px ">a</tspan>shington</text>
        </g>
        <g transform="matrix(1.24305,0,0,1.19605,-1368.82,-510.434)">
            <text x="2078.29px" y="2033.02px" style="font-family:'RicksAmericanNF', 'Ricks American NF';font-size:214.165px;">C<tspan x="2137.4px " y="2033.02px ">e</tspan>nter<tspan x="2513.26px " y="2033.02px ">v</tspan>ille</text>
        </g>
        <g transform="matrix(0.693267,0,0,0.814835,-307.801,760.827)">
            <ellipse cx="970.168" cy="1275.03" rx="479.977" ry="408.367" style="fill:rgb(255,59,74);"/>
        </g>
        <g transform="matrix(0.89518,0,0,0.810148,-312.361,347.115)">
            <text x="417.288px" y="1897.51px" style="font-family:'RicksAmericanNF', 'Ricks American NF';font-size:268.983px;">Fr<tspan x="589.168px " y="1897.51px ">a</tspan>nklin</text>
        </g>
        <g transform="matrix(1.36317,0,0,1.43862,-1173.78,-1026.79)">
            <text x="1183.13px" y="1435.71px" style="font-family:'RicksAmericanNF', 'Ricks American NF';font-size:259.332px;">Springfield</text>
        </g>
        <g transform="matrix(1,0,0,1,15.4349,-24.2233)">
            <g transform="matrix(0.91517,0,0,1,275.004,0)">
                <text x="3241.81px" y="456.535px" style="font-family:'RicksAmericanNF', 'Ricks American NF';font-size:145.755px;">The Earth</text>
            </g>
            <g transform="matrix(0.91517,0,0,1,275.004,0)">
                <text x="3241.81px" y="606.226px" style="font-family:'RicksAmericanNF', 'Ricks American NF';font-size:145.755px;">Monument</text>
            </g>
        </g>
        <g transform="matrix(0.959825,-0.454688,62.7567,132.476,-86207.9,-184274)">
            <g transform="matrix(0.153163,0.000525688,-0.0725563,0.0011097,-924.143,1387.82)">
                <path d="M9204.93,5842.59L9064.43,5932.25L9154.09,6072.75L9294.59,5983.09L9204.93,5842.59Z"/>
                <path d="M10716.2,4878.16L10856.7,4788.5L10946.3,4929L10805.9,5018.66L10716.2,4878.16Z"/>
                <path d="M9221.66,5930.77C9543.67,5725.28 10467.1,5135.97 10789.1,4930.48" style="fill:none;stroke:black;stroke-width:55.56px;stroke-dasharray:166.67,55.56,0,55.56;"/>
            </g>
        </g>
        <g transform="matrix(-0.255578,-0.441558,32.6079,-18.8738,-42994.9,27483.5)">
            <g transform="matrix(-0.176739,0.00413486,-0.305349,-0.0023933,4406.46,1353.08)">
                <path d="M14411.5,5787.35L14504.5,5925.64L14642.8,5832.62L14549.8,5694.33L14411.5,5787.35Z"/>
                <path d="M14030.7,5221.26L13937.7,5082.97L14076,4989.94L14169,5128.23L14030.7,5221.26Z"/>
                <path d="M14499.2,5768.5C14390.6,5607.04 14189.8,5308.55 14081.2,5147.09" style="fill:none;stroke:black;stroke-width:55.56px;stroke-dasharray:166.67,55.56,0,55.56;"/>
            </g>
        </g>
        <g transform="matrix(0.434863,-0.206003,109.885,231.961,-153217,-322986)">
            <g transform="matrix(0.33806,0.000300228,-0.160146,0.000633768,399.194,1392.77)">
                <path d="M3129.19,8611.85L3025.12,8742.03L3155.3,8846.1L3259.37,8715.92L3129.19,8611.85Z"/>
                <path d="M3585.06,8041.6L3689.13,7911.42L3819.31,8015.49L3715.24,8145.67L3585.06,8041.6Z"/>
                <path d="M3173.46,8689.92C3301.02,8530.36 3543.41,8227.16 3670.96,8067.6" style="fill:none;stroke:black;stroke-width:55.56px;stroke-dasharray:166.67,55.56,0,55.56;"/>
            </g>
        </g>
        <g transform="matrix(1.52941,-0.724509,-375.87,-793.445,526504,1.11223e+06)">
            <g transform="matrix(0.096122,-8.77708e-05,-0.0455349,-0.00018528,202.415,1401.58)">
                <path d="M3580.89,10788.7L3414.22,10788.6L3414.1,10955.3L3580.76,10955.4L3580.89,10788.7Z"/>
                <path d="M6968.01,10791.2L7134.68,10791.3L7134.56,10958L6967.89,10957.9L6968.01,10791.2Z"/>
                <path d="M3547.49,10872C4126.79,10872.5 6421.99,10874.1 7001.29,10874.6" style="fill:none;stroke:black;stroke-width:55.56px;stroke-dasharray:166.67,55.56,0,55.56;"/>
            </g>
        </g>
        <g transform="matrix(0.903726,-0.428112,-36.0697,-76.1414,52527.1,108307)">
            <g transform="matrix(0.162671,-0.000914631,-0.0770602,-0.00193074,-1102.54,1428.64)">
                <path d="M11726.3,9581.86L11570.6,9641.43L11630.2,9797.09L11785.8,9737.52L11726.3,9581.86Z"/>
                <path d="M13275.4,8989.08L13431,8929.51L13490.6,9085.17L13334.9,9144.74L13275.4,8989.08Z"/>
                <path d="M11724.9,9671.6C12063.5,9542.07 12997.8,9184.53 13336.3,9054.99" style="fill:none;stroke:black;stroke-width:55.56px;stroke-dasharray:166.67,55.56,0,55.56;"/>
            </g>
        </g>
        <g transform="matrix(-0.332677,-0.394635,-136.181,114.8,191903,-158935)">
            <g transform="matrix(-0.224773,-0.000772672,-0.266634,0.000651363,4206.61,1398.9)">
                <path d="M7291.78,9255.75L7355.86,9409.61L7509.72,9345.53L7445.64,9191.68L7291.78,9255.75Z"/>
                <path d="M7006.65,8571.1L6942.57,8417.25L7096.43,8353.17L7160.51,8507.03L7006.65,8571.1Z"/>
                <path d="M7381.53,9254.49C7302.1,9063.77 7150.19,8699.01 7070.76,8508.29" style="fill:none;stroke:black;stroke-width:55.56px;stroke-dasharray:166.67,55.56,0,55.56;"/>
            </g>
        </g>
        <g transform="matrix(2.54187,-0.0983177,-7.4685,-193.087,11983,271311)">
            <g transform="matrix(0.0707084,-3.60038e-05,-0.00273495,-0.000930828,-584.856,1405.42)">
                <path d="M9185.23,6180.55L9018.65,6175.43L9013.52,6342.02L9180.11,6347.14L9185.23,6180.55Z"/>
                <path d="M13914,6325.88L14080.5,6331L14075.4,6497.58L13908.8,6492.46L13914,6325.88Z"/>
                <path d="M9149.35,6262.82C9863.41,6284.76 13230.7,6388.25 13944.7,6410.19" style="fill:none;stroke:black;stroke-width:55.56px;stroke-dasharray:166.67,55.56,0,55.56;"/>
            </g>
        </g>
        <g transform="matrix(-0.108703,-0.0265318,280.121,-1147.68,-388677,1.60652e+06)">
            <g transform="matrix(-1.56278,3.6128e-05,-0.381437,-0.00014802,29825.9,1399.1)">
                <path d="M18270,3523.43L18326,3366.45L18169,3310.47L18113.1,3467.45L18270,3523.43Z"/>
                <path d="M17657.1,5242.09L17601.2,5399.07L17444.2,5343.09L17500.2,5186.1L17657.1,5242.09Z"/>
                <path d="M18202.7,3464.04C18072.9,3828.14 17697.3,4881.4 17567.5,5245.49" style="fill:none;stroke:black;stroke-width:55.56px;stroke-dasharray:166.67,55.56,0,55.56;"/>
            </g>
        </g>
    </g>
</svg>
