<?xml version="1.0" encoding="UTF-8" standalone="no"?>
<!DOCTYPE svg PUBLIC "-//W3C//DTD SVG 1.1//EN" "http://www.w3.org/Graphics/SVG/1.1/DTD/svg11.dtd">
<svg width="100%" height="100%" viewBox="0 0 21334 12000" version="1.1" xmlns="http://www.w3.org/2000/svg" xmlns:xlink="http://www.w3.org/1999/xlink" xml:space="preserve" xmlns:serif="http://www.serif.com/" style="fill-rule:evenodd;clip-rule:evenodd;stroke-linecap:round;stroke-linejoin:round;stroke-miterlimit:1.5;">
    <g transform="matrix(5.55556,0,0,5.55556,0,0)">
        <g transform="matrix(1,0,0,1,-351.387,-283.98)">
            <g transform="matrix(144,0,0,144,354.262,396.77)">
                <path d="M0.914,-0.172L0.781,0L0.445,0C0.387,0 0.333,-0.009 0.284,-0.026C0.235,-0.043 0.192,-0.067 0.157,-0.098C0.121,-0.128 0.093,-0.164 0.073,-0.206C0.052,-0.247 0.042,-0.292 0.042,-0.341C0.042,-0.39 0.052,-0.434 0.073,-0.475C0.093,-0.515 0.121,-0.55 0.157,-0.579C0.192,-0.608 0.235,-0.63 0.284,-0.646C0.333,-0.661 0.387,-0.669 0.445,-0.669L0.914,-0.669L0.781,-0.495L0.445,-0.495C0.417,-0.495 0.391,-0.491 0.367,-0.483C0.343,-0.475 0.322,-0.464 0.305,-0.45C0.288,-0.435 0.274,-0.418 0.264,-0.398C0.254,-0.378 0.249,-0.356 0.249,-0.332C0.249,-0.308 0.254,-0.286 0.264,-0.267C0.273,-0.247 0.287,-0.23 0.305,-0.216C0.322,-0.202 0.343,-0.191 0.367,-0.184C0.391,-0.176 0.417,-0.172 0.445,-0.172L0.914,-0.172Z" style="fill-rule:nonzero;"/>
            </g>
            <g transform="matrix(144,0,0,144,487.174,396.77)">
                <path d="M1.012,0L0.735,0L0.586,-0.177L0.268,-0.177L0.268,0L0.061,0L0.061,-0.342L0.643,-0.342C0.675,-0.342 0.702,-0.349 0.724,-0.362C0.746,-0.375 0.757,-0.394 0.757,-0.417C0.757,-0.443 0.747,-0.463 0.727,-0.476C0.707,-0.489 0.679,-0.495 0.643,-0.495L0.061,-0.495L0.196,-0.669L0.626,-0.669C0.664,-0.669 0.703,-0.666 0.744,-0.659C0.785,-0.652 0.822,-0.639 0.855,-0.621C0.888,-0.603 0.916,-0.579 0.938,-0.548C0.959,-0.517 0.97,-0.478 0.97,-0.43C0.97,-0.404 0.966,-0.379 0.958,-0.356C0.95,-0.333 0.939,-0.312 0.924,-0.293C0.909,-0.274 0.89,-0.259 0.869,-0.246C0.847,-0.233 0.822,-0.223 0.795,-0.218C0.806,-0.209 0.819,-0.198 0.833,-0.185C0.847,-0.172 0.866,-0.153 0.889,-0.13L1.012,0Z" style="fill-rule:nonzero;"/>
            </g>
            <g transform="matrix(144,0,0,144,631.03,396.77)">
                <path d="M0.531,-0.68C0.694,-0.68 0.816,-0.652 0.898,-0.597C0.979,-0.542 1.02,-0.454 1.02,-0.335C1.02,-0.215 0.979,-0.127 0.898,-0.072C0.817,-0.017 0.694,0.011 0.531,0.011C0.367,0.011 0.245,-0.017 0.164,-0.072C0.083,-0.127 0.042,-0.215 0.042,-0.335C0.042,-0.454 0.083,-0.542 0.164,-0.597C0.245,-0.652 0.368,-0.68 0.531,-0.68ZM0.531,-0.163C0.583,-0.163 0.627,-0.165 0.663,-0.17C0.699,-0.174 0.728,-0.182 0.751,-0.195C0.773,-0.208 0.789,-0.225 0.799,-0.248C0.809,-0.27 0.814,-0.299 0.814,-0.335C0.814,-0.371 0.809,-0.4 0.799,-0.423C0.789,-0.445 0.773,-0.462 0.751,-0.475C0.728,-0.487 0.699,-0.495 0.663,-0.5C0.627,-0.504 0.583,-0.506 0.531,-0.506C0.479,-0.506 0.435,-0.504 0.399,-0.5C0.363,-0.495 0.334,-0.487 0.312,-0.475C0.289,-0.462 0.273,-0.445 0.263,-0.423C0.253,-0.4 0.248,-0.371 0.248,-0.335C0.248,-0.299 0.253,-0.27 0.263,-0.248C0.273,-0.225 0.289,-0.208 0.312,-0.195C0.334,-0.182 0.363,-0.174 0.399,-0.17C0.435,-0.165 0.479,-0.163 0.531,-0.163Z" style="fill-rule:nonzero;"/>
            </g>
            <g transform="matrix(144,0,0,144,783.958,396.77)">
                <path d="M0.683,-0.402C0.765,-0.402 0.827,-0.387 0.87,-0.357C0.913,-0.326 0.934,-0.28 0.934,-0.219C0.934,-0.185 0.929,-0.154 0.918,-0.127C0.907,-0.1 0.89,-0.077 0.867,-0.058C0.844,-0.039 0.814,-0.025 0.778,-0.015C0.741,-0.005 0.698,0 0.647,0L0.024,0L0.157,-0.172L0.663,-0.172C0.688,-0.172 0.706,-0.176 0.717,-0.184C0.728,-0.191 0.734,-0.204 0.734,-0.221C0.734,-0.238 0.728,-0.251 0.717,-0.258C0.706,-0.265 0.688,-0.269 0.663,-0.269L0.299,-0.269C0.256,-0.269 0.218,-0.274 0.187,-0.283C0.156,-0.292 0.13,-0.305 0.109,-0.322C0.088,-0.339 0.073,-0.359 0.063,-0.383C0.053,-0.406 0.048,-0.432 0.048,-0.461C0.048,-0.492 0.054,-0.521 0.065,-0.547C0.076,-0.572 0.093,-0.594 0.116,-0.612C0.138,-0.63 0.168,-0.644 0.205,-0.654C0.241,-0.664 0.284,-0.669 0.335,-0.669L0.916,-0.669L0.783,-0.495L0.319,-0.495C0.295,-0.495 0.277,-0.492 0.266,-0.485C0.254,-0.478 0.248,-0.466 0.248,-0.449C0.248,-0.432 0.254,-0.42 0.266,-0.413C0.277,-0.406 0.295,-0.402 0.319,-0.402L0.683,-0.402Z" style="fill-rule:nonzero;"/>
            </g>
            <g transform="matrix(144,0,0,144,922.63,396.77)">
                <path d="M0.683,-0.402C0.765,-0.402 0.827,-0.387 0.87,-0.357C0.913,-0.326 0.934,-0.28 0.934,-0.219C0.934,-0.185 0.929,-0.154 0.918,-0.127C0.907,-0.1 0.89,-0.077 0.867,-0.058C0.844,-0.039 0.814,-0.025 0.778,-0.015C0.741,-0.005 0.698,0 0.647,0L0.024,0L0.157,-0.172L0.663,-0.172C0.688,-0.172 0.706,-0.176 0.717,-0.184C0.728,-0.191 0.734,-0.204 0.734,-0.221C0.734,-0.238 0.728,-0.251 0.717,-0.258C0.706,-0.265 0.688,-0.269 0.663,-0.269L0.299,-0.269C0.256,-0.269 0.218,-0.274 0.187,-0.283C0.156,-0.292 0.13,-0.305 0.109,-0.322C0.088,-0.339 0.073,-0.359 0.063,-0.383C0.053,-0.406 0.048,-0.432 0.048,-0.461C0.048,-0.492 0.054,-0.521 0.065,-0.547C0.076,-0.572 0.093,-0.594 0.116,-0.612C0.138,-0.63 0.168,-0.644 0.205,-0.654C0.241,-0.664 0.284,-0.669 0.335,-0.669L0.916,-0.669L0.783,-0.495L0.319,-0.495C0.295,-0.495 0.277,-0.492 0.266,-0.485C0.254,-0.478 0.248,-0.466 0.248,-0.449C0.248,-0.432 0.254,-0.42 0.266,-0.413C0.277,-0.406 0.295,-0.402 0.319,-0.402L0.683,-0.402Z" style="fill-rule:nonzero;"/>
            </g>
            <g transform="matrix(144,0,0,144,1116.45,396.77)">
                <path d="M0.683,-0.402C0.765,-0.402 0.827,-0.387 0.87,-0.357C0.913,-0.326 0.934,-0.28 0.934,-0.219C0.934,-0.185 0.929,-0.154 0.918,-0.127C0.907,-0.1 0.89,-0.077 0.867,-0.058C0.844,-0.039 0.814,-0.025 0.778,-0.015C0.741,-0.005 0.698,0 0.647,0L0.024,0L0.157,-0.172L0.663,-0.172C0.688,-0.172 0.706,-0.176 0.717,-0.184C0.728,-0.191 0.734,-0.204 0.734,-0.221C0.734,-0.238 0.728,-0.251 0.717,-0.258C0.706,-0.265 0.688,-0.269 0.663,-0.269L0.299,-0.269C0.256,-0.269 0.218,-0.274 0.187,-0.283C0.156,-0.292 0.13,-0.305 0.109,-0.322C0.088,-0.339 0.073,-0.359 0.063,-0.383C0.053,-0.406 0.048,-0.432 0.048,-0.461C0.048,-0.492 0.054,-0.521 0.065,-0.547C0.076,-0.572 0.093,-0.594 0.116,-0.612C0.138,-0.63 0.168,-0.644 0.205,-0.654C0.241,-0.664 0.284,-0.669 0.335,-0.669L0.916,-0.669L0.783,-0.495L0.319,-0.495C0.295,-0.495 0.277,-0.492 0.266,-0.485C0.254,-0.478 0.248,-0.466 0.248,-0.449C0.248,-0.432 0.254,-0.42 0.266,-0.413C0.277,-0.406 0.295,-0.402 0.319,-0.402L0.683,-0.402Z" style="fill-rule:nonzero;"/>
            </g>
            <g transform="matrix(144,0,0,144,1255.13,396.77)">
                <path d="M0.84,-0.172L0.707,0L0.063,0L0.063,-0.669L0.838,-0.669L0.704,-0.495L0.271,-0.495L0.271,-0.415L0.801,-0.415L0.682,-0.263L0.271,-0.263L0.271,-0.172L0.84,-0.172Z" style="fill-rule:nonzero;"/>
            </g>
            <g transform="matrix(144,0,0,144,1377.24,396.77)">
                <path d="M0.914,-0.172L0.781,0L0.445,0C0.387,0 0.333,-0.009 0.284,-0.026C0.235,-0.043 0.192,-0.067 0.157,-0.098C0.121,-0.128 0.093,-0.164 0.073,-0.206C0.052,-0.247 0.042,-0.292 0.042,-0.341C0.042,-0.39 0.052,-0.434 0.073,-0.475C0.093,-0.515 0.121,-0.55 0.157,-0.579C0.192,-0.608 0.235,-0.63 0.284,-0.646C0.333,-0.661 0.387,-0.669 0.445,-0.669L0.914,-0.669L0.781,-0.495L0.445,-0.495C0.417,-0.495 0.391,-0.491 0.367,-0.483C0.343,-0.475 0.322,-0.464 0.305,-0.45C0.288,-0.435 0.274,-0.418 0.264,-0.398C0.254,-0.378 0.249,-0.356 0.249,-0.332C0.249,-0.308 0.254,-0.286 0.264,-0.267C0.273,-0.247 0.287,-0.23 0.305,-0.216C0.322,-0.202 0.343,-0.191 0.367,-0.184C0.391,-0.176 0.417,-0.172 0.445,-0.172L0.914,-0.172Z" style="fill-rule:nonzero;"/>
            </g>
            <g transform="matrix(144,0,0,144,1510.15,396.77)">
                <path d="M0.894,-0.669L0.76,-0.495L0.521,-0.495L0.521,0L0.314,0L0.314,-0.495L0,-0.495L0.134,-0.669L0.894,-0.669Z" style="fill-rule:nonzero;"/>
            </g>
            <g transform="matrix(144,0,0,144,1638.89,396.77)">
                <rect x="0.066" y="-0.669" width="0.207" height="0.669" style="fill-rule:nonzero;"/>
            </g>
            <g transform="matrix(144,0,0,144,1687.7,396.77)">
                <path d="M0.531,-0.68C0.694,-0.68 0.816,-0.652 0.898,-0.597C0.979,-0.542 1.02,-0.454 1.02,-0.335C1.02,-0.215 0.979,-0.127 0.898,-0.072C0.817,-0.017 0.694,0.011 0.531,0.011C0.367,0.011 0.245,-0.017 0.164,-0.072C0.083,-0.127 0.042,-0.215 0.042,-0.335C0.042,-0.454 0.083,-0.542 0.164,-0.597C0.245,-0.652 0.368,-0.68 0.531,-0.68ZM0.531,-0.163C0.583,-0.163 0.627,-0.165 0.663,-0.17C0.699,-0.174 0.728,-0.182 0.751,-0.195C0.773,-0.208 0.789,-0.225 0.799,-0.248C0.809,-0.27 0.814,-0.299 0.814,-0.335C0.814,-0.371 0.809,-0.4 0.799,-0.423C0.789,-0.445 0.773,-0.462 0.751,-0.475C0.728,-0.487 0.699,-0.495 0.663,-0.5C0.627,-0.504 0.583,-0.506 0.531,-0.506C0.479,-0.506 0.435,-0.504 0.399,-0.5C0.363,-0.495 0.334,-0.487 0.312,-0.475C0.289,-0.462 0.273,-0.445 0.263,-0.423C0.253,-0.4 0.248,-0.371 0.248,-0.335C0.248,-0.299 0.253,-0.27 0.263,-0.248C0.273,-0.225 0.289,-0.208 0.312,-0.195C0.334,-0.182 0.363,-0.174 0.399,-0.17C0.435,-0.165 0.479,-0.163 0.531,-0.163Z" style="fill-rule:nonzero;"/>
            </g>
            <g transform="matrix(144,0,0,144,1840.63,396.77)">
                <path d="M0.741,0.011C0.728,0.011 0.715,0.009 0.702,0.005C0.689,0 0.674,-0.01 0.658,-0.025L0.248,-0.393L0.248,0L0.06,0L0.06,-0.555C0.06,-0.577 0.063,-0.596 0.07,-0.612C0.076,-0.628 0.084,-0.641 0.095,-0.651C0.105,-0.661 0.117,-0.668 0.131,-0.673C0.144,-0.678 0.158,-0.68 0.173,-0.68C0.186,-0.68 0.199,-0.678 0.212,-0.674C0.225,-0.669 0.239,-0.659 0.256,-0.644L0.666,-0.276L0.666,-0.669L0.855,-0.669L0.855,-0.115C0.855,-0.093 0.852,-0.074 0.846,-0.058C0.839,-0.042 0.831,-0.029 0.821,-0.019C0.81,-0.008 0.798,-0.001 0.784,0.004C0.77,0.009 0.756,0.011 0.741,0.011Z" style="fill-rule:nonzero;"/>
            </g>
            <g transform="matrix(144,0,0,144,354.262,540.77)">
                <path d="M0.531,-0.68C0.694,-0.68 0.816,-0.652 0.898,-0.597C0.979,-0.542 1.02,-0.454 1.02,-0.335C1.02,-0.215 0.979,-0.127 0.898,-0.072C0.817,-0.017 0.694,0.011 0.531,0.011C0.367,0.011 0.245,-0.017 0.164,-0.072C0.083,-0.127 0.042,-0.215 0.042,-0.335C0.042,-0.454 0.083,-0.542 0.164,-0.597C0.245,-0.652 0.368,-0.68 0.531,-0.68ZM0.531,-0.163C0.583,-0.163 0.627,-0.165 0.663,-0.17C0.699,-0.174 0.728,-0.182 0.751,-0.195C0.773,-0.208 0.789,-0.225 0.799,-0.248C0.809,-0.27 0.814,-0.299 0.814,-0.335C0.814,-0.371 0.809,-0.4 0.799,-0.423C0.789,-0.445 0.773,-0.462 0.751,-0.475C0.728,-0.487 0.699,-0.495 0.663,-0.5C0.627,-0.504 0.583,-0.506 0.531,-0.506C0.479,-0.506 0.435,-0.504 0.399,-0.5C0.363,-0.495 0.334,-0.487 0.312,-0.475C0.289,-0.462 0.273,-0.445 0.263,-0.423C0.253,-0.4 0.248,-0.371 0.248,-0.335C0.248,-0.299 0.253,-0.27 0.263,-0.248C0.273,-0.225 0.289,-0.208 0.312,-0.195C0.334,-0.182 0.363,-0.174 0.399,-0.17C0.435,-0.165 0.479,-0.163 0.531,-0.163Z" style="fill-rule:nonzero;"/>
            </g>
            <g transform="matrix(144,0,0,144,507.19,540.77)">
                <path d="M0.813,-0.669L0.679,-0.495L0.271,-0.495L0.271,-0.408L0.775,-0.408L0.649,-0.245L0.271,-0.245L0.271,0L0.063,0L0.063,-0.669L0.813,-0.669Z" style="fill-rule:nonzero;"/>
            </g>
            <g transform="matrix(144,0,0,144,680.422,540.77)">
                <path d="M0.346,0L0.471,-0.172L0.702,-0.172C0.723,-0.172 0.742,-0.171 0.758,-0.17C0.749,-0.182 0.738,-0.197 0.726,-0.216C0.713,-0.234 0.701,-0.251 0.69,-0.267L0.57,-0.444L0.256,0L0.011,0L0.44,-0.605C0.454,-0.624 0.472,-0.642 0.493,-0.657C0.514,-0.672 0.541,-0.68 0.574,-0.68C0.605,-0.68 0.631,-0.673 0.653,-0.659C0.674,-0.644 0.691,-0.626 0.706,-0.605L1.124,0L0.346,0Z" style="fill-rule:nonzero;"/>
            </g>
            <g transform="matrix(144,0,0,144,899.014,540.77)">
                <path d="M0.741,0.011C0.728,0.011 0.715,0.009 0.702,0.005C0.689,0 0.674,-0.01 0.658,-0.025L0.248,-0.393L0.248,0L0.06,0L0.06,-0.555C0.06,-0.577 0.063,-0.596 0.07,-0.612C0.076,-0.628 0.084,-0.641 0.095,-0.651C0.105,-0.661 0.117,-0.668 0.131,-0.673C0.144,-0.678 0.158,-0.68 0.173,-0.68C0.186,-0.68 0.199,-0.678 0.212,-0.674C0.225,-0.669 0.239,-0.659 0.256,-0.644L0.666,-0.276L0.666,-0.669L0.855,-0.669L0.855,-0.115C0.855,-0.093 0.852,-0.074 0.846,-0.058C0.839,-0.042 0.831,-0.029 0.821,-0.019C0.81,-0.008 0.798,-0.001 0.784,0.004C0.77,0.009 0.756,0.011 0.741,0.011Z" style="fill-rule:nonzero;"/>
            </g>
            <g transform="matrix(144,0,0,144,1030.63,540.77)">
                <path d="M0.84,-0.172L0.707,0L0.063,0L0.063,-0.669L0.838,-0.669L0.704,-0.495L0.271,-0.495L0.271,-0.415L0.801,-0.415L0.682,-0.263L0.271,-0.263L0.271,-0.172L0.84,-0.172Z" style="fill-rule:nonzero;"/>
            </g>
            <g transform="matrix(144,0,0,144,1152.74,540.77)">
                <path d="M0.265,-0.669L0.566,-0.225L0.88,-0.669L1.124,-0.669L0.696,-0.064C0.681,-0.045 0.663,-0.027 0.642,-0.012C0.621,0.003 0.594,0.011 0.562,0.011C0.531,0.011 0.505,0.004 0.484,-0.011C0.462,-0.025 0.445,-0.043 0.43,-0.064L0.011,-0.669L0.265,-0.669Z" style="fill-rule:nonzero;"/>
            </g>
            <g transform="matrix(144,0,0,144,1279.03,540.77)">
                <path d="M0.346,0L0.471,-0.172L0.702,-0.172C0.723,-0.172 0.742,-0.171 0.758,-0.17C0.749,-0.182 0.738,-0.197 0.726,-0.216C0.713,-0.234 0.701,-0.251 0.69,-0.267L0.57,-0.444L0.256,0L0.011,0L0.44,-0.605C0.454,-0.624 0.472,-0.642 0.493,-0.657C0.514,-0.672 0.541,-0.68 0.574,-0.68C0.605,-0.68 0.631,-0.673 0.653,-0.659C0.674,-0.644 0.691,-0.626 0.706,-0.605L1.124,0L0.346,0Z" style="fill-rule:nonzero;"/>
            </g>
            <g transform="matrix(144,0,0,144,1442.47,540.77)">
                <path d="M0.84,-0.172L0.707,0L0.063,0L0.063,-0.669L0.838,-0.669L0.704,-0.495L0.271,-0.495L0.271,-0.415L0.801,-0.415L0.682,-0.263L0.271,-0.263L0.271,-0.172L0.84,-0.172Z" style="fill-rule:nonzero;"/>
            </g>
            <g transform="matrix(144,0,0,144,1564.58,540.77)">
                <path d="M0.875,0L0.669,0L0.669,-0.258L0.271,-0.258L0.271,0L0.063,0L0.063,-0.669L0.271,-0.669L0.271,-0.432L0.669,-0.432L0.669,-0.669L0.875,-0.669L0.875,0Z" style="fill-rule:nonzero;"/>
            </g>
            <g transform="matrix(144,0,0,144,1754.95,540.77)">
                <path d="M0.914,-0.172L0.781,0L0.445,0C0.387,0 0.333,-0.009 0.284,-0.026C0.235,-0.043 0.192,-0.067 0.157,-0.098C0.121,-0.128 0.093,-0.164 0.073,-0.206C0.052,-0.247 0.042,-0.292 0.042,-0.341C0.042,-0.39 0.052,-0.434 0.073,-0.475C0.093,-0.515 0.121,-0.55 0.157,-0.579C0.192,-0.608 0.235,-0.63 0.284,-0.646C0.333,-0.661 0.387,-0.669 0.445,-0.669L0.914,-0.669L0.781,-0.495L0.445,-0.495C0.417,-0.495 0.391,-0.491 0.367,-0.483C0.343,-0.475 0.322,-0.464 0.305,-0.45C0.288,-0.435 0.274,-0.418 0.264,-0.398C0.254,-0.378 0.249,-0.356 0.249,-0.332C0.249,-0.308 0.254,-0.286 0.264,-0.267C0.273,-0.247 0.287,-0.23 0.305,-0.216C0.322,-0.202 0.343,-0.191 0.367,-0.184C0.391,-0.176 0.417,-0.172 0.445,-0.172L0.914,-0.172Z" style="fill-rule:nonzero;"/>
            </g>
            <g transform="matrix(144,0,0,144,1887.86,540.77)">
                <rect x="0.066" y="-0.669" width="0.207" height="0.669" style="fill-rule:nonzero;"/>
            </g>
            <g transform="matrix(144,0,0,144,1936.68,540.77)">
                <path d="M0.894,-0.669L0.76,-0.495L0.521,-0.495L0.521,0L0.314,0L0.314,-0.495L0,-0.495L0.134,-0.669L0.894,-0.669Z" style="fill-rule:nonzero;"/>
            </g>
            <g transform="matrix(144,0,0,144,2065.41,540.77)">
                <path d="M1.021,-0.669L0.624,-0.221L0.624,0L0.416,0L0.416,-0.222L0.008,-0.669L0.274,-0.669L0.434,-0.483C0.439,-0.477 0.446,-0.469 0.455,-0.46C0.464,-0.45 0.473,-0.44 0.482,-0.429C0.491,-0.418 0.5,-0.408 0.508,-0.399C0.516,-0.39 0.522,-0.383 0.525,-0.378C0.532,-0.387 0.541,-0.4 0.554,-0.416C0.567,-0.432 0.585,-0.455 0.609,-0.484L0.761,-0.669L1.021,-0.669Z" style="fill-rule:nonzero;"/>
            </g>
        </g>
        <g transform="matrix(1,0,0,1,-331.634,48.0951)">
            <ellipse cx="2327.96" cy="1397.46" rx="1197.63" ry="68.323" style="fill:rgb(235,235,235);"/>
        </g>
        <ellipse cx="1973.9" cy="918.066" rx="108.402" ry="573.24" style="fill:rgb(0,152,255);"/>
        <ellipse cx="1852.13" cy="1126.29" rx="100.068" ry="349.034" style="fill:rgb(0,255,252);"/>
        <g transform="matrix(1,0,0,1,246.723,2.90958)">
            <ellipse cx="1852.13" cy="1126.29" rx="100.068" ry="349.034" style="fill:rgb(0,255,252);"/>
        </g>
        <ellipse cx="1962.34" cy="1413.04" rx="319.903" ry="35.495" style="fill:rgb(0,255,53);"/>
        <g transform="matrix(1,0,0,1,-9,0)">
            <ellipse cx="1983.08" cy="1443.87" rx="70.746" ry="64.15" style="fill:rgb(0,27,255);"/>
        </g>
        <g transform="matrix(0.18,-0,-0,0.18,0,0)">
            <path d="M11445.2,8708.84L11218.7,8622.94L11285.9,8855.68C11289,8779.14 11368.7,8705.72 11445.2,8708.84Z"/>
            <path d="M11336.2,8750.39C11809.7,9264.09 13552.6,11155.1 13552.6,11155.1" style="fill:none;stroke:black;stroke-width:72.22px;"/>
        </g>
        <g transform="matrix(0.253482,0.167666,-0.511223,0.772883,2024.21,-87.2161)">
            <g transform="matrix(0.493984,-0.107163,0.326745,0.162012,-5396.83,1283.61)">
                <path d="M9722.77,8299.61L9681.12,8060.98L9515.2,8237.49C9582.63,8201.12 9686.41,8232.19 9722.77,8299.61Z"/>
                <path d="M9631.41,8227.04C9471.13,8762.54 8978.22,10409.3 8978.22,10409.3" style="fill:none;stroke:black;stroke-width:72.22px;"/>
            </g>
        </g>
        <g transform="matrix(-0.0340757,-0.302,0.920815,-0.103899,665.002,1124.52)">
            <g transform="matrix(-0.0664064,0.193021,-0.588535,-0.0217793,3922.11,-577.046)">
                <path d="M11408.6,1778.3L11252.3,1963.38L11494.1,1977.36C11423,1948.98 11380.2,1849.45 11408.6,1778.3Z"/>
                <path d="M11411.6,1894.94C11925.1,1674.22 13504.4,995.471 13504.4,995.471" style="fill:none;stroke:black;stroke-width:72.22px;"/>
            </g>
        </g>
        <g transform="matrix(0.0780789,-0.293715,0.895556,0.238068,902.715,594.637)">
            <g transform="matrix(0.15216,0.187727,-0.57239,0.0499037,1127.82,-1106.32)">
                <path d="M13826.2,1945.69L13613.4,2061.26L13833.5,2162.23C13777.6,2109.92 13773.9,2001.65 13826.2,1945.69Z"/>
                <path d="M13786.6,2055.42C14345.2,2036.57 16063.2,1978.6 16063.2,1978.6" style="fill:none;stroke:black;stroke-width:72.22px;"/>
            </g>
        </g>
        <g transform="matrix(0.131777,0.273861,-0.835018,0.401797,1611.37,291.27)">
            <g transform="matrix(0.256806,-0.175037,0.533698,0.0842247,-3162.56,1430.65)">
                <path d="M3143.63,8381.48L3230.12,8155.2L2997.21,8221.77C3073.74,8225.09 3146.95,8304.95 3143.63,8381.48Z"/>
                <path d="M3102.36,8272.34C2690.34,8650.09 1423.29,9811.76 1423.29,9811.76" style="fill:none;stroke:black;stroke-width:72.22px;"/>
            </g>
        </g>
        <g>
            <path d="M1085.88,1282.23C1085.88,1266.75 1073.32,1254.18 1057.83,1254.18L1001.74,1254.18C986.254,1254.18 973.685,1266.75 973.685,1282.23L973.685,1398.75C973.685,1414.23 986.254,1426.8 1001.74,1426.8L1057.83,1426.8C1073.32,1426.8 1085.88,1414.23 1085.88,1398.75L1085.88,1282.23Z" style="fill:rgb(0,143,255);stroke:black;stroke-width:13px;"/>
            <path d="M1259.22,1271.46C1259.22,1255.88 1246.57,1243.23 1230.98,1243.23L1174.5,1243.23C1158.92,1243.23 1146.27,1255.88 1146.27,1271.46L1146.27,1402.37C1146.27,1417.96 1158.92,1430.61 1174.5,1430.61L1230.98,1430.61C1246.57,1430.61 1259.22,1417.96 1259.22,1402.37L1259.22,1271.46Z" style="fill:rgb(0,143,255);stroke:black;stroke-width:13px;"/>
            <path d="M1499.65,1035.6C1499.65,1014.52 1482.53,997.396 1461.44,997.396L1385.03,997.396C1363.94,997.396 1346.82,1014.52 1346.82,1035.6L1346.82,1406.07C1346.82,1427.16 1363.94,1444.28 1385.03,1444.28L1461.44,1444.28C1482.53,1444.28 1499.65,1427.16 1499.65,1406.07L1499.65,1035.6Z" style="fill:rgb(0,143,255);stroke:black;stroke-width:13px;"/>
            <path d="M1375.81,1155.76C1375.81,1136.06 1359.82,1120.07 1340.12,1120.07L1268.75,1120.07C1249.06,1120.07 1233.07,1136.06 1233.07,1155.76L1233.07,1427.14C1233.07,1446.83 1249.06,1462.83 1268.75,1462.83L1340.12,1462.83C1359.82,1462.83 1375.81,1446.83 1375.81,1427.14L1375.81,1155.76Z" style="fill:rgb(0,143,255);stroke:black;stroke-width:13px;"/>
            <path d="M1175.75,1148.34C1175.75,1129.1 1160.13,1113.48 1140.89,1113.48L1071.17,1113.48C1051.94,1113.48 1036.32,1129.1 1036.32,1148.34L1036.32,1418.87C1036.32,1438.11 1051.94,1453.73 1071.17,1453.73L1140.89,1453.73C1160.13,1453.73 1175.75,1438.11 1175.75,1418.87L1175.75,1148.34Z" style="fill:rgb(0,143,255);stroke:black;stroke-width:13px;"/>
            <path d="M1620.64,1091.7C1620.64,1073.65 1605.99,1059 1587.94,1059L1522.53,1059C1504.48,1059 1489.83,1073.65 1489.83,1091.7L1489.83,1436.94C1489.83,1454.99 1504.48,1469.64 1522.53,1469.64L1587.94,1469.64C1605.99,1469.64 1620.64,1454.99 1620.64,1436.94L1620.64,1091.7Z" style="fill:rgb(0,143,255);stroke:black;stroke-width:13px;"/>
        </g>
        <g>
            <g>
                <path d="M2404.49,1115.12C2404.49,1094.6 2387.83,1077.94 2367.31,1077.94L2292.96,1077.94C2272.44,1077.94 2255.78,1094.6 2255.78,1115.12L2255.78,1396.17C2255.78,1416.69 2272.44,1433.35 2292.96,1433.35L2367.31,1433.35C2387.83,1433.35 2404.49,1416.69 2404.49,1396.17L2404.49,1115.12Z" style="fill:rgb(0,141,255);stroke:black;stroke-width:9px;"/>
                <path d="M2585.43,1203.78C2585.43,1183.64 2569.08,1167.29 2548.94,1167.29L2475.97,1167.29C2455.83,1167.29 2439.48,1183.64 2439.48,1203.78L2439.48,1378.31C2439.48,1398.45 2455.83,1414.8 2475.97,1414.8L2548.94,1414.8C2569.08,1414.8 2585.43,1398.45 2585.43,1378.31L2585.43,1203.78Z" style="fill:rgb(0,141,255);stroke:black;stroke-width:9px;"/>
                <path d="M2690.69,976.814C2690.69,967.195 2682.88,959.386 2673.26,959.386L2638.4,959.386C2628.78,959.386 2620.97,967.195 2620.97,976.814L2620.97,1434.27C2620.97,1443.89 2628.78,1451.7 2638.4,1451.7L2673.26,1451.7C2682.88,1451.7 2690.69,1443.89 2690.69,1434.27L2690.69,976.814Z" style="fill:rgb(0,141,255);stroke:black;stroke-width:9px;"/>
                <path d="M2641.27,1236.75C2641.27,1224.4 2631.24,1214.37 2618.89,1214.37L2574.14,1214.37C2561.78,1214.37 2551.76,1224.4 2551.76,1236.75L2551.76,1478.48C2551.76,1490.83 2561.78,1500.86 2574.14,1500.86L2618.89,1500.86C2631.24,1500.86 2641.27,1490.83 2641.27,1478.48L2641.27,1236.75Z" style="fill:rgb(0,141,255);stroke:black;stroke-width:9px;"/>
                <path d="M2906.69,1247.12C2906.69,1217.05 2882.28,1192.64 2852.21,1192.64L2743.24,1192.64C2713.18,1192.64 2688.76,1217.05 2688.76,1247.12L2688.76,1423.51C2688.76,1453.57 2713.18,1477.99 2743.24,1477.99L2852.21,1477.99C2882.28,1477.99 2906.69,1453.57 2906.69,1423.51L2906.69,1247.12Z" style="fill:rgb(0,141,255);stroke:black;stroke-width:9px;"/>
                <path d="M3090.97,1326.32C3090.97,1304.8 3073.5,1287.32 3051.97,1287.32L2907.82,1287.32C2886.29,1287.32 2868.82,1304.8 2868.82,1326.32L2868.82,1404.31C2868.82,1425.83 2886.29,1443.3 2907.82,1443.3L3051.97,1443.3C3073.5,1443.3 3090.97,1425.83 3090.97,1404.31L3090.97,1326.32Z" style="fill:rgb(0,141,255);stroke:black;stroke-width:9px;"/>
            </g>
            <path d="M2531.02,1270.93C2531.02,1248.72 2512.99,1230.68 2490.77,1230.68L2410.28,1230.68C2388.06,1230.68 2370.03,1248.72 2370.03,1270.93L2370.03,1434.13C2370.03,1456.35 2388.06,1474.38 2410.28,1474.38L2490.77,1474.38C2512.99,1474.38 2531.02,1456.35 2531.02,1434.13L2531.02,1270.93Z" style="fill:rgb(0,141,255);stroke:black;stroke-width:9px;"/>
        </g>
        <g transform="matrix(1,0,0,1,-125.657,41.5224)">
            <g transform="matrix(95.8893,0,0,95.8893,2526.9,2046.41)">
                <path d="M0.914,-0.172L0.781,0L0.445,0C0.387,0 0.333,-0.009 0.284,-0.026C0.235,-0.043 0.192,-0.067 0.157,-0.098C0.121,-0.128 0.093,-0.164 0.073,-0.206C0.052,-0.247 0.042,-0.292 0.042,-0.341C0.042,-0.39 0.052,-0.434 0.073,-0.475C0.093,-0.515 0.121,-0.55 0.157,-0.579C0.192,-0.608 0.235,-0.63 0.284,-0.646C0.333,-0.661 0.387,-0.669 0.445,-0.669L0.914,-0.669L0.781,-0.495L0.445,-0.495C0.417,-0.495 0.391,-0.491 0.367,-0.483C0.343,-0.475 0.322,-0.464 0.305,-0.45C0.288,-0.435 0.274,-0.418 0.264,-0.398C0.254,-0.378 0.249,-0.356 0.249,-0.332C0.249,-0.308 0.254,-0.286 0.264,-0.267C0.273,-0.247 0.287,-0.23 0.305,-0.216C0.322,-0.202 0.343,-0.191 0.367,-0.184C0.391,-0.176 0.417,-0.172 0.445,-0.172L0.914,-0.172Z" style="fill-rule:nonzero;"/>
            </g>
            <g transform="matrix(95.8893,0,0,95.8893,2615.41,2046.41)">
                <path d="M0.531,-0.68C0.694,-0.68 0.816,-0.652 0.898,-0.597C0.979,-0.542 1.02,-0.454 1.02,-0.335C1.02,-0.215 0.979,-0.127 0.898,-0.072C0.817,-0.017 0.694,0.011 0.531,0.011C0.367,0.011 0.245,-0.017 0.164,-0.072C0.083,-0.127 0.042,-0.215 0.042,-0.335C0.042,-0.454 0.083,-0.542 0.164,-0.597C0.245,-0.652 0.368,-0.68 0.531,-0.68ZM0.531,-0.163C0.583,-0.163 0.627,-0.165 0.663,-0.17C0.699,-0.174 0.728,-0.182 0.751,-0.195C0.773,-0.208 0.789,-0.225 0.799,-0.248C0.809,-0.27 0.814,-0.299 0.814,-0.335C0.814,-0.371 0.809,-0.4 0.799,-0.423C0.789,-0.445 0.773,-0.462 0.751,-0.475C0.728,-0.487 0.699,-0.495 0.663,-0.5C0.627,-0.504 0.583,-0.506 0.531,-0.506C0.479,-0.506 0.435,-0.504 0.399,-0.5C0.363,-0.495 0.334,-0.487 0.312,-0.475C0.289,-0.462 0.273,-0.445 0.263,-0.423C0.253,-0.4 0.248,-0.371 0.248,-0.335C0.248,-0.299 0.253,-0.27 0.263,-0.248C0.273,-0.225 0.289,-0.208 0.312,-0.195C0.334,-0.182 0.363,-0.174 0.399,-0.17C0.435,-0.165 0.479,-0.163 0.531,-0.163Z" style="fill-rule:nonzero;"/>
            </g>
            <g transform="matrix(95.8893,0,0,95.8893,2717.24,2046.41)">
                <path d="M1.012,0L0.735,0L0.586,-0.177L0.268,-0.177L0.268,0L0.061,0L0.061,-0.342L0.643,-0.342C0.675,-0.342 0.702,-0.349 0.724,-0.362C0.746,-0.375 0.757,-0.394 0.757,-0.417C0.757,-0.443 0.747,-0.463 0.727,-0.476C0.707,-0.489 0.679,-0.495 0.643,-0.495L0.061,-0.495L0.196,-0.669L0.626,-0.669C0.664,-0.669 0.703,-0.666 0.744,-0.659C0.785,-0.652 0.822,-0.639 0.855,-0.621C0.888,-0.603 0.916,-0.579 0.938,-0.548C0.959,-0.517 0.97,-0.478 0.97,-0.43C0.97,-0.404 0.966,-0.379 0.958,-0.356C0.95,-0.333 0.939,-0.312 0.924,-0.293C0.909,-0.274 0.89,-0.259 0.869,-0.246C0.847,-0.233 0.822,-0.223 0.795,-0.218C0.806,-0.209 0.819,-0.198 0.833,-0.185C0.847,-0.172 0.866,-0.153 0.889,-0.13L1.012,0Z" style="fill-rule:nonzero;"/>
            </g>
            <g transform="matrix(95.8893,0,0,95.8893,2815.34,2046.41)">
                <path d="M0.84,-0.172L0.707,0L0.063,0L0.063,-0.669L0.838,-0.669L0.704,-0.495L0.271,-0.495L0.271,-0.415L0.801,-0.415L0.682,-0.263L0.271,-0.263L0.271,-0.172L0.84,-0.172Z" style="fill-rule:nonzero;"/>
            </g>
            <g transform="matrix(95.8893,0,0,95.8893,2933.38,2046.41)">
                <path d="M1.012,0L0.735,0L0.586,-0.177L0.268,-0.177L0.268,0L0.061,0L0.061,-0.342L0.643,-0.342C0.675,-0.342 0.702,-0.349 0.724,-0.362C0.746,-0.375 0.757,-0.394 0.757,-0.417C0.757,-0.443 0.747,-0.463 0.727,-0.476C0.707,-0.489 0.679,-0.495 0.643,-0.495L0.061,-0.495L0.196,-0.669L0.626,-0.669C0.664,-0.669 0.703,-0.666 0.744,-0.659C0.785,-0.652 0.822,-0.639 0.855,-0.621C0.888,-0.603 0.916,-0.579 0.938,-0.548C0.959,-0.517 0.97,-0.478 0.97,-0.43C0.97,-0.404 0.966,-0.379 0.958,-0.356C0.95,-0.333 0.939,-0.312 0.924,-0.293C0.909,-0.274 0.89,-0.259 0.869,-0.246C0.847,-0.233 0.822,-0.223 0.795,-0.218C0.806,-0.209 0.819,-0.198 0.833,-0.185C0.847,-0.172 0.866,-0.153 0.889,-0.13L1.012,0Z" style="fill-rule:nonzero;"/>
            </g>
            <g transform="matrix(95.8893,0,0,95.8893,3031.47,2046.41)">
                <path d="M0.84,-0.172L0.707,0L0.063,0L0.063,-0.669L0.838,-0.669L0.704,-0.495L0.271,-0.495L0.271,-0.415L0.801,-0.415L0.682,-0.263L0.271,-0.263L0.271,-0.172L0.84,-0.172Z" style="fill-rule:nonzero;"/>
            </g>
            <g transform="matrix(95.8893,0,0,95.8893,3109.53,2046.41)">
                <path d="M0.346,0L0.471,-0.172L0.702,-0.172C0.723,-0.172 0.742,-0.171 0.758,-0.17C0.749,-0.182 0.738,-0.197 0.726,-0.216C0.713,-0.234 0.701,-0.251 0.69,-0.267L0.57,-0.444L0.256,0L0.011,0L0.44,-0.605C0.454,-0.624 0.472,-0.642 0.493,-0.657C0.514,-0.672 0.541,-0.68 0.574,-0.68C0.605,-0.68 0.631,-0.673 0.653,-0.659C0.674,-0.644 0.691,-0.626 0.706,-0.605L1.124,0L0.346,0Z" style="fill-rule:nonzero;"/>
            </g>
            <g transform="matrix(95.8893,0,0,95.8893,3208.48,2046.41)">
                <path d="M0.914,-0.172L0.781,0L0.445,0C0.387,0 0.333,-0.009 0.284,-0.026C0.235,-0.043 0.192,-0.067 0.157,-0.098C0.121,-0.128 0.093,-0.164 0.073,-0.206C0.052,-0.247 0.042,-0.292 0.042,-0.341C0.042,-0.39 0.052,-0.434 0.073,-0.475C0.093,-0.515 0.121,-0.55 0.157,-0.579C0.192,-0.608 0.235,-0.63 0.284,-0.646C0.333,-0.661 0.387,-0.669 0.445,-0.669L0.914,-0.669L0.781,-0.495L0.445,-0.495C0.417,-0.495 0.391,-0.491 0.367,-0.483C0.343,-0.475 0.322,-0.464 0.305,-0.45C0.288,-0.435 0.274,-0.418 0.264,-0.398C0.254,-0.378 0.249,-0.356 0.249,-0.332C0.249,-0.308 0.254,-0.286 0.264,-0.267C0.273,-0.247 0.287,-0.23 0.305,-0.216C0.322,-0.202 0.343,-0.191 0.367,-0.184C0.391,-0.176 0.417,-0.172 0.445,-0.172L0.914,-0.172Z" style="fill-rule:nonzero;"/>
            </g>
            <g transform="matrix(95.8893,0,0,95.8893,3296.99,2046.41)">
                <path d="M0.894,-0.669L0.76,-0.495L0.521,-0.495L0.521,0L0.314,0L0.314,-0.495L0,-0.495L0.134,-0.669L0.894,-0.669Z" style="fill-rule:nonzero;"/>
            </g>
            <g transform="matrix(95.8893,0,0,95.8893,3373.61,2046.41)">
                <path d="M0.531,-0.68C0.694,-0.68 0.816,-0.652 0.898,-0.597C0.979,-0.542 1.02,-0.454 1.02,-0.335C1.02,-0.215 0.979,-0.127 0.898,-0.072C0.817,-0.017 0.694,0.011 0.531,0.011C0.367,0.011 0.245,-0.017 0.164,-0.072C0.083,-0.127 0.042,-0.215 0.042,-0.335C0.042,-0.454 0.083,-0.542 0.164,-0.597C0.245,-0.652 0.368,-0.68 0.531,-0.68ZM0.531,-0.163C0.583,-0.163 0.627,-0.165 0.663,-0.17C0.699,-0.174 0.728,-0.182 0.751,-0.195C0.773,-0.208 0.789,-0.225 0.799,-0.248C0.809,-0.27 0.814,-0.299 0.814,-0.335C0.814,-0.371 0.809,-0.4 0.799,-0.423C0.789,-0.445 0.773,-0.462 0.751,-0.475C0.728,-0.487 0.699,-0.495 0.663,-0.5C0.627,-0.504 0.583,-0.506 0.531,-0.506C0.479,-0.506 0.435,-0.504 0.399,-0.5C0.363,-0.495 0.334,-0.487 0.312,-0.475C0.289,-0.462 0.273,-0.445 0.263,-0.423C0.253,-0.4 0.248,-0.371 0.248,-0.335C0.248,-0.299 0.253,-0.27 0.263,-0.248C0.273,-0.225 0.289,-0.208 0.312,-0.195C0.334,-0.182 0.363,-0.174 0.399,-0.17C0.435,-0.165 0.479,-0.163 0.531,-0.163Z" style="fill-rule:nonzero;"/>
            </g>
            <g transform="matrix(95.8893,0,0,95.8893,3475.44,2046.41)">
                <path d="M1.012,0L0.735,0L0.586,-0.177L0.268,-0.177L0.268,0L0.061,0L0.061,-0.342L0.643,-0.342C0.675,-0.342 0.702,-0.349 0.724,-0.362C0.746,-0.375 0.757,-0.394 0.757,-0.417C0.757,-0.443 0.747,-0.463 0.727,-0.476C0.707,-0.489 0.679,-0.495 0.643,-0.495L0.061,-0.495L0.196,-0.669L0.626,-0.669C0.664,-0.669 0.703,-0.666 0.744,-0.659C0.785,-0.652 0.822,-0.639 0.855,-0.621C0.888,-0.603 0.916,-0.579 0.938,-0.548C0.959,-0.517 0.97,-0.478 0.97,-0.43C0.97,-0.404 0.966,-0.379 0.958,-0.356C0.95,-0.333 0.939,-0.312 0.924,-0.293C0.909,-0.274 0.89,-0.259 0.869,-0.246C0.847,-0.233 0.822,-0.223 0.795,-0.218C0.806,-0.209 0.819,-0.198 0.833,-0.185C0.847,-0.172 0.866,-0.153 0.889,-0.13L1.012,0Z" style="fill-rule:nonzero;"/>
            </g>
        </g>
        <g>
            <g transform="matrix(95.8893,0,0,95.8893,1480.14,1979.56)">
                <path d="M0.914,-0.172L0.781,0L0.445,0C0.387,0 0.333,-0.009 0.284,-0.026C0.235,-0.043 0.192,-0.067 0.157,-0.098C0.121,-0.128 0.093,-0.164 0.073,-0.206C0.052,-0.247 0.042,-0.292 0.042,-0.341C0.042,-0.39 0.052,-0.434 0.073,-0.475C0.093,-0.515 0.121,-0.55 0.157,-0.579C0.192,-0.608 0.235,-0.63 0.284,-0.646C0.333,-0.661 0.387,-0.669 0.445,-0.669L0.914,-0.669L0.781,-0.495L0.445,-0.495C0.417,-0.495 0.391,-0.491 0.367,-0.483C0.343,-0.475 0.322,-0.464 0.305,-0.45C0.288,-0.435 0.274,-0.418 0.264,-0.398C0.254,-0.378 0.249,-0.356 0.249,-0.332C0.249,-0.308 0.254,-0.286 0.264,-0.267C0.273,-0.247 0.287,-0.23 0.305,-0.216C0.322,-0.202 0.343,-0.191 0.367,-0.184C0.391,-0.176 0.417,-0.172 0.445,-0.172L0.914,-0.172Z" style="fill-rule:nonzero;"/>
            </g>
            <g transform="matrix(95.8893,0,0,95.8893,1568.64,1979.56)">
                <path d="M0.84,-0.172L0.707,0L0.063,0L0.063,-0.669L0.838,-0.669L0.704,-0.495L0.271,-0.495L0.271,-0.415L0.801,-0.415L0.682,-0.263L0.271,-0.263L0.271,-0.172L0.84,-0.172Z" style="fill-rule:nonzero;"/>
            </g>
            <g transform="matrix(95.8893,0,0,95.8893,1649.96,1979.56)">
                <path d="M0.741,0.011C0.728,0.011 0.715,0.009 0.702,0.005C0.689,0 0.674,-0.01 0.658,-0.025L0.248,-0.393L0.248,0L0.06,0L0.06,-0.555C0.06,-0.577 0.063,-0.596 0.07,-0.612C0.076,-0.628 0.084,-0.641 0.095,-0.651C0.105,-0.661 0.117,-0.668 0.131,-0.673C0.144,-0.678 0.158,-0.68 0.173,-0.68C0.186,-0.68 0.199,-0.678 0.212,-0.674C0.225,-0.669 0.239,-0.659 0.256,-0.644L0.666,-0.276L0.666,-0.669L0.855,-0.669L0.855,-0.115C0.855,-0.093 0.852,-0.074 0.846,-0.058C0.839,-0.042 0.831,-0.029 0.821,-0.019C0.81,-0.008 0.798,-0.001 0.784,0.004C0.77,0.009 0.756,0.011 0.741,0.011Z" style="fill-rule:nonzero;"/>
            </g>
            <g transform="matrix(95.8893,0,0,95.8893,1737.6,1979.56)">
                <path d="M0.894,-0.669L0.76,-0.495L0.521,-0.495L0.521,0L0.314,0L0.314,-0.495L0,-0.495L0.134,-0.669L0.894,-0.669Z" style="fill-rule:nonzero;"/>
            </g>
            <g transform="matrix(95.8893,0,0,95.8893,1816.9,1979.56)">
                <path d="M1.012,0L0.735,0L0.586,-0.177L0.268,-0.177L0.268,0L0.061,0L0.061,-0.342L0.643,-0.342C0.675,-0.342 0.702,-0.349 0.724,-0.362C0.746,-0.375 0.757,-0.394 0.757,-0.417C0.757,-0.443 0.747,-0.463 0.727,-0.476C0.707,-0.489 0.679,-0.495 0.643,-0.495L0.061,-0.495L0.196,-0.669L0.626,-0.669C0.664,-0.669 0.703,-0.666 0.744,-0.659C0.785,-0.652 0.822,-0.639 0.855,-0.621C0.888,-0.603 0.916,-0.579 0.938,-0.548C0.959,-0.517 0.97,-0.478 0.97,-0.43C0.97,-0.404 0.966,-0.379 0.958,-0.356C0.95,-0.333 0.939,-0.312 0.924,-0.293C0.909,-0.274 0.89,-0.259 0.869,-0.246C0.847,-0.233 0.822,-0.223 0.795,-0.218C0.806,-0.209 0.819,-0.198 0.833,-0.185C0.847,-0.172 0.866,-0.153 0.889,-0.13L1.012,0Z" style="fill-rule:nonzero;"/>
            </g>
            <g transform="matrix(95.8893,0,0,95.8893,1915,1979.56)">
                <path d="M0.346,0L0.471,-0.172L0.702,-0.172C0.723,-0.172 0.742,-0.171 0.758,-0.17C0.749,-0.182 0.738,-0.197 0.726,-0.216C0.713,-0.234 0.701,-0.251 0.69,-0.267L0.57,-0.444L0.256,0L0.011,0L0.44,-0.605C0.454,-0.624 0.472,-0.642 0.493,-0.657C0.514,-0.672 0.541,-0.68 0.574,-0.68C0.605,-0.68 0.631,-0.673 0.653,-0.659C0.674,-0.644 0.691,-0.626 0.706,-0.605L1.124,0L0.346,0Z" style="fill-rule:nonzero;"/>
            </g>
            <g transform="matrix(95.8893,0,0,95.8893,2023.83,1979.56)">
                <path d="M0.788,-0.172L0.654,0L0.063,0L0.063,-0.669L0.27,-0.669L0.27,-0.172L0.788,-0.172Z" style="fill-rule:nonzero;"/>
            </g>
            <g transform="matrix(95.8893,0,0,95.8893,1480.14,2075.45)">
                <path d="M0.946,-0.418C0.946,-0.381 0.939,-0.347 0.924,-0.317C0.909,-0.286 0.888,-0.26 0.86,-0.239C0.831,-0.218 0.797,-0.201 0.756,-0.189C0.715,-0.177 0.669,-0.171 0.617,-0.171L0.267,-0.171L0.267,0L0.061,0L0.061,-0.342L0.637,-0.342C0.669,-0.342 0.694,-0.349 0.712,-0.363C0.729,-0.377 0.738,-0.396 0.738,-0.419C0.738,-0.442 0.729,-0.461 0.712,-0.475C0.694,-0.488 0.669,-0.495 0.637,-0.495L0.061,-0.495L0.198,-0.669L0.618,-0.669C0.67,-0.669 0.716,-0.663 0.757,-0.651C0.798,-0.638 0.832,-0.621 0.86,-0.599C0.888,-0.577 0.909,-0.551 0.924,-0.52C0.939,-0.489 0.946,-0.455 0.946,-0.418Z" style="fill-rule:nonzero;"/>
            </g>
            <g transform="matrix(95.8893,0,0,95.8893,1559.73,2075.45)">
                <path d="M0.346,0L0.471,-0.172L0.702,-0.172C0.723,-0.172 0.742,-0.171 0.758,-0.17C0.749,-0.182 0.738,-0.197 0.726,-0.216C0.713,-0.234 0.701,-0.251 0.69,-0.267L0.57,-0.444L0.256,0L0.011,0L0.44,-0.605C0.454,-0.624 0.472,-0.642 0.493,-0.657C0.514,-0.672 0.541,-0.68 0.574,-0.68C0.605,-0.68 0.631,-0.673 0.653,-0.659C0.674,-0.644 0.691,-0.626 0.706,-0.605L1.124,0L0.346,0Z" style="fill-rule:nonzero;"/>
            </g>
            <g transform="matrix(95.8893,0,0,95.8893,1668.56,2075.45)">
                <path d="M1.012,0L0.735,0L0.586,-0.177L0.268,-0.177L0.268,0L0.061,0L0.061,-0.342L0.643,-0.342C0.675,-0.342 0.702,-0.349 0.724,-0.362C0.746,-0.375 0.757,-0.394 0.757,-0.417C0.757,-0.443 0.747,-0.463 0.727,-0.476C0.707,-0.489 0.679,-0.495 0.643,-0.495L0.061,-0.495L0.196,-0.669L0.626,-0.669C0.664,-0.669 0.703,-0.666 0.744,-0.659C0.785,-0.652 0.822,-0.639 0.855,-0.621C0.888,-0.603 0.916,-0.579 0.938,-0.548C0.959,-0.517 0.97,-0.478 0.97,-0.43C0.97,-0.404 0.966,-0.379 0.958,-0.356C0.95,-0.333 0.939,-0.312 0.924,-0.293C0.909,-0.274 0.89,-0.259 0.869,-0.246C0.847,-0.233 0.822,-0.223 0.795,-0.218C0.806,-0.209 0.819,-0.198 0.833,-0.185C0.847,-0.172 0.866,-0.153 0.889,-0.13L1.012,0Z" style="fill-rule:nonzero;"/>
            </g>
            <g transform="matrix(95.8893,0,0,95.8893,1766.66,2075.45)">
                <path d="M0.907,0L0.594,0L0.392,-0.176C0.357,-0.206 0.331,-0.229 0.313,-0.246C0.294,-0.263 0.279,-0.277 0.268,-0.288C0.269,-0.273 0.269,-0.257 0.27,-0.241C0.271,-0.224 0.271,-0.208 0.271,-0.192L0.271,0L0.063,0L0.063,-0.669L0.271,-0.669L0.271,-0.514C0.271,-0.493 0.271,-0.473 0.27,-0.453C0.269,-0.433 0.268,-0.414 0.267,-0.397C0.28,-0.409 0.297,-0.424 0.316,-0.442C0.335,-0.459 0.359,-0.481 0.39,-0.506L0.583,-0.669L0.883,-0.669L0.627,-0.477C0.605,-0.46 0.586,-0.446 0.569,-0.433C0.552,-0.42 0.536,-0.409 0.523,-0.4C0.51,-0.391 0.498,-0.382 0.487,-0.375C0.476,-0.368 0.465,-0.361 0.454,-0.354C0.473,-0.341 0.497,-0.324 0.524,-0.304C0.551,-0.284 0.587,-0.256 0.63,-0.221L0.907,0Z" style="fill-rule:nonzero;"/>
            </g>
        </g>
        <g transform="matrix(95.8893,0,0,95.8893,2457.2,182.898)">
            <path d="M0.894,-0.669L0.76,-0.495L0.521,-0.495L0.521,0L0.314,0L0.314,-0.495L0,-0.495L0.134,-0.669L0.894,-0.669Z" style="fill-rule:nonzero;"/>
        </g>
        <g transform="matrix(95.8893,0,0,95.8893,2542.93,182.898)">
            <path d="M0.875,0L0.669,0L0.669,-0.258L0.271,-0.258L0.271,0L0.063,0L0.063,-0.669L0.271,-0.669L0.271,-0.432L0.669,-0.432L0.669,-0.669L0.875,-0.669L0.875,0Z" style="fill-rule:nonzero;"/>
        </g>
        <g transform="matrix(95.8893,0,0,95.8893,2632.97,182.898)">
            <path d="M0.84,-0.172L0.707,0L0.063,0L0.063,-0.669L0.838,-0.669L0.704,-0.495L0.271,-0.495L0.271,-0.415L0.801,-0.415L0.682,-0.263L0.271,-0.263L0.271,-0.172L0.84,-0.172Z" style="fill-rule:nonzero;"/>
        </g>
        <g transform="matrix(95.8893,0,0,95.8893,2751.01,182.898)">
            <path d="M0.202,-0.669L0.141,-0.401L0.078,-0.401L0.017,-0.669L0.202,-0.669ZM0.429,-0.669L0.368,-0.401L0.305,-0.401L0.244,-0.669L0.429,-0.669Z" style="fill-rule:nonzero;"/>
        </g>
        <g transform="matrix(95.8893,0,0,95.8893,2793.77,182.898)">
            <path d="M0.683,-0.402C0.765,-0.402 0.827,-0.387 0.87,-0.357C0.913,-0.326 0.934,-0.28 0.934,-0.219C0.934,-0.185 0.929,-0.154 0.918,-0.127C0.907,-0.1 0.89,-0.077 0.867,-0.058C0.844,-0.039 0.814,-0.025 0.778,-0.015C0.741,-0.005 0.698,0 0.647,0L0.024,0L0.157,-0.172L0.663,-0.172C0.688,-0.172 0.706,-0.176 0.717,-0.184C0.728,-0.191 0.734,-0.204 0.734,-0.221C0.734,-0.238 0.728,-0.251 0.717,-0.258C0.706,-0.265 0.688,-0.269 0.663,-0.269L0.299,-0.269C0.256,-0.269 0.218,-0.274 0.187,-0.283C0.156,-0.292 0.13,-0.305 0.109,-0.322C0.088,-0.339 0.073,-0.359 0.063,-0.383C0.053,-0.406 0.048,-0.432 0.048,-0.461C0.048,-0.492 0.054,-0.521 0.065,-0.547C0.076,-0.572 0.093,-0.594 0.116,-0.612C0.138,-0.63 0.168,-0.644 0.205,-0.654C0.241,-0.664 0.284,-0.669 0.335,-0.669L0.916,-0.669L0.783,-0.495L0.319,-0.495C0.295,-0.495 0.277,-0.492 0.266,-0.485C0.254,-0.478 0.248,-0.466 0.248,-0.449C0.248,-0.432 0.254,-0.42 0.266,-0.413C0.277,-0.406 0.295,-0.402 0.319,-0.402L0.683,-0.402Z" style="fill-rule:nonzero;"/>
        </g>
        <g transform="matrix(95.8893,0,0,95.8893,2886.11,182.898)">
            <path d="M0.946,-0.418C0.946,-0.381 0.939,-0.347 0.924,-0.317C0.909,-0.286 0.888,-0.26 0.86,-0.239C0.831,-0.218 0.797,-0.201 0.756,-0.189C0.715,-0.177 0.669,-0.171 0.617,-0.171L0.267,-0.171L0.267,0L0.061,0L0.061,-0.342L0.637,-0.342C0.669,-0.342 0.694,-0.349 0.712,-0.363C0.729,-0.377 0.738,-0.396 0.738,-0.419C0.738,-0.442 0.729,-0.461 0.712,-0.475C0.694,-0.488 0.669,-0.495 0.637,-0.495L0.061,-0.495L0.198,-0.669L0.618,-0.669C0.67,-0.669 0.716,-0.663 0.757,-0.651C0.798,-0.638 0.832,-0.621 0.86,-0.599C0.888,-0.577 0.909,-0.551 0.924,-0.52C0.939,-0.489 0.946,-0.455 0.946,-0.418Z" style="fill-rule:nonzero;"/>
        </g>
        <g transform="matrix(95.8893,0,0,95.8893,2980.85,182.898)">
            <rect x="0.066" y="-0.669" width="0.207" height="0.669" style="fill-rule:nonzero;"/>
        </g>
        <g transform="matrix(95.8893,0,0,95.8893,3013.36,182.898)">
            <path d="M1.012,0L0.735,0L0.586,-0.177L0.268,-0.177L0.268,0L0.061,0L0.061,-0.342L0.643,-0.342C0.675,-0.342 0.702,-0.349 0.724,-0.362C0.746,-0.375 0.757,-0.394 0.757,-0.417C0.757,-0.443 0.747,-0.463 0.727,-0.476C0.707,-0.489 0.679,-0.495 0.643,-0.495L0.061,-0.495L0.196,-0.669L0.626,-0.669C0.664,-0.669 0.703,-0.666 0.744,-0.659C0.785,-0.652 0.822,-0.639 0.855,-0.621C0.888,-0.603 0.916,-0.579 0.938,-0.548C0.959,-0.517 0.97,-0.478 0.97,-0.43C0.97,-0.404 0.966,-0.379 0.958,-0.356C0.95,-0.333 0.939,-0.312 0.924,-0.293C0.909,-0.274 0.89,-0.259 0.869,-0.246C0.847,-0.233 0.822,-0.223 0.795,-0.218C0.806,-0.209 0.819,-0.198 0.833,-0.185C0.847,-0.172 0.866,-0.153 0.889,-0.13L1.012,0Z" style="fill-rule:nonzero;"/>
        </g>
        <g transform="matrix(95.8893,0,0,95.8893,3111.45,182.898)">
            <path d="M0.84,-0.172L0.707,0L0.063,0L0.063,-0.669L0.838,-0.669L0.704,-0.495L0.271,-0.495L0.271,-0.415L0.801,-0.415L0.682,-0.263L0.271,-0.263L0.271,-0.172L0.84,-0.172Z" style="fill-rule:nonzero;"/>
        </g>
        <g transform="matrix(95.8893,0,0,95.8893,3192.77,182.898)">
            <path d="M0.202,-0.669L0.141,-0.401L0.078,-0.401L0.017,-0.669L0.202,-0.669ZM0.429,-0.669L0.368,-0.401L0.305,-0.401L0.244,-0.669L0.429,-0.669Z" style="fill-rule:nonzero;"/>
        </g>
        <g transform="matrix(6.12323e-17,-1,1,6.12323e-17,-899.205,2171.3)">
            <path d="M727.628,1416.27L787.657,1798.38L667.599,1798.38L727.628,1416.27Z" style="fill:rgb(144,159,170);stroke:black;stroke-width:9px;"/>
        </g>
        <g transform="matrix(6.12323e-17,1,-1,6.12323e-17,4946.71,716.156)">
            <path d="M727.628,1416.27L787.657,1798.38L667.599,1798.38L727.628,1416.27Z" style="fill:rgb(144,159,170);stroke:black;stroke-width:9px;"/>
        </g>
        <g transform="matrix(95.8893,0,0,95.8893,106.861,1874.37)">
            <path d="M0.346,0L0.471,-0.172L0.702,-0.172C0.723,-0.172 0.742,-0.171 0.758,-0.17C0.749,-0.182 0.738,-0.197 0.726,-0.216C0.713,-0.234 0.701,-0.251 0.69,-0.267L0.57,-0.444L0.256,0L0.011,0L0.44,-0.605C0.454,-0.624 0.472,-0.642 0.493,-0.657C0.514,-0.672 0.541,-0.68 0.574,-0.68C0.605,-0.68 0.631,-0.673 0.653,-0.659C0.674,-0.644 0.691,-0.626 0.706,-0.605L1.124,0L0.346,0Z" style="fill-rule:nonzero;"/>
        </g>
        <g transform="matrix(95.8893,0,0,95.8893,215.696,1874.37)">
            <rect x="0.066" y="-0.669" width="0.207" height="0.669" style="fill-rule:nonzero;"/>
        </g>
        <g transform="matrix(95.8893,0,0,95.8893,248.202,1874.37)">
            <path d="M1.012,0L0.735,0L0.586,-0.177L0.268,-0.177L0.268,0L0.061,0L0.061,-0.342L0.643,-0.342C0.675,-0.342 0.702,-0.349 0.724,-0.362C0.746,-0.375 0.757,-0.394 0.757,-0.417C0.757,-0.443 0.747,-0.463 0.727,-0.476C0.707,-0.489 0.679,-0.495 0.643,-0.495L0.061,-0.495L0.196,-0.669L0.626,-0.669C0.664,-0.669 0.703,-0.666 0.744,-0.659C0.785,-0.652 0.822,-0.639 0.855,-0.621C0.888,-0.603 0.916,-0.579 0.938,-0.548C0.959,-0.517 0.97,-0.478 0.97,-0.43C0.97,-0.404 0.966,-0.379 0.958,-0.356C0.95,-0.333 0.939,-0.312 0.924,-0.293C0.909,-0.274 0.89,-0.259 0.869,-0.246C0.847,-0.233 0.822,-0.223 0.795,-0.218C0.806,-0.209 0.819,-0.198 0.833,-0.185C0.847,-0.172 0.866,-0.153 0.889,-0.13L1.012,0Z" style="fill-rule:nonzero;"/>
        </g>
        <g transform="matrix(95.8893,0,0,95.8893,383.023,1874.37)">
            <path d="M0.813,-0.669L0.679,-0.495L0.271,-0.495L0.271,-0.408L0.775,-0.408L0.649,-0.245L0.271,-0.245L0.271,0L0.063,0L0.063,-0.669L0.813,-0.669Z" style="fill-rule:nonzero;"/>
        </g>
        <g transform="matrix(95.8893,0,0,95.8893,458.871,1874.37)">
            <path d="M0.531,-0.68C0.694,-0.68 0.816,-0.652 0.898,-0.597C0.979,-0.542 1.02,-0.454 1.02,-0.335C1.02,-0.215 0.979,-0.127 0.898,-0.072C0.817,-0.017 0.694,0.011 0.531,0.011C0.367,0.011 0.245,-0.017 0.164,-0.072C0.083,-0.127 0.042,-0.215 0.042,-0.335C0.042,-0.454 0.083,-0.542 0.164,-0.597C0.245,-0.652 0.368,-0.68 0.531,-0.68ZM0.531,-0.163C0.583,-0.163 0.627,-0.165 0.663,-0.17C0.699,-0.174 0.728,-0.182 0.751,-0.195C0.773,-0.208 0.789,-0.225 0.799,-0.248C0.809,-0.27 0.814,-0.299 0.814,-0.335C0.814,-0.371 0.809,-0.4 0.799,-0.423C0.789,-0.445 0.773,-0.462 0.751,-0.475C0.728,-0.487 0.699,-0.495 0.663,-0.5C0.627,-0.504 0.583,-0.506 0.531,-0.506C0.479,-0.506 0.435,-0.504 0.399,-0.5C0.363,-0.495 0.334,-0.487 0.312,-0.475C0.289,-0.462 0.273,-0.445 0.263,-0.423C0.253,-0.4 0.248,-0.371 0.248,-0.335C0.248,-0.299 0.253,-0.27 0.263,-0.248C0.273,-0.225 0.289,-0.208 0.312,-0.195C0.334,-0.182 0.363,-0.174 0.399,-0.17C0.435,-0.165 0.479,-0.163 0.531,-0.163Z" style="fill-rule:nonzero;"/>
        </g>
        <g transform="matrix(95.8893,0,0,95.8893,560.705,1874.37)">
            <rect x="0.066" y="-0.669" width="0.207" height="0.669" style="fill-rule:nonzero;"/>
        </g>
        <g transform="matrix(95.8893,0,0,95.8893,593.212,1874.37)">
            <path d="M0.788,-0.172L0.654,0L0.063,0L0.063,-0.669L0.27,-0.669L0.27,-0.172L0.788,-0.172Z" style="fill-rule:nonzero;"/>
        </g>
        <g transform="matrix(95.8893,0,0,95.8893,669.348,1874.37)">
            <path d="M0.683,-0.402C0.765,-0.402 0.827,-0.387 0.87,-0.357C0.913,-0.326 0.934,-0.28 0.934,-0.219C0.934,-0.185 0.929,-0.154 0.918,-0.127C0.907,-0.1 0.89,-0.077 0.867,-0.058C0.844,-0.039 0.814,-0.025 0.778,-0.015C0.741,-0.005 0.698,0 0.647,0L0.024,0L0.157,-0.172L0.663,-0.172C0.688,-0.172 0.706,-0.176 0.717,-0.184C0.728,-0.191 0.734,-0.204 0.734,-0.221C0.734,-0.238 0.728,-0.251 0.717,-0.258C0.706,-0.265 0.688,-0.269 0.663,-0.269L0.299,-0.269C0.256,-0.269 0.218,-0.274 0.187,-0.283C0.156,-0.292 0.13,-0.305 0.109,-0.322C0.088,-0.339 0.073,-0.359 0.063,-0.383C0.053,-0.406 0.048,-0.432 0.048,-0.461C0.048,-0.492 0.054,-0.521 0.065,-0.547C0.076,-0.572 0.093,-0.594 0.116,-0.612C0.138,-0.63 0.168,-0.644 0.205,-0.654C0.241,-0.664 0.284,-0.669 0.335,-0.669L0.916,-0.669L0.783,-0.495L0.319,-0.495C0.295,-0.495 0.277,-0.492 0.266,-0.485C0.254,-0.478 0.248,-0.466 0.248,-0.449C0.248,-0.432 0.254,-0.42 0.266,-0.413C0.277,-0.406 0.295,-0.402 0.319,-0.402L0.683,-0.402Z" style="fill-rule:nonzero;"/>
        </g>
        <path d="M908.272,1499.02C908.272,1499.02 801.348,303.999 1961.15,309.575C3120.95,315.151 3150.3,1512.98 3150.3,1512.98L908.272,1499.02Z" style="fill:rgb(0,214,255);fill-opacity:0.15;stroke:black;stroke-width:9px;"/>
        <g transform="matrix(1,0,0,1,-45.5448,-58.9104)">
            <g transform="matrix(95.8893,0,0,95.8893,2953.99,412.326)">
                <path d="M0.894,-0.669L0.76,-0.495L0.521,-0.495L0.521,0L0.314,0L0.314,-0.495L0,-0.495L0.134,-0.669L0.894,-0.669Z" style="fill-rule:nonzero;"/>
            </g>
            <g transform="matrix(95.8893,0,0,95.8893,3039.71,412.326)">
                <path d="M0.875,0L0.669,0L0.669,-0.258L0.271,-0.258L0.271,0L0.063,0L0.063,-0.669L0.271,-0.669L0.271,-0.432L0.669,-0.432L0.669,-0.669L0.875,-0.669L0.875,0Z" style="fill-rule:nonzero;"/>
            </g>
            <g transform="matrix(95.8893,0,0,95.8893,3129.75,412.326)">
                <path d="M0.84,-0.172L0.707,0L0.063,0L0.063,-0.669L0.838,-0.669L0.704,-0.495L0.271,-0.495L0.271,-0.415L0.801,-0.415L0.682,-0.263L0.271,-0.263L0.271,-0.172L0.84,-0.172Z" style="fill-rule:nonzero;"/>
            </g>
            <g transform="matrix(95.8893,0,0,95.8893,3247.79,412.326)">
                <path d="M0.818,-0.344C0.847,-0.335 0.872,-0.318 0.893,-0.293C0.913,-0.268 0.923,-0.235 0.923,-0.195C0.923,-0.167 0.919,-0.141 0.91,-0.118C0.901,-0.094 0.887,-0.073 0.866,-0.056C0.845,-0.039 0.817,-0.025 0.783,-0.015C0.747,-0.005 0.704,0 0.651,0L0.063,0L0.063,-0.407L0.655,-0.407C0.67,-0.407 0.684,-0.41 0.696,-0.417C0.707,-0.423 0.713,-0.435 0.713,-0.452C0.713,-0.469 0.707,-0.48 0.695,-0.486C0.683,-0.492 0.67,-0.495 0.655,-0.495L0.063,-0.495L0.203,-0.669L0.646,-0.669C0.686,-0.669 0.722,-0.665 0.755,-0.658C0.787,-0.65 0.815,-0.638 0.838,-0.623C0.861,-0.607 0.878,-0.588 0.891,-0.565C0.903,-0.542 0.909,-0.515 0.909,-0.484C0.909,-0.464 0.906,-0.446 0.901,-0.431C0.896,-0.416 0.889,-0.402 0.881,-0.391C0.872,-0.379 0.862,-0.369 0.852,-0.362C0.841,-0.354 0.829,-0.348 0.818,-0.344ZM0.271,-0.264L0.271,-0.172L0.652,-0.172C0.675,-0.172 0.691,-0.176 0.701,-0.184C0.711,-0.192 0.716,-0.204 0.716,-0.219C0.716,-0.234 0.711,-0.245 0.701,-0.253C0.691,-0.26 0.675,-0.264 0.652,-0.264L0.271,-0.264Z" style="fill-rule:nonzero;"/>
            </g>
            <g transform="matrix(95.8893,0,0,95.8893,3340.23,412.326)">
                <path d="M0.932,-0.292C0.932,-0.09 0.793,0.011 0.515,0.011C0.434,0.011 0.365,0.005 0.307,-0.008C0.249,-0.021 0.201,-0.04 0.164,-0.065C0.126,-0.09 0.098,-0.122 0.081,-0.16C0.063,-0.197 0.054,-0.241 0.054,-0.292L0.054,-0.669L0.26,-0.669L0.26,-0.292C0.26,-0.267 0.263,-0.247 0.27,-0.23C0.277,-0.213 0.289,-0.2 0.308,-0.19C0.326,-0.179 0.352,-0.172 0.385,-0.168C0.418,-0.163 0.462,-0.161 0.515,-0.161C0.555,-0.161 0.588,-0.163 0.615,-0.168C0.642,-0.173 0.663,-0.18 0.679,-0.191C0.695,-0.202 0.707,-0.215 0.714,-0.232C0.721,-0.249 0.724,-0.269 0.724,-0.292L0.724,-0.669L0.932,-0.669L0.932,-0.292Z" style="fill-rule:nonzero;"/>
            </g>
            <g transform="matrix(95.8893,0,0,95.8893,3434.78,412.326)">
                <path d="M0.818,-0.344C0.847,-0.335 0.872,-0.318 0.893,-0.293C0.913,-0.268 0.923,-0.235 0.923,-0.195C0.923,-0.167 0.919,-0.141 0.91,-0.118C0.901,-0.094 0.887,-0.073 0.866,-0.056C0.845,-0.039 0.817,-0.025 0.783,-0.015C0.747,-0.005 0.704,0 0.651,0L0.063,0L0.063,-0.407L0.655,-0.407C0.67,-0.407 0.684,-0.41 0.696,-0.417C0.707,-0.423 0.713,-0.435 0.713,-0.452C0.713,-0.469 0.707,-0.48 0.695,-0.486C0.683,-0.492 0.67,-0.495 0.655,-0.495L0.063,-0.495L0.203,-0.669L0.646,-0.669C0.686,-0.669 0.722,-0.665 0.755,-0.658C0.787,-0.65 0.815,-0.638 0.838,-0.623C0.861,-0.607 0.878,-0.588 0.891,-0.565C0.903,-0.542 0.909,-0.515 0.909,-0.484C0.909,-0.464 0.906,-0.446 0.901,-0.431C0.896,-0.416 0.889,-0.402 0.881,-0.391C0.872,-0.379 0.862,-0.369 0.852,-0.362C0.841,-0.354 0.829,-0.348 0.818,-0.344ZM0.271,-0.264L0.271,-0.172L0.652,-0.172C0.675,-0.172 0.691,-0.176 0.701,-0.184C0.711,-0.192 0.716,-0.204 0.716,-0.219C0.716,-0.234 0.711,-0.245 0.701,-0.253C0.691,-0.26 0.675,-0.264 0.652,-0.264L0.271,-0.264Z" style="fill-rule:nonzero;"/>
            </g>
            <g transform="matrix(95.8893,0,0,95.8893,3527.21,412.326)">
                <path d="M0.818,-0.344C0.847,-0.335 0.872,-0.318 0.893,-0.293C0.913,-0.268 0.923,-0.235 0.923,-0.195C0.923,-0.167 0.919,-0.141 0.91,-0.118C0.901,-0.094 0.887,-0.073 0.866,-0.056C0.845,-0.039 0.817,-0.025 0.783,-0.015C0.747,-0.005 0.704,0 0.651,0L0.063,0L0.063,-0.407L0.655,-0.407C0.67,-0.407 0.684,-0.41 0.696,-0.417C0.707,-0.423 0.713,-0.435 0.713,-0.452C0.713,-0.469 0.707,-0.48 0.695,-0.486C0.683,-0.492 0.67,-0.495 0.655,-0.495L0.063,-0.495L0.203,-0.669L0.646,-0.669C0.686,-0.669 0.722,-0.665 0.755,-0.658C0.787,-0.65 0.815,-0.638 0.838,-0.623C0.861,-0.607 0.878,-0.588 0.891,-0.565C0.903,-0.542 0.909,-0.515 0.909,-0.484C0.909,-0.464 0.906,-0.446 0.901,-0.431C0.896,-0.416 0.889,-0.402 0.881,-0.391C0.872,-0.379 0.862,-0.369 0.852,-0.362C0.841,-0.354 0.829,-0.348 0.818,-0.344ZM0.271,-0.264L0.271,-0.172L0.652,-0.172C0.675,-0.172 0.691,-0.176 0.701,-0.184C0.711,-0.192 0.716,-0.204 0.716,-0.219C0.716,-0.234 0.711,-0.245 0.701,-0.253C0.691,-0.26 0.675,-0.264 0.652,-0.264L0.271,-0.264Z" style="fill-rule:nonzero;"/>
            </g>
            <g transform="matrix(95.8893,0,0,95.8893,3619.65,412.326)">
                <path d="M0.788,-0.172L0.654,0L0.063,0L0.063,-0.669L0.27,-0.669L0.27,-0.172L0.788,-0.172Z" style="fill-rule:nonzero;"/>
            </g>
            <g transform="matrix(95.8893,0,0,95.8893,3695.79,412.326)">
                <path d="M0.84,-0.172L0.707,0L0.063,0L0.063,-0.669L0.838,-0.669L0.704,-0.495L0.271,-0.495L0.271,-0.415L0.801,-0.415L0.682,-0.263L0.271,-0.263L0.271,-0.172L0.84,-0.172Z" style="fill-rule:nonzero;"/>
            </g>
            <g transform="matrix(95.8893,0,0,95.8893,2953.99,508.215)">
                <path d="M0.346,0L0.471,-0.172L0.702,-0.172C0.723,-0.172 0.742,-0.171 0.758,-0.17C0.749,-0.182 0.738,-0.197 0.726,-0.216C0.713,-0.234 0.701,-0.251 0.69,-0.267L0.57,-0.444L0.256,0L0.011,0L0.44,-0.605C0.454,-0.624 0.472,-0.642 0.493,-0.657C0.514,-0.672 0.541,-0.68 0.574,-0.68C0.605,-0.68 0.631,-0.673 0.653,-0.659C0.674,-0.644 0.691,-0.626 0.706,-0.605L1.124,0L0.346,0Z" style="fill-rule:nonzero;"/>
            </g>
            <g transform="matrix(95.8893,0,0,95.8893,3042.3,508.215)">
                <path d="M0.894,-0.669L0.76,-0.495L0.521,-0.495L0.521,0L0.314,0L0.314,-0.495L0,-0.495L0.134,-0.669L0.894,-0.669Z" style="fill-rule:nonzero;"/>
            </g>
            <g transform="matrix(95.8893,0,0,95.8893,3114.98,508.215)">
                <path d="M0.525,-0.42C0.54,-0.394 0.553,-0.371 0.564,-0.352C0.575,-0.332 0.584,-0.314 0.593,-0.299C0.601,-0.284 0.608,-0.27 0.615,-0.257C0.621,-0.244 0.627,-0.232 0.633,-0.22C0.638,-0.232 0.644,-0.244 0.651,-0.257C0.657,-0.269 0.664,-0.283 0.673,-0.299C0.681,-0.314 0.691,-0.332 0.702,-0.351C0.713,-0.37 0.725,-0.393 0.74,-0.419L0.847,-0.609C0.859,-0.63 0.874,-0.648 0.893,-0.661C0.911,-0.674 0.934,-0.68 0.961,-0.68C0.987,-0.68 1.011,-0.673 1.032,-0.658C1.053,-0.643 1.068,-0.619 1.077,-0.588L1.246,0L1.04,0L0.977,-0.233C0.966,-0.271 0.957,-0.304 0.95,-0.333C0.943,-0.362 0.936,-0.39 0.931,-0.417C0.92,-0.394 0.907,-0.368 0.893,-0.34C0.879,-0.311 0.861,-0.275 0.838,-0.232L0.748,-0.064C0.739,-0.047 0.731,-0.034 0.722,-0.025C0.713,-0.015 0.703,-0.007 0.694,-0.002C0.685,0.003 0.675,0.007 0.664,0.009C0.653,0.01 0.642,0.011 0.629,0.011C0.616,0.011 0.605,0.01 0.594,0.009C0.583,0.007 0.573,0.003 0.564,-0.002C0.555,-0.007 0.546,-0.015 0.537,-0.025C0.528,-0.034 0.519,-0.047 0.51,-0.064L0.42,-0.233C0.408,-0.256 0.397,-0.276 0.388,-0.294C0.379,-0.312 0.37,-0.328 0.363,-0.343C0.355,-0.357 0.348,-0.37 0.343,-0.382C0.337,-0.394 0.331,-0.406 0.326,-0.417C0.321,-0.39 0.314,-0.363 0.307,-0.334C0.3,-0.305 0.291,-0.271 0.281,-0.233L0.218,0L0.015,0L0.188,-0.588C0.197,-0.619 0.213,-0.643 0.234,-0.658C0.255,-0.673 0.279,-0.68 0.305,-0.68C0.332,-0.68 0.354,-0.674 0.373,-0.661C0.391,-0.648 0.406,-0.631 0.418,-0.609L0.525,-0.42Z" style="fill-rule:nonzero;"/>
            </g>
            <g transform="matrix(95.8893,0,0,95.8893,3231.97,508.215)">
                <path d="M0.531,-0.68C0.694,-0.68 0.816,-0.652 0.898,-0.597C0.979,-0.542 1.02,-0.454 1.02,-0.335C1.02,-0.215 0.979,-0.127 0.898,-0.072C0.817,-0.017 0.694,0.011 0.531,0.011C0.367,0.011 0.245,-0.017 0.164,-0.072C0.083,-0.127 0.042,-0.215 0.042,-0.335C0.042,-0.454 0.083,-0.542 0.164,-0.597C0.245,-0.652 0.368,-0.68 0.531,-0.68ZM0.531,-0.163C0.583,-0.163 0.627,-0.165 0.663,-0.17C0.699,-0.174 0.728,-0.182 0.751,-0.195C0.773,-0.208 0.789,-0.225 0.799,-0.248C0.809,-0.27 0.814,-0.299 0.814,-0.335C0.814,-0.371 0.809,-0.4 0.799,-0.423C0.789,-0.445 0.773,-0.462 0.751,-0.475C0.728,-0.487 0.699,-0.495 0.663,-0.5C0.627,-0.504 0.583,-0.506 0.531,-0.506C0.479,-0.506 0.435,-0.504 0.399,-0.5C0.363,-0.495 0.334,-0.487 0.312,-0.475C0.289,-0.462 0.273,-0.445 0.263,-0.423C0.253,-0.4 0.248,-0.371 0.248,-0.335C0.248,-0.299 0.253,-0.27 0.263,-0.248C0.273,-0.225 0.289,-0.208 0.312,-0.195C0.334,-0.182 0.363,-0.174 0.399,-0.17C0.435,-0.165 0.479,-0.163 0.531,-0.163Z" style="fill-rule:nonzero;"/>
            </g>
            <g transform="matrix(95.8893,0,0,95.8893,3333.8,508.215)">
                <path d="M0.683,-0.402C0.765,-0.402 0.827,-0.387 0.87,-0.357C0.913,-0.326 0.934,-0.28 0.934,-0.219C0.934,-0.185 0.929,-0.154 0.918,-0.127C0.907,-0.1 0.89,-0.077 0.867,-0.058C0.844,-0.039 0.814,-0.025 0.778,-0.015C0.741,-0.005 0.698,0 0.647,0L0.024,0L0.157,-0.172L0.663,-0.172C0.688,-0.172 0.706,-0.176 0.717,-0.184C0.728,-0.191 0.734,-0.204 0.734,-0.221C0.734,-0.238 0.728,-0.251 0.717,-0.258C0.706,-0.265 0.688,-0.269 0.663,-0.269L0.299,-0.269C0.256,-0.269 0.218,-0.274 0.187,-0.283C0.156,-0.292 0.13,-0.305 0.109,-0.322C0.088,-0.339 0.073,-0.359 0.063,-0.383C0.053,-0.406 0.048,-0.432 0.048,-0.461C0.048,-0.492 0.054,-0.521 0.065,-0.547C0.076,-0.572 0.093,-0.594 0.116,-0.612C0.138,-0.63 0.168,-0.644 0.205,-0.654C0.241,-0.664 0.284,-0.669 0.335,-0.669L0.916,-0.669L0.783,-0.495L0.319,-0.495C0.295,-0.495 0.277,-0.492 0.266,-0.485C0.254,-0.478 0.248,-0.466 0.248,-0.449C0.248,-0.432 0.254,-0.42 0.266,-0.413C0.277,-0.406 0.295,-0.402 0.319,-0.402L0.683,-0.402Z" style="fill-rule:nonzero;"/>
            </g>
            <g transform="matrix(95.8893,0,0,95.8893,3426.15,508.215)">
                <path d="M0.946,-0.418C0.946,-0.381 0.939,-0.347 0.924,-0.317C0.909,-0.286 0.888,-0.26 0.86,-0.239C0.831,-0.218 0.797,-0.201 0.756,-0.189C0.715,-0.177 0.669,-0.171 0.617,-0.171L0.267,-0.171L0.267,0L0.061,0L0.061,-0.342L0.637,-0.342C0.669,-0.342 0.694,-0.349 0.712,-0.363C0.729,-0.377 0.738,-0.396 0.738,-0.419C0.738,-0.442 0.729,-0.461 0.712,-0.475C0.694,-0.488 0.669,-0.495 0.637,-0.495L0.061,-0.495L0.198,-0.669L0.618,-0.669C0.67,-0.669 0.716,-0.663 0.757,-0.651C0.798,-0.638 0.832,-0.621 0.86,-0.599C0.888,-0.577 0.909,-0.551 0.924,-0.52C0.939,-0.489 0.946,-0.455 0.946,-0.418Z" style="fill-rule:nonzero;"/>
            </g>
            <g transform="matrix(95.8893,0,0,95.8893,3520.88,508.215)">
                <path d="M0.875,0L0.669,0L0.669,-0.258L0.271,-0.258L0.271,0L0.063,0L0.063,-0.669L0.271,-0.669L0.271,-0.432L0.669,-0.432L0.669,-0.669L0.875,-0.669L0.875,0Z" style="fill-rule:nonzero;"/>
            </g>
            <g transform="matrix(95.8893,0,0,95.8893,3610.92,508.215)">
                <path d="M0.84,-0.172L0.707,0L0.063,0L0.063,-0.669L0.838,-0.669L0.704,-0.495L0.271,-0.495L0.271,-0.415L0.801,-0.415L0.682,-0.263L0.271,-0.263L0.271,-0.172L0.84,-0.172Z" style="fill-rule:nonzero;"/>
            </g>
            <g transform="matrix(95.8893,0,0,95.8893,3692.24,508.215)">
                <path d="M1.012,0L0.735,0L0.586,-0.177L0.268,-0.177L0.268,0L0.061,0L0.061,-0.342L0.643,-0.342C0.675,-0.342 0.702,-0.349 0.724,-0.362C0.746,-0.375 0.757,-0.394 0.757,-0.417C0.757,-0.443 0.747,-0.463 0.727,-0.476C0.707,-0.489 0.679,-0.495 0.643,-0.495L0.061,-0.495L0.196,-0.669L0.626,-0.669C0.664,-0.669 0.703,-0.666 0.744,-0.659C0.785,-0.652 0.822,-0.639 0.855,-0.621C0.888,-0.603 0.916,-0.579 0.938,-0.548C0.959,-0.517 0.97,-0.478 0.97,-0.43C0.97,-0.404 0.966,-0.379 0.958,-0.356C0.95,-0.333 0.939,-0.312 0.924,-0.293C0.909,-0.274 0.89,-0.259 0.869,-0.246C0.847,-0.233 0.822,-0.223 0.795,-0.218C0.806,-0.209 0.819,-0.198 0.833,-0.185C0.847,-0.172 0.866,-0.153 0.889,-0.13L1.012,0Z" style="fill-rule:nonzero;"/>
            </g>
            <g transform="matrix(95.8893,0,0,95.8893,3790.33,508.215)">
                <path d="M0.84,-0.172L0.707,0L0.063,0L0.063,-0.669L0.838,-0.669L0.704,-0.495L0.271,-0.495L0.271,-0.415L0.801,-0.415L0.682,-0.263L0.271,-0.263L0.271,-0.172L0.84,-0.172Z" style="fill-rule:nonzero;"/>
            </g>
            <g transform="matrix(95.8893,0,0,95.8893,3871.65,508.215)">
                <path d="M0.265,-0.669L0.566,-0.225L0.88,-0.669L1.124,-0.669L0.696,-0.064C0.681,-0.045 0.663,-0.027 0.642,-0.012C0.621,0.003 0.594,0.011 0.562,0.011C0.531,0.011 0.505,0.004 0.484,-0.011C0.462,-0.025 0.445,-0.043 0.43,-0.064L0.011,-0.669L0.265,-0.669Z" style="fill-rule:nonzero;"/>
            </g>
        </g>
    </g>
</svg>
