<?xml version="1.0" encoding="UTF-8" standalone="no"?>
<!DOCTYPE svg PUBLIC "-//W3C//DTD SVG 1.1//EN" "http://www.w3.org/Graphics/SVG/1.1/DTD/svg11.dtd">
<svg width="100%" height="100%" viewBox="0 0 21334 12000" version="1.1" xmlns="http://www.w3.org/2000/svg" xmlns:xlink="http://www.w3.org/1999/xlink" xml:space="preserve" xmlns:serif="http://www.serif.com/" style="fill-rule:evenodd;clip-rule:evenodd;stroke-linecap:round;stroke-miterlimit:3;">
    <g transform="matrix(5.55556,0,0,5.55556,0,0)">
        <g transform="matrix(0.963493,0,0,1.13245,1328.44,-873.341)">
            <ellipse cx="970.168" cy="1275.03" rx="479.977" ry="408.367" style="fill:rgb(98,206,135);"/>
        </g>
        <g transform="matrix(1,0,0,1,-116.464,-258.153)">
            <g transform="matrix(170,0,0,170,131.767,397.512)">
                <path d="M0.327,-0.612L0.327,-0.74L0.278,-0.74L0.278,-0.791L0.027,-0.791C0.018,-0.749 0.005,-0.704 0,-0.661L0.06,-0.661C0.056,-0.645 0.052,-0.628 0.049,-0.612L0.087,-0.612L0.087,0.01L0.138,0.01L0.138,0.06L0.266,0.06L0.266,-0.612L0.327,-0.612ZM0.267,-0.671L0.206,-0.671L0.206,0L0.098,0L0.098,-0.671L0.012,-0.671L0.036,-0.78L0.267,-0.78L0.267,-0.671Z" style="fill-rule:nonzero;"/>
            </g>
            <g transform="matrix(170,0,0,170,187.357,397.512)">
                <path d="M0.358,0.06L0.358,-0.253C0.358,-0.311 0.331,-0.357 0.283,-0.389C0.261,-0.429 0.222,-0.451 0.178,-0.46L0.178,-0.742L0.128,-0.724L0.128,-0.791C0.086,-0.776 0.043,-0.762 0,-0.748L0,0.011L0.049,0.011L0.049,0.06L0.178,0.06L0.178,0.011L0.229,0.011L0.229,0.06L0.358,0.06ZM0.298,0L0.19,0L0.19,-0.304C0.19,-0.342 0.158,-0.344 0.128,-0.344L0.118,-0.344L0.118,0L0.01,0L0.01,-0.74L0.118,-0.778L0.118,-0.454L0.149,-0.454C0.232,-0.454 0.298,-0.387 0.298,-0.304L0.298,0Z" style="fill-rule:nonzero;"/>
            </g>
            <g transform="matrix(170,0,0,170,248.217,397.512)">
                <path d="M0.384,0.031L0.333,-0.086L0.309,-0.077L0.282,-0.137C0.257,-0.124 0.225,-0.11 0.196,-0.109L0.377,-0.176C0.378,-0.186 0.378,-0.197 0.378,-0.207C0.378,-0.297 0.364,-0.337 0.292,-0.404C0.259,-0.446 0.223,-0.468 0.169,-0.468C0.044,-0.468 0,-0.345 0,-0.239C0,-0.161 0.028,-0.046 0.101,-0.006C0.136,0.04 0.18,0.07 0.239,0.07C0.285,0.07 0.342,0.049 0.384,0.031ZM0.321,-0.024C0.28,-0.006 0.235,0.009 0.19,0.009C0.058,0.009 0.01,-0.128 0.01,-0.239C0.01,-0.339 0.05,-0.458 0.169,-0.458C0.295,-0.458 0.318,-0.335 0.318,-0.235L0.13,-0.163C0.139,-0.13 0.158,-0.1 0.196,-0.1C0.224,-0.1 0.252,-0.112 0.277,-0.124L0.321,-0.024ZM0.207,-0.308C0.203,-0.327 0.194,-0.349 0.171,-0.349C0.136,-0.349 0.127,-0.303 0.123,-0.276C0.151,-0.286 0.18,-0.296 0.207,-0.308Z" style="fill-rule:nonzero;"/>
            </g>
            <g transform="matrix(170,0,0,170,354.297,397.512)">
                <path d="M0.348,0.05C0.332,0.008 0.318,-0.034 0.305,-0.076C0.297,-0.07 0.287,-0.061 0.277,-0.06L0.254,-0.125C0.245,-0.117 0.233,-0.108 0.22,-0.108C0.218,-0.108 0.216,-0.109 0.214,-0.109C0.182,-0.179 0.177,-0.271 0.177,-0.348C0.177,-0.405 0.191,-0.623 0.271,-0.623C0.283,-0.623 0.296,-0.613 0.305,-0.605L0.348,-0.732C0.329,-0.742 0.308,-0.749 0.287,-0.75C0.29,-0.761 0.293,-0.771 0.298,-0.781C0.275,-0.794 0.249,-0.802 0.223,-0.802C0.027,-0.802 0,-0.537 0,-0.391C0,-0.284 0.011,-0.134 0.083,-0.048C0.09,-0.04 0.115,-0.014 0.124,-0.011C0.159,0.039 0.208,0.069 0.27,0.069C0.297,0.069 0.324,0.062 0.348,0.05ZM0.286,-0.004C0.266,0.005 0.245,0.01 0.223,0.01C0.034,0.01 0.01,-0.251 0.01,-0.391C0.01,-0.526 0.032,-0.791 0.22,-0.791C0.243,-0.791 0.265,-0.786 0.286,-0.776L0.25,-0.672C0.242,-0.678 0.231,-0.682 0.221,-0.682C0.125,-0.682 0.118,-0.453 0.118,-0.391C0.118,-0.329 0.125,-0.099 0.221,-0.099C0.231,-0.099 0.242,-0.103 0.25,-0.109L0.286,-0.004Z" style="fill-rule:nonzero;"/>
            </g>
            <g transform="matrix(170,0,0,170,413.457,397.512)">
                <path d="M0.179,-0.526L0.179,-0.684L0.13,-0.684L0.13,-0.733L0,-0.733L0,-0.576L0.051,-0.576L0.051,-0.526L0.179,-0.526ZM0.179,0.06L0.179,-0.413L0.13,-0.413L0.13,-0.462L0,-0.462L0,0.011L0.051,0.011L0.051,0.06L0.179,0.06ZM0.119,-0.584L0.011,-0.584L0.011,-0.724L0.119,-0.724L0.119,-0.584ZM0.119,0L0.011,0L0.011,-0.452L0.119,-0.452L0.119,0Z" style="fill-rule:nonzero;"/>
            </g>
            <g transform="matrix(170,0,0,170,443.887,397.512)">
                <path d="M0.296,-0.284L0.296,-0.413L0.245,-0.413L0.245,-0.463L0.237,-0.463L0.237,-0.608L0.188,-0.592L0.188,-0.659L0.058,-0.614L0.058,-0.463L0.044,-0.463L0,-0.334L0.058,-0.334L0.058,0.011L0.108,0.011L0.108,0.06L0.237,0.06L0.237,-0.284L0.296,-0.284ZM0.236,-0.344L0.177,-0.344L0.177,0L0.069,0L0.069,-0.344L0.015,-0.344L0.051,-0.454L0.069,-0.454L0.069,-0.608L0.177,-0.646L0.177,-0.454L0.236,-0.454L0.236,-0.344Z" style="fill-rule:nonzero;"/>
            </g>
            <g transform="matrix(170,0,0,170,494.207,397.512)">
                <path d="M0.179,-0.526L0.179,-0.684L0.13,-0.684L0.13,-0.733L0,-0.733L0,-0.576L0.051,-0.576L0.051,-0.526L0.179,-0.526ZM0.179,0.06L0.179,-0.413L0.13,-0.413L0.13,-0.462L0,-0.462L0,0.011L0.051,0.011L0.051,0.06L0.179,0.06ZM0.119,-0.584L0.011,-0.584L0.011,-0.724L0.119,-0.724L0.119,-0.584ZM0.119,0L0.011,0L0.011,-0.452L0.119,-0.452L0.119,0Z" style="fill-rule:nonzero;"/>
            </g>
            <g transform="matrix(170,0,0,170,524.637,397.512)">
                <path d="M0.384,0.031L0.333,-0.086L0.309,-0.077L0.282,-0.137C0.257,-0.124 0.225,-0.11 0.196,-0.109L0.377,-0.176C0.378,-0.186 0.378,-0.197 0.378,-0.207C0.378,-0.297 0.364,-0.337 0.292,-0.404C0.259,-0.446 0.223,-0.468 0.169,-0.468C0.044,-0.468 0,-0.345 0,-0.239C0,-0.161 0.028,-0.046 0.101,-0.006C0.136,0.04 0.18,0.07 0.239,0.07C0.285,0.07 0.342,0.049 0.384,0.031ZM0.321,-0.024C0.28,-0.006 0.235,0.009 0.19,0.009C0.058,0.009 0.01,-0.128 0.01,-0.239C0.01,-0.339 0.05,-0.458 0.169,-0.458C0.295,-0.458 0.318,-0.335 0.318,-0.235L0.13,-0.163C0.139,-0.13 0.158,-0.1 0.196,-0.1C0.224,-0.1 0.252,-0.112 0.277,-0.124L0.321,-0.024ZM0.207,-0.308C0.203,-0.327 0.194,-0.349 0.171,-0.349C0.136,-0.349 0.127,-0.303 0.123,-0.276C0.151,-0.286 0.18,-0.296 0.207,-0.308Z" style="fill-rule:nonzero;"/>
            </g>
            <g transform="matrix(170,0,0,170,589.917,397.512)">
                <path d="M0.262,-0.437L0.224,-0.43C0.22,-0.449 0.216,-0.468 0.213,-0.487C0.103,-0.464 0.015,-0.448 0.015,-0.313C0.015,-0.233 0.09,-0.164 0.09,-0.138C0.09,-0.107 0.023,-0.101 0,-0.096L0.026,0.03C0.039,0.027 0.051,0.025 0.064,0.023L0.076,0.079C0.174,0.061 0.27,0.046 0.27,-0.077C0.27,-0.164 0.193,-0.236 0.193,-0.265C0.193,-0.301 0.262,-0.307 0.287,-0.311L0.262,-0.437ZM0.226,-0.37C0.197,-0.364 0.133,-0.355 0.133,-0.315C0.133,-0.271 0.21,-0.211 0.21,-0.127C0.21,-0.017 0.123,0.002 0.034,0.018L0.012,-0.088C0.037,-0.092 0.1,-0.1 0.1,-0.135C0.1,-0.167 0.024,-0.233 0.024,-0.313C0.024,-0.435 0.103,-0.455 0.204,-0.476L0.226,-0.37Z" style="fill-rule:nonzero;"/>
            </g>
            <g transform="matrix(170,0,0,170,679.507,397.512)">
                <path d="M0.221,0.065C0.354,0.065 0.393,-0.066 0.393,-0.176C0.393,-0.256 0.376,-0.347 0.302,-0.392C0.272,-0.44 0.227,-0.463 0.171,-0.463C0.039,-0.463 0,-0.334 0,-0.224C0,-0.143 0.017,-0.052 0.092,-0.007C0.121,0.041 0.165,0.065 0.221,0.065ZM0.171,-0.454C0.298,-0.454 0.333,-0.329 0.333,-0.224C0.333,-0.121 0.295,0.005 0.171,0.005C0.045,0.005 0.01,-0.124 0.01,-0.228C0.01,-0.331 0.047,-0.454 0.171,-0.454ZM0.224,-0.226C0.224,-0.261 0.222,-0.344 0.171,-0.344C0.12,-0.344 0.118,-0.261 0.118,-0.226C0.118,-0.192 0.12,-0.104 0.171,-0.104C0.222,-0.104 0.224,-0.192 0.224,-0.226ZM0.21,-0.282C0.213,-0.264 0.215,-0.246 0.215,-0.229C0.215,-0.202 0.21,-0.13 0.183,-0.118C0.18,-0.138 0.179,-0.158 0.179,-0.178C0.179,-0.205 0.18,-0.269 0.21,-0.282Z" style="fill-rule:nonzero;"/>
            </g>
            <g transform="matrix(170,0,0,170,746.317,397.512)">
                <path d="M0.265,-0.612L0.265,-0.74L0.216,-0.74L0.216,-0.791L0.177,-0.791C0.101,-0.791 0.039,-0.729 0.039,-0.653L0.039,-0.463L0,-0.463L0,-0.334L0.039,-0.334L0.039,0.224L0.089,0.208L0.089,0.275L0.217,0.23L0.217,-0.284L0.258,-0.284L0.258,-0.413L0.217,-0.413L0.217,-0.594C0.217,-0.607 0.231,-0.612 0.265,-0.612ZM0.205,-0.672L0.191,-0.672C0.175,-0.672 0.157,-0.67 0.157,-0.65L0.157,-0.454L0.198,-0.454L0.198,-0.344L0.157,-0.344L0.157,0.173L0.048,0.21L0.048,-0.344L0.01,-0.344L0.01,-0.454L0.048,-0.454L0.048,-0.653C0.048,-0.724 0.106,-0.781 0.177,-0.781L0.205,-0.781L0.205,-0.672Z" style="fill-rule:nonzero;"/>
            </g>
            <g transform="matrix(170,0,0,170,832.167,397.512)">
                <path d="M0.42,0.059L0.42,-0.742L0.37,-0.742L0.37,-0.791L0.241,-0.791L0.241,-0.458L0.087,-0.742L0.064,-0.742L0.037,-0.791L0,-0.791L0,0.01L0.049,0.01L0.049,0.059L0.177,0.059L0.177,-0.268L0.328,0.01L0.351,0.01L0.379,0.059L0.42,0.059ZM0.36,0L0.336,0L0.118,-0.397L0.118,0L0.009,0L0.009,-0.781L0.031,-0.781L0.252,-0.377L0.252,-0.781L0.36,-0.781L0.36,0Z" style="fill-rule:nonzero;"/>
            </g>
            <g transform="matrix(170,0,0,170,903.567,397.512)">
                <path d="M0.384,0.031L0.333,-0.086L0.309,-0.077L0.282,-0.137C0.257,-0.124 0.225,-0.11 0.196,-0.109L0.377,-0.176C0.378,-0.186 0.378,-0.197 0.378,-0.207C0.378,-0.297 0.364,-0.337 0.292,-0.404C0.259,-0.446 0.223,-0.468 0.169,-0.468C0.044,-0.468 0,-0.345 0,-0.239C0,-0.161 0.028,-0.046 0.101,-0.006C0.136,0.04 0.18,0.07 0.239,0.07C0.285,0.07 0.342,0.049 0.384,0.031ZM0.321,-0.024C0.28,-0.006 0.235,0.009 0.19,0.009C0.058,0.009 0.01,-0.128 0.01,-0.239C0.01,-0.339 0.05,-0.458 0.169,-0.458C0.295,-0.458 0.318,-0.335 0.318,-0.235L0.13,-0.163C0.139,-0.13 0.158,-0.1 0.196,-0.1C0.224,-0.1 0.252,-0.112 0.277,-0.124L0.321,-0.024ZM0.207,-0.308C0.203,-0.327 0.194,-0.349 0.171,-0.349C0.136,-0.349 0.127,-0.303 0.123,-0.276C0.151,-0.286 0.18,-0.296 0.207,-0.308Z" style="fill-rule:nonzero;"/>
            </g>
            <g transform="matrix(170,0,0,170,961.877,397.512)">
                <path d="M0.411,-0.413L0.345,-0.413L0.362,-0.463L0.227,-0.463L0.197,-0.374L0.185,-0.413L0.152,-0.413L0.136,-0.463L0,-0.463L0.155,0.011L0.189,0.011L0.206,0.06L0.256,0.06L0.411,-0.413ZM0.348,-0.454L0.2,0L0.162,0L0.014,-0.454L0.128,-0.454L0.18,-0.292L0.234,-0.454L0.348,-0.454Z" style="fill-rule:nonzero;"/>
            </g>
            <g transform="matrix(170,0,0,170,1029.54,397.512)">
                <path d="M0.384,0.031L0.333,-0.086L0.309,-0.077L0.282,-0.137C0.257,-0.124 0.225,-0.11 0.196,-0.109L0.377,-0.176C0.378,-0.186 0.378,-0.197 0.378,-0.207C0.378,-0.297 0.364,-0.337 0.292,-0.404C0.259,-0.446 0.223,-0.468 0.169,-0.468C0.044,-0.468 0,-0.345 0,-0.239C0,-0.161 0.028,-0.046 0.101,-0.006C0.136,0.04 0.18,0.07 0.239,0.07C0.285,0.07 0.342,0.049 0.384,0.031ZM0.321,-0.024C0.28,-0.006 0.235,0.009 0.19,0.009C0.058,0.009 0.01,-0.128 0.01,-0.239C0.01,-0.339 0.05,-0.458 0.169,-0.458C0.295,-0.458 0.318,-0.335 0.318,-0.235L0.13,-0.163C0.139,-0.13 0.158,-0.1 0.196,-0.1C0.224,-0.1 0.252,-0.112 0.277,-0.124L0.321,-0.024ZM0.207,-0.308C0.203,-0.327 0.194,-0.349 0.171,-0.349C0.136,-0.349 0.127,-0.303 0.123,-0.276C0.151,-0.286 0.18,-0.296 0.207,-0.308Z" style="fill-rule:nonzero;"/>
            </g>
            <g transform="matrix(170,0,0,170,1094.82,397.512)">
                <path d="M0.396,0.06L0.396,-0.401L0.347,-0.401L0.347,-0.45L0.239,-0.45C0.22,-0.458 0.2,-0.463 0.179,-0.463C0.055,-0.463 0,-0.331 0,-0.225C0,-0.151 0.027,-0.056 0.094,-0.016C0.125,0.032 0.169,0.059 0.227,0.059C0.241,0.059 0.255,0.057 0.268,0.054L0.268,0.06L0.396,0.06ZM0.338,0L0.228,0L0.228,-0.008C0.212,-0.004 0.196,-0.001 0.179,-0.001C0.058,-0.001 0.01,-0.124 0.01,-0.227C0.01,-0.327 0.059,-0.453 0.176,-0.453C0.197,-0.453 0.217,-0.448 0.236,-0.44L0.338,-0.44L0.338,0ZM0.228,-0.144L0.228,-0.306C0.218,-0.326 0.203,-0.344 0.179,-0.344C0.131,-0.344 0.119,-0.26 0.119,-0.224C0.119,-0.188 0.129,-0.109 0.177,-0.109C0.201,-0.109 0.217,-0.124 0.228,-0.144ZM0.219,-0.146C0.212,-0.132 0.201,-0.121 0.185,-0.119C0.18,-0.136 0.178,-0.154 0.178,-0.172C0.178,-0.203 0.186,-0.269 0.219,-0.282L0.219,-0.146Z" style="fill-rule:nonzero;"/>
            </g>
            <g transform="matrix(170,0,0,170,1162.14,397.512)">
                <path d="M0.358,0.06L0.358,-0.253C0.358,-0.311 0.331,-0.357 0.283,-0.389C0.261,-0.429 0.222,-0.451 0.178,-0.46L0.178,-0.742L0.128,-0.724L0.128,-0.791C0.086,-0.776 0.043,-0.762 0,-0.748L0,0.011L0.049,0.011L0.049,0.06L0.178,0.06L0.178,0.011L0.229,0.011L0.229,0.06L0.358,0.06ZM0.298,0L0.19,0L0.19,-0.304C0.19,-0.342 0.158,-0.344 0.128,-0.344L0.118,-0.344L0.118,0L0.01,0L0.01,-0.74L0.118,-0.778L0.118,-0.454L0.149,-0.454C0.232,-0.454 0.298,-0.387 0.298,-0.304L0.298,0Z" style="fill-rule:nonzero;"/>
            </g>
        </g>
        <g transform="matrix(1.08344,0,0,1.18387,-502.821,-288.546)">
            <g transform="matrix(253.03,0,0,253.03,2158.3,811.913)">
                <path d="M0.408,0.019L0.408,-0.382L0.359,-0.382L0.359,-0.431L0.182,-0.431C0.185,-0.472 0.193,-0.628 0.258,-0.628C0.28,-0.628 0.301,-0.621 0.32,-0.611C0.333,-0.652 0.347,-0.693 0.362,-0.733C0.342,-0.742 0.322,-0.749 0.3,-0.752L0.311,-0.784C0.28,-0.798 0.245,-0.806 0.211,-0.806C0.015,-0.806 0,-0.532 0,-0.391C0,-0.285 0.007,-0.069 0.112,-0.005C0.146,0.046 0.195,0.07 0.256,0.07C0.32,0.07 0.354,0.049 0.408,0.019ZM0.348,-0.037C0.305,-0.007 0.256,0.01 0.203,0.01C0.016,0.01 0.01,-0.256 0.01,-0.391C0.01,-0.529 0.02,-0.796 0.213,-0.796C0.242,-0.796 0.272,-0.79 0.299,-0.779L0.264,-0.674C0.247,-0.683 0.228,-0.688 0.208,-0.688C0.121,-0.688 0.119,-0.466 0.119,-0.399C0.119,-0.329 0.122,-0.203 0.148,-0.146C0.161,-0.118 0.179,-0.1 0.211,-0.1C0.221,-0.1 0.23,-0.101 0.24,-0.103L0.24,-0.313L0.182,-0.313L0.182,-0.421L0.348,-0.421L0.348,-0.037ZM0.231,-0.11L0.203,-0.109C0.183,-0.168 0.18,-0.242 0.18,-0.304L0.221,-0.304L0.221,-0.253L0.231,-0.253L0.231,-0.11Z" style="fill-rule:nonzero;"/>
            </g>
            <g transform="matrix(253.03,0,0,253.03,2261.53,811.913)">
                <path d="M0.354,-0.348C0.338,-0.366 0.32,-0.382 0.299,-0.395L0.304,-0.397C0.274,-0.434 0.233,-0.462 0.184,-0.462C0.164,-0.462 0.145,-0.457 0.128,-0.448L0.128,-0.462L0,-0.462L0,0.011L0.049,0.011L0.049,0.06L0.179,0.06L0.179,-0.244C0.179,-0.27 0.193,-0.284 0.219,-0.284C0.233,-0.284 0.245,-0.277 0.254,-0.266L0.354,-0.348ZM0.289,-0.398L0.205,-0.329C0.195,-0.339 0.183,-0.344 0.169,-0.344C0.14,-0.344 0.119,-0.323 0.119,-0.294L0.119,0L0.01,0L0.01,-0.452L0.119,-0.452L0.119,-0.43C0.14,-0.442 0.163,-0.451 0.187,-0.451C0.229,-0.451 0.263,-0.429 0.289,-0.398Z" style="fill-rule:nonzero;"/>
            </g>
            <g transform="matrix(253.03,0,0,253.03,2351.11,811.913)">
                <path d="M0.384,0.031L0.333,-0.086L0.309,-0.077L0.282,-0.137C0.257,-0.124 0.225,-0.11 0.196,-0.109L0.377,-0.176C0.378,-0.186 0.378,-0.197 0.378,-0.207C0.378,-0.297 0.364,-0.337 0.292,-0.404C0.259,-0.446 0.223,-0.468 0.169,-0.468C0.044,-0.468 0,-0.345 0,-0.239C0,-0.161 0.028,-0.046 0.101,-0.006C0.136,0.04 0.18,0.07 0.239,0.07C0.285,0.07 0.342,0.049 0.384,0.031ZM0.321,-0.024C0.28,-0.006 0.235,0.009 0.19,0.009C0.058,0.009 0.01,-0.128 0.01,-0.239C0.01,-0.339 0.05,-0.458 0.169,-0.458C0.295,-0.458 0.318,-0.335 0.318,-0.235L0.13,-0.163C0.139,-0.13 0.158,-0.1 0.196,-0.1C0.224,-0.1 0.252,-0.112 0.277,-0.124L0.321,-0.024ZM0.207,-0.308C0.203,-0.327 0.194,-0.349 0.171,-0.349C0.136,-0.349 0.127,-0.303 0.123,-0.276C0.151,-0.286 0.18,-0.296 0.207,-0.308Z" style="fill-rule:nonzero;"/>
            </g>
            <g transform="matrix(253.03,0,0,253.03,2448.27,811.913)">
                <path d="M0.384,0.031L0.333,-0.086L0.309,-0.077L0.282,-0.137C0.257,-0.124 0.225,-0.11 0.196,-0.109L0.377,-0.176C0.378,-0.186 0.378,-0.197 0.378,-0.207C0.378,-0.297 0.364,-0.337 0.292,-0.404C0.259,-0.446 0.223,-0.468 0.169,-0.468C0.044,-0.468 0,-0.345 0,-0.239C0,-0.161 0.028,-0.046 0.101,-0.006C0.136,0.04 0.18,0.07 0.239,0.07C0.285,0.07 0.342,0.049 0.384,0.031ZM0.321,-0.024C0.28,-0.006 0.235,0.009 0.19,0.009C0.058,0.009 0.01,-0.128 0.01,-0.239C0.01,-0.339 0.05,-0.458 0.169,-0.458C0.295,-0.458 0.318,-0.335 0.318,-0.235L0.13,-0.163C0.139,-0.13 0.158,-0.1 0.196,-0.1C0.224,-0.1 0.252,-0.112 0.277,-0.124L0.321,-0.024ZM0.207,-0.308C0.203,-0.327 0.194,-0.349 0.171,-0.349C0.136,-0.349 0.127,-0.303 0.123,-0.276C0.151,-0.286 0.18,-0.296 0.207,-0.308Z" style="fill-rule:nonzero;"/>
            </g>
            <g transform="matrix(253.03,0,0,253.03,2545.43,811.913)">
                <path d="M0.35,0.06L0.35,-0.253C0.35,-0.311 0.328,-0.36 0.276,-0.389C0.248,-0.441 0.2,-0.463 0.142,-0.463L0,-0.463L0,0.011L0.049,0.011L0.049,0.06L0.178,0.06L0.178,0.011L0.222,0.011L0.222,0.06L0.35,0.06ZM0.29,0L0.182,0L0.182,-0.304C0.182,-0.342 0.148,-0.344 0.118,-0.344L0.118,0L0.01,0L0.01,-0.454L0.142,-0.454C0.225,-0.454 0.29,-0.386 0.29,-0.304L0.29,0Z" style="fill-rule:nonzero;"/>
            </g>
            <g transform="matrix(253.03,0,0,253.03,2626.15,811.913)">
                <path d="M0.411,-0.413L0.345,-0.413L0.362,-0.463L0.227,-0.463L0.197,-0.374L0.185,-0.413L0.152,-0.413L0.136,-0.463L0,-0.463L0.155,0.011L0.189,0.011L0.206,0.06L0.256,0.06L0.411,-0.413ZM0.348,-0.454L0.2,0L0.162,0L0.014,-0.454L0.128,-0.454L0.18,-0.292L0.234,-0.454L0.348,-0.454Z" style="fill-rule:nonzero;"/>
            </g>
            <g transform="matrix(253.03,0,0,253.03,2730.15,811.913)">
                <path d="M0.179,-0.526L0.179,-0.684L0.13,-0.684L0.13,-0.733L0,-0.733L0,-0.576L0.051,-0.576L0.051,-0.526L0.179,-0.526ZM0.179,0.06L0.179,-0.413L0.13,-0.413L0.13,-0.462L0,-0.462L0,0.011L0.051,0.011L0.051,0.06L0.179,0.06ZM0.119,-0.584L0.011,-0.584L0.011,-0.724L0.119,-0.724L0.119,-0.584ZM0.119,0L0.011,0L0.011,-0.452L0.119,-0.452L0.119,0Z" style="fill-rule:nonzero;"/>
            </g>
            <g transform="matrix(253.03,0,0,253.03,2775.44,811.913)">
                <path d="M0.179,0.06L0.179,-0.74L0.13,-0.724L0.13,-0.791L0,-0.746L0,0.011L0.051,0.011L0.051,0.06L0.179,0.06ZM0.119,0L0.011,0L0.011,-0.74L0.119,-0.776L0.119,0Z" style="fill-rule:nonzero;"/>
            </g>
            <g transform="matrix(253.03,0,0,253.03,2820.73,811.913)">
                <path d="M0.179,0.06L0.179,-0.74L0.13,-0.724L0.13,-0.791L0,-0.746L0,0.011L0.051,0.011L0.051,0.06L0.179,0.06ZM0.119,0L0.011,0L0.011,-0.74L0.119,-0.776L0.119,0Z" style="fill-rule:nonzero;"/>
            </g>
            <g transform="matrix(253.03,0,0,253.03,2866.02,811.913)">
                <path d="M0.384,0.031L0.333,-0.086L0.309,-0.077L0.282,-0.137C0.257,-0.124 0.225,-0.11 0.196,-0.109L0.377,-0.176C0.378,-0.186 0.378,-0.197 0.378,-0.207C0.378,-0.297 0.364,-0.337 0.292,-0.404C0.259,-0.446 0.223,-0.468 0.169,-0.468C0.044,-0.468 0,-0.345 0,-0.239C0,-0.161 0.028,-0.046 0.101,-0.006C0.136,0.04 0.18,0.07 0.239,0.07C0.285,0.07 0.342,0.049 0.384,0.031ZM0.321,-0.024C0.28,-0.006 0.235,0.009 0.19,0.009C0.058,0.009 0.01,-0.128 0.01,-0.239C0.01,-0.339 0.05,-0.458 0.169,-0.458C0.295,-0.458 0.318,-0.335 0.318,-0.235L0.13,-0.163C0.139,-0.13 0.158,-0.1 0.196,-0.1C0.224,-0.1 0.252,-0.112 0.277,-0.124L0.321,-0.024ZM0.207,-0.308C0.203,-0.327 0.194,-0.349 0.171,-0.349C0.136,-0.349 0.127,-0.303 0.123,-0.276C0.151,-0.286 0.18,-0.296 0.207,-0.308Z" style="fill-rule:nonzero;"/>
            </g>
        </g>
        <g transform="matrix(1.36045,0,0,1.59902,-285.869,-1099.38)">
            <ellipse cx="970.168" cy="1275.03" rx="479.977" ry="408.367" style="fill:rgb(208,150,255);"/>
        </g>
        <g transform="matrix(0.0936378,0,0,0.110058,3368.81,113.537)">
            <ellipse cx="970.168" cy="1275.03" rx="479.977" ry="408.367"/>
        </g>
        <g transform="matrix(1.04363,0,0,0.610764,649.379,1052.97)">
            <ellipse cx="970.168" cy="1275.03" rx="479.977" ry="408.367" style="fill:rgb(0,255,248);"/>
        </g>
        <g transform="matrix(1.35109,0,0,1.46843,1696.31,-370.045)">
            <ellipse cx="970.168" cy="1275.03" rx="479.977" ry="408.367" style="fill:rgb(255,219,0);"/>
        </g>
        <g transform="matrix(0.981791,0,0,1.17043,-518.715,-184.43)">
            <g transform="matrix(349.107,0,0,349.107,2989.13,1547.35)">
                <path d="M0.575,-0.74L0.516,-0.74L0.524,-0.791L0.395,-0.791L0.371,-0.649L0.354,-0.74L0.313,-0.74L0.305,-0.791L0.219,-0.791L0.195,-0.649L0.18,-0.74L0.139,-0.74L0.131,-0.791L0,-0.791L0.137,0.01L0.179,0.01L0.187,0.059L0.263,0.059L0.291,-0.109L0.312,0.01L0.353,0.01L0.361,0.059L0.437,0.059L0.575,-0.74ZM0.513,-0.78L0.379,0L0.32,0L0.262,-0.333L0.204,0L0.146,0L0.012,-0.78L0.121,-0.78L0.176,-0.464L0.228,-0.78L0.296,-0.78L0.348,-0.463L0.403,-0.78L0.513,-0.78Z" style="fill-rule:nonzero;"/>
            </g>
            <g transform="matrix(349.107,0,0,349.107,3172.06,1547.35)">
                <path d="M0.396,0.06L0.396,-0.401L0.347,-0.401L0.347,-0.45L0.239,-0.45C0.22,-0.458 0.2,-0.463 0.179,-0.463C0.055,-0.463 0,-0.331 0,-0.225C0,-0.151 0.027,-0.056 0.094,-0.016C0.125,0.032 0.169,0.059 0.227,0.059C0.241,0.059 0.255,0.057 0.268,0.054L0.268,0.06L0.396,0.06ZM0.338,0L0.228,0L0.228,-0.008C0.212,-0.004 0.196,-0.001 0.179,-0.001C0.058,-0.001 0.01,-0.124 0.01,-0.227C0.01,-0.327 0.059,-0.453 0.176,-0.453C0.197,-0.453 0.217,-0.448 0.236,-0.44L0.338,-0.44L0.338,0ZM0.228,-0.144L0.228,-0.306C0.218,-0.326 0.203,-0.344 0.179,-0.344C0.131,-0.344 0.119,-0.26 0.119,-0.224C0.119,-0.188 0.129,-0.109 0.177,-0.109C0.201,-0.109 0.217,-0.124 0.228,-0.144ZM0.219,-0.146C0.212,-0.132 0.201,-0.121 0.185,-0.119C0.18,-0.136 0.178,-0.154 0.178,-0.172C0.178,-0.203 0.186,-0.269 0.219,-0.282L0.219,-0.146Z" style="fill-rule:nonzero;"/>
            </g>
            <g transform="matrix(349.107,0,0,349.107,3310.31,1547.35)">
                <path d="M0.262,-0.437L0.224,-0.43C0.22,-0.449 0.216,-0.468 0.213,-0.487C0.103,-0.464 0.015,-0.448 0.015,-0.313C0.015,-0.233 0.09,-0.164 0.09,-0.138C0.09,-0.107 0.023,-0.101 0,-0.096L0.026,0.03C0.039,0.027 0.051,0.025 0.064,0.023L0.076,0.079C0.174,0.061 0.27,0.046 0.27,-0.077C0.27,-0.164 0.193,-0.236 0.193,-0.265C0.193,-0.301 0.262,-0.307 0.287,-0.311L0.262,-0.437ZM0.226,-0.37C0.197,-0.364 0.133,-0.355 0.133,-0.315C0.133,-0.271 0.21,-0.211 0.21,-0.127C0.21,-0.017 0.123,0.002 0.034,0.018L0.012,-0.088C0.037,-0.092 0.1,-0.1 0.1,-0.135C0.1,-0.167 0.024,-0.233 0.024,-0.313C0.024,-0.435 0.103,-0.455 0.204,-0.476L0.226,-0.37Z" style="fill-rule:nonzero;"/>
            </g>
            <g transform="matrix(349.107,0,0,349.107,3410.5,1547.35)">
                <path d="M0.358,0.06L0.358,-0.253C0.358,-0.311 0.331,-0.357 0.283,-0.389C0.261,-0.429 0.222,-0.451 0.178,-0.46L0.178,-0.742L0.128,-0.724L0.128,-0.791C0.086,-0.776 0.043,-0.762 0,-0.748L0,0.011L0.049,0.011L0.049,0.06L0.178,0.06L0.178,0.011L0.229,0.011L0.229,0.06L0.358,0.06ZM0.298,0L0.19,0L0.19,-0.304C0.19,-0.342 0.158,-0.344 0.128,-0.344L0.118,-0.344L0.118,0L0.01,0L0.01,-0.74L0.118,-0.778L0.118,-0.454L0.149,-0.454C0.232,-0.454 0.298,-0.387 0.298,-0.304L0.298,0Z" style="fill-rule:nonzero;"/>
            </g>
            <g transform="matrix(349.107,0,0,349.107,3535.48,1547.35)">
                <path d="M0.179,-0.526L0.179,-0.684L0.13,-0.684L0.13,-0.733L0,-0.733L0,-0.576L0.051,-0.576L0.051,-0.526L0.179,-0.526ZM0.179,0.06L0.179,-0.413L0.13,-0.413L0.13,-0.462L0,-0.462L0,0.011L0.051,0.011L0.051,0.06L0.179,0.06ZM0.119,-0.584L0.011,-0.584L0.011,-0.724L0.119,-0.724L0.119,-0.584ZM0.119,0L0.011,0L0.011,-0.452L0.119,-0.452L0.119,0Z" style="fill-rule:nonzero;"/>
            </g>
            <g transform="matrix(349.107,0,0,349.107,3597.97,1547.35)">
                <path d="M0.35,0.06L0.35,-0.253C0.35,-0.311 0.328,-0.36 0.276,-0.389C0.248,-0.441 0.2,-0.463 0.142,-0.463L0,-0.463L0,0.011L0.049,0.011L0.049,0.06L0.178,0.06L0.178,0.011L0.222,0.011L0.222,0.06L0.35,0.06ZM0.29,0L0.182,0L0.182,-0.304C0.182,-0.342 0.148,-0.344 0.118,-0.344L0.118,0L0.01,0L0.01,-0.454L0.142,-0.454C0.225,-0.454 0.29,-0.386 0.29,-0.304L0.29,0Z" style="fill-rule:nonzero;"/>
            </g>
            <g transform="matrix(349.107,0,0,349.107,3720.16,1547.35)">
                <path d="M0.403,-0.365L0.349,-0.41L0.353,-0.415L0.256,-0.499L0.217,-0.455C0.202,-0.46 0.187,-0.462 0.171,-0.462C0.114,-0.462 0.069,-0.437 0.039,-0.388C0.033,-0.385 0.026,-0.361 0.024,-0.356C0.009,-0.313 0.002,-0.27 0.002,-0.224C0.002,-0.148 0.02,-0.058 0.086,-0.011L0.105,0.047C0.112,0.041 0.119,0.036 0.127,0.031L0.133,0.035L0.155,0.097C0.171,0.083 0.192,0.066 0.214,0.065C0.214,0.095 0.199,0.121 0.166,0.121C0.133,0.121 0.096,0.091 0.073,0.07L-0.017,0.162C0.001,0.178 0.019,0.193 0.039,0.206L0.034,0.211C0.084,0.261 0.146,0.3 0.219,0.3C0.322,0.3 0.392,0.213 0.392,0.114C0.392,0.069 0.377,0.026 0.347,-0.008C0.379,-0.057 0.389,-0.118 0.389,-0.176C0.389,-0.224 0.382,-0.274 0.361,-0.318L0.403,-0.365ZM0.339,-0.414L0.3,-0.37C0.321,-0.325 0.329,-0.275 0.329,-0.226C0.329,-0.168 0.318,-0.107 0.285,-0.058C0.317,-0.022 0.332,0.021 0.332,0.069C0.332,0.159 0.261,0.24 0.169,0.24C0.103,0.24 0.045,0.205 -0.002,0.161L0.073,0.084C0.098,0.107 0.131,0.131 0.166,0.131C0.2,0.131 0.224,0.1 0.224,0.067C0.224,0.038 0.21,0.005 0.176,0.005C0.152,0.005 0.128,0.017 0.109,0.03C0.096,-0.016 0.101,-0.01 0.069,-0.041C0.026,-0.082 0.011,-0.17 0.011,-0.227C0.011,-0.329 0.048,-0.452 0.171,-0.452C0.188,-0.452 0.205,-0.45 0.221,-0.444L0.257,-0.485L0.339,-0.414ZM0.171,-0.108C0.218,-0.108 0.219,-0.199 0.219,-0.23C0.219,-0.261 0.218,-0.343 0.171,-0.343C0.122,-0.343 0.12,-0.26 0.12,-0.227C0.12,-0.195 0.127,-0.108 0.171,-0.108ZM0.205,-0.28C0.209,-0.262 0.21,-0.243 0.21,-0.224C0.21,-0.196 0.208,-0.145 0.185,-0.125C0.182,-0.144 0.181,-0.163 0.181,-0.182C0.181,-0.208 0.182,-0.263 0.205,-0.28Z" style="fill-rule:nonzero;"/>
            </g>
            <g transform="matrix(349.107,0,0,349.107,3860.85,1547.35)">
                <path d="M0.296,-0.284L0.296,-0.413L0.245,-0.413L0.245,-0.463L0.237,-0.463L0.237,-0.608L0.188,-0.592L0.188,-0.659L0.058,-0.614L0.058,-0.463L0.044,-0.463L0,-0.334L0.058,-0.334L0.058,0.011L0.108,0.011L0.108,0.06L0.237,0.06L0.237,-0.284L0.296,-0.284ZM0.236,-0.344L0.177,-0.344L0.177,0L0.069,0L0.069,-0.344L0.015,-0.344L0.051,-0.454L0.069,-0.454L0.069,-0.608L0.177,-0.646L0.177,-0.454L0.236,-0.454L0.236,-0.344Z" style="fill-rule:nonzero;"/>
            </g>
            <g transform="matrix(349.107,0,0,349.107,3964.18,1547.35)">
                <path d="M0.221,0.065C0.354,0.065 0.393,-0.066 0.393,-0.176C0.393,-0.256 0.376,-0.347 0.302,-0.392C0.272,-0.44 0.227,-0.463 0.171,-0.463C0.039,-0.463 0,-0.334 0,-0.224C0,-0.143 0.017,-0.052 0.092,-0.007C0.121,0.041 0.165,0.065 0.221,0.065ZM0.171,-0.454C0.298,-0.454 0.333,-0.329 0.333,-0.224C0.333,-0.121 0.295,0.005 0.171,0.005C0.045,0.005 0.01,-0.124 0.01,-0.228C0.01,-0.331 0.047,-0.454 0.171,-0.454ZM0.224,-0.226C0.224,-0.261 0.222,-0.344 0.171,-0.344C0.12,-0.344 0.118,-0.261 0.118,-0.226C0.118,-0.192 0.12,-0.104 0.171,-0.104C0.222,-0.104 0.224,-0.192 0.224,-0.226ZM0.21,-0.282C0.213,-0.264 0.215,-0.246 0.215,-0.229C0.215,-0.202 0.21,-0.13 0.183,-0.118C0.18,-0.138 0.179,-0.158 0.179,-0.178C0.179,-0.205 0.18,-0.269 0.21,-0.282Z" style="fill-rule:nonzero;"/>
            </g>
            <g transform="matrix(349.107,0,0,349.107,4101.38,1547.35)">
                <path d="M0.35,0.06L0.35,-0.253C0.35,-0.311 0.328,-0.36 0.276,-0.389C0.248,-0.441 0.2,-0.463 0.142,-0.463L0,-0.463L0,0.011L0.049,0.011L0.049,0.06L0.178,0.06L0.178,0.011L0.222,0.011L0.222,0.06L0.35,0.06ZM0.29,0L0.182,0L0.182,-0.304C0.182,-0.342 0.148,-0.344 0.118,-0.344L0.118,0L0.01,0L0.01,-0.454L0.142,-0.454C0.225,-0.454 0.29,-0.386 0.29,-0.304L0.29,0Z" style="fill-rule:nonzero;"/>
            </g>
        </g>
        <g transform="matrix(1.24305,0,0,1.19605,-1368.82,-510.434)">
            <g transform="matrix(214.165,0,0,214.165,2078.29,2033.02)">
                <path d="M0.348,0.05C0.332,0.008 0.318,-0.034 0.305,-0.076C0.297,-0.07 0.287,-0.061 0.277,-0.06L0.254,-0.125C0.245,-0.117 0.233,-0.108 0.22,-0.108C0.218,-0.108 0.216,-0.109 0.214,-0.109C0.182,-0.179 0.177,-0.271 0.177,-0.348C0.177,-0.405 0.191,-0.623 0.271,-0.623C0.283,-0.623 0.296,-0.613 0.305,-0.605L0.348,-0.732C0.329,-0.742 0.308,-0.749 0.287,-0.75C0.29,-0.761 0.293,-0.771 0.298,-0.781C0.275,-0.794 0.249,-0.802 0.223,-0.802C0.027,-0.802 0,-0.537 0,-0.391C0,-0.284 0.011,-0.134 0.083,-0.048C0.09,-0.04 0.115,-0.014 0.124,-0.011C0.159,0.039 0.208,0.069 0.27,0.069C0.297,0.069 0.324,0.062 0.348,0.05ZM0.286,-0.004C0.266,0.005 0.245,0.01 0.223,0.01C0.034,0.01 0.01,-0.251 0.01,-0.391C0.01,-0.526 0.032,-0.791 0.22,-0.791C0.243,-0.791 0.265,-0.786 0.286,-0.776L0.25,-0.672C0.242,-0.678 0.231,-0.682 0.221,-0.682C0.125,-0.682 0.118,-0.453 0.118,-0.391C0.118,-0.329 0.125,-0.099 0.221,-0.099C0.231,-0.099 0.242,-0.103 0.25,-0.109L0.286,-0.004Z" style="fill-rule:nonzero;"/>
            </g>
            <g transform="matrix(214.165,0,0,214.165,2137.4,2033.02)">
                <path d="M0.384,0.031L0.333,-0.086L0.309,-0.077L0.282,-0.137C0.257,-0.124 0.225,-0.11 0.196,-0.109L0.377,-0.176C0.378,-0.186 0.378,-0.197 0.378,-0.207C0.378,-0.297 0.364,-0.337 0.292,-0.404C0.259,-0.446 0.223,-0.468 0.169,-0.468C0.044,-0.468 0,-0.345 0,-0.239C0,-0.161 0.028,-0.046 0.101,-0.006C0.136,0.04 0.18,0.07 0.239,0.07C0.285,0.07 0.342,0.049 0.384,0.031ZM0.321,-0.024C0.28,-0.006 0.235,0.009 0.19,0.009C0.058,0.009 0.01,-0.128 0.01,-0.239C0.01,-0.339 0.05,-0.458 0.169,-0.458C0.295,-0.458 0.318,-0.335 0.318,-0.235L0.13,-0.163C0.139,-0.13 0.158,-0.1 0.196,-0.1C0.224,-0.1 0.252,-0.112 0.277,-0.124L0.321,-0.024ZM0.207,-0.308C0.203,-0.327 0.194,-0.349 0.171,-0.349C0.136,-0.349 0.127,-0.303 0.123,-0.276C0.151,-0.286 0.18,-0.296 0.207,-0.308Z" style="fill-rule:nonzero;"/>
            </g>
            <g transform="matrix(214.165,0,0,214.165,2219.64,2033.02)">
                <path d="M0.35,0.06L0.35,-0.253C0.35,-0.311 0.328,-0.36 0.276,-0.389C0.248,-0.441 0.2,-0.463 0.142,-0.463L0,-0.463L0,0.011L0.049,0.011L0.049,0.06L0.178,0.06L0.178,0.011L0.222,0.011L0.222,0.06L0.35,0.06ZM0.29,0L0.182,0L0.182,-0.304C0.182,-0.342 0.148,-0.344 0.118,-0.344L0.118,0L0.01,0L0.01,-0.454L0.142,-0.454C0.225,-0.454 0.29,-0.386 0.29,-0.304L0.29,0Z" style="fill-rule:nonzero;"/>
            </g>
            <g transform="matrix(214.165,0,0,214.165,2294.6,2033.02)">
                <path d="M0.296,-0.284L0.296,-0.413L0.245,-0.413L0.245,-0.463L0.237,-0.463L0.237,-0.608L0.188,-0.592L0.188,-0.659L0.058,-0.614L0.058,-0.463L0.044,-0.463L0,-0.334L0.058,-0.334L0.058,0.011L0.108,0.011L0.108,0.06L0.237,0.06L0.237,-0.284L0.296,-0.284ZM0.236,-0.344L0.177,-0.344L0.177,0L0.069,0L0.069,-0.344L0.015,-0.344L0.051,-0.454L0.069,-0.454L0.069,-0.608L0.177,-0.646L0.177,-0.454L0.236,-0.454L0.236,-0.344Z" style="fill-rule:nonzero;"/>
            </g>
            <g transform="matrix(214.165,0,0,214.165,2357.99,2033.02)">
                <path d="M0.384,0.031L0.333,-0.086L0.309,-0.077L0.282,-0.137C0.257,-0.124 0.225,-0.11 0.196,-0.109L0.377,-0.176C0.378,-0.186 0.378,-0.197 0.378,-0.207C0.378,-0.297 0.364,-0.337 0.292,-0.404C0.259,-0.446 0.223,-0.468 0.169,-0.468C0.044,-0.468 0,-0.345 0,-0.239C0,-0.161 0.028,-0.046 0.101,-0.006C0.136,0.04 0.18,0.07 0.239,0.07C0.285,0.07 0.342,0.049 0.384,0.031ZM0.321,-0.024C0.28,-0.006 0.235,0.009 0.19,0.009C0.058,0.009 0.01,-0.128 0.01,-0.239C0.01,-0.339 0.05,-0.458 0.169,-0.458C0.295,-0.458 0.318,-0.335 0.318,-0.235L0.13,-0.163C0.139,-0.13 0.158,-0.1 0.196,-0.1C0.224,-0.1 0.252,-0.112 0.277,-0.124L0.321,-0.024ZM0.207,-0.308C0.203,-0.327 0.194,-0.349 0.171,-0.349C0.136,-0.349 0.127,-0.303 0.123,-0.276C0.151,-0.286 0.18,-0.296 0.207,-0.308Z" style="fill-rule:nonzero;"/>
            </g>
            <g transform="matrix(214.165,0,0,214.165,2440.23,2033.02)">
                <path d="M0.354,-0.348C0.338,-0.366 0.32,-0.382 0.299,-0.395L0.304,-0.397C0.274,-0.434 0.233,-0.462 0.184,-0.462C0.164,-0.462 0.145,-0.457 0.128,-0.448L0.128,-0.462L0,-0.462L0,0.011L0.049,0.011L0.049,0.06L0.179,0.06L0.179,-0.244C0.179,-0.27 0.193,-0.284 0.219,-0.284C0.233,-0.284 0.245,-0.277 0.254,-0.266L0.354,-0.348ZM0.289,-0.398L0.205,-0.329C0.195,-0.339 0.183,-0.344 0.169,-0.344C0.14,-0.344 0.119,-0.323 0.119,-0.294L0.119,0L0.01,0L0.01,-0.452L0.119,-0.452L0.119,-0.43C0.14,-0.442 0.163,-0.451 0.187,-0.451C0.229,-0.451 0.263,-0.429 0.289,-0.398Z" style="fill-rule:nonzero;"/>
            </g>
            <g transform="matrix(214.165,0,0,214.165,2513.26,2033.02)">
                <path d="M0.411,-0.413L0.345,-0.413L0.362,-0.463L0.227,-0.463L0.197,-0.374L0.185,-0.413L0.152,-0.413L0.136,-0.463L0,-0.463L0.155,0.011L0.189,0.011L0.206,0.06L0.256,0.06L0.411,-0.413ZM0.348,-0.454L0.2,0L0.162,0L0.014,-0.454L0.128,-0.454L0.18,-0.292L0.234,-0.454L0.348,-0.454Z" style="fill-rule:nonzero;"/>
            </g>
            <g transform="matrix(214.165,0,0,214.165,2601.28,2033.02)">
                <path d="M0.179,-0.526L0.179,-0.684L0.13,-0.684L0.13,-0.733L0,-0.733L0,-0.576L0.051,-0.576L0.051,-0.526L0.179,-0.526ZM0.179,0.06L0.179,-0.413L0.13,-0.413L0.13,-0.462L0,-0.462L0,0.011L0.051,0.011L0.051,0.06L0.179,0.06ZM0.119,-0.584L0.011,-0.584L0.011,-0.724L0.119,-0.724L0.119,-0.584ZM0.119,0L0.011,0L0.011,-0.452L0.119,-0.452L0.119,0Z" style="fill-rule:nonzero;"/>
            </g>
            <g transform="matrix(214.165,0,0,214.165,2639.62,2033.02)">
                <path d="M0.179,0.06L0.179,-0.74L0.13,-0.724L0.13,-0.791L0,-0.746L0,0.011L0.051,0.011L0.051,0.06L0.179,0.06ZM0.119,0L0.011,0L0.011,-0.74L0.119,-0.776L0.119,0Z" style="fill-rule:nonzero;"/>
            </g>
            <g transform="matrix(214.165,0,0,214.165,2677.95,2033.02)">
                <path d="M0.179,0.06L0.179,-0.74L0.13,-0.724L0.13,-0.791L0,-0.746L0,0.011L0.051,0.011L0.051,0.06L0.179,0.06ZM0.119,0L0.011,0L0.011,-0.74L0.119,-0.776L0.119,0Z" style="fill-rule:nonzero;"/>
            </g>
            <g transform="matrix(214.165,0,0,214.165,2716.29,2033.02)">
                <path d="M0.384,0.031L0.333,-0.086L0.309,-0.077L0.282,-0.137C0.257,-0.124 0.225,-0.11 0.196,-0.109L0.377,-0.176C0.378,-0.186 0.378,-0.197 0.378,-0.207C0.378,-0.297 0.364,-0.337 0.292,-0.404C0.259,-0.446 0.223,-0.468 0.169,-0.468C0.044,-0.468 0,-0.345 0,-0.239C0,-0.161 0.028,-0.046 0.101,-0.006C0.136,0.04 0.18,0.07 0.239,0.07C0.285,0.07 0.342,0.049 0.384,0.031ZM0.321,-0.024C0.28,-0.006 0.235,0.009 0.19,0.009C0.058,0.009 0.01,-0.128 0.01,-0.239C0.01,-0.339 0.05,-0.458 0.169,-0.458C0.295,-0.458 0.318,-0.335 0.318,-0.235L0.13,-0.163C0.139,-0.13 0.158,-0.1 0.196,-0.1C0.224,-0.1 0.252,-0.112 0.277,-0.124L0.321,-0.024ZM0.207,-0.308C0.203,-0.327 0.194,-0.349 0.171,-0.349C0.136,-0.349 0.127,-0.303 0.123,-0.276C0.151,-0.286 0.18,-0.296 0.207,-0.308Z" style="fill-rule:nonzero;"/>
            </g>
        </g>
        <g transform="matrix(0.693267,0,0,0.814835,-307.801,760.827)">
            <ellipse cx="970.168" cy="1275.03" rx="479.977" ry="408.367" style="fill:rgb(255,59,74);"/>
        </g>
        <g transform="matrix(0.89518,0,0,0.810148,-312.361,347.115)">
            <g transform="matrix(268.983,0,0,268.983,417.288,1897.51)">
                <path d="M0.325,-0.253L0.325,-0.38L0.274,-0.38L0.274,-0.43L0.212,-0.43L0.212,-0.612L0.321,-0.612L0.292,-0.742L0.254,-0.742L0.243,-0.791L0.033,-0.791L0.033,-0.43L0,-0.43L0,-0.302L0.033,-0.302L0.033,0.01L0.082,0.01L0.082,0.059L0.212,0.059L0.212,-0.253L0.325,-0.253ZM0.265,-0.312L0.152,-0.312L0.152,0L0.043,0L0.043,-0.312L0.01,-0.312L0.01,-0.421L0.043,-0.421L0.043,-0.781L0.235,-0.781L0.259,-0.672L0.152,-0.672L0.152,-0.421L0.265,-0.421L0.265,-0.312Z" style="fill-rule:nonzero;"/>
            </g>
            <g transform="matrix(268.983,0,0,268.983,504.707,1897.51)">
                <path d="M0.354,-0.348C0.338,-0.366 0.32,-0.382 0.299,-0.395L0.304,-0.397C0.274,-0.434 0.233,-0.462 0.184,-0.462C0.164,-0.462 0.145,-0.457 0.128,-0.448L0.128,-0.462L0,-0.462L0,0.011L0.049,0.011L0.049,0.06L0.179,0.06L0.179,-0.244C0.179,-0.27 0.193,-0.284 0.219,-0.284C0.233,-0.284 0.245,-0.277 0.254,-0.266L0.354,-0.348ZM0.289,-0.398L0.205,-0.329C0.195,-0.339 0.183,-0.344 0.169,-0.344C0.14,-0.344 0.119,-0.323 0.119,-0.294L0.119,0L0.01,0L0.01,-0.452L0.119,-0.452L0.119,-0.43C0.14,-0.442 0.163,-0.451 0.187,-0.451C0.229,-0.451 0.263,-0.429 0.289,-0.398Z" style="fill-rule:nonzero;"/>
            </g>
            <g transform="matrix(268.983,0,0,268.983,589.168,1897.51)">
                <path d="M0.396,0.06L0.396,-0.401L0.347,-0.401L0.347,-0.45L0.239,-0.45C0.22,-0.458 0.2,-0.463 0.179,-0.463C0.055,-0.463 0,-0.331 0,-0.225C0,-0.151 0.027,-0.056 0.094,-0.016C0.125,0.032 0.169,0.059 0.227,0.059C0.241,0.059 0.255,0.057 0.268,0.054L0.268,0.06L0.396,0.06ZM0.338,0L0.228,0L0.228,-0.008C0.212,-0.004 0.196,-0.001 0.179,-0.001C0.058,-0.001 0.01,-0.124 0.01,-0.227C0.01,-0.327 0.059,-0.453 0.176,-0.453C0.197,-0.453 0.217,-0.448 0.236,-0.44L0.338,-0.44L0.338,0ZM0.228,-0.144L0.228,-0.306C0.218,-0.326 0.203,-0.344 0.179,-0.344C0.131,-0.344 0.119,-0.26 0.119,-0.224C0.119,-0.188 0.129,-0.109 0.177,-0.109C0.201,-0.109 0.217,-0.124 0.228,-0.144ZM0.219,-0.146C0.212,-0.132 0.201,-0.121 0.185,-0.119C0.18,-0.136 0.178,-0.154 0.178,-0.172C0.178,-0.203 0.186,-0.269 0.219,-0.282L0.219,-0.146Z" style="fill-rule:nonzero;"/>
            </g>
            <g transform="matrix(268.983,0,0,268.983,695.685,1897.51)">
                <path d="M0.35,0.06L0.35,-0.253C0.35,-0.311 0.328,-0.36 0.276,-0.389C0.248,-0.441 0.2,-0.463 0.142,-0.463L0,-0.463L0,0.011L0.049,0.011L0.049,0.06L0.178,0.06L0.178,0.011L0.222,0.011L0.222,0.06L0.35,0.06ZM0.29,0L0.182,0L0.182,-0.304C0.182,-0.342 0.148,-0.344 0.118,-0.344L0.118,0L0.01,0L0.01,-0.454L0.142,-0.454C0.225,-0.454 0.29,-0.386 0.29,-0.304L0.29,0Z" style="fill-rule:nonzero;"/>
            </g>
            <g transform="matrix(268.983,0,0,268.983,789.83,1897.51)">
                <path d="M0.396,0.06L0.268,-0.222L0.389,-0.413L0.308,-0.413L0.339,-0.462L0.188,-0.462L0.178,-0.449L0.178,-0.742L0.128,-0.725L0.128,-0.792L0,-0.748L0,0.011L0.05,0.011L0.05,0.06L0.178,0.06L0.178,-0.05L0.206,0.011L0.232,0.011L0.255,0.06L0.396,0.06ZM0.33,0L0.212,0L0.137,-0.164L0.118,-0.133L0.118,0L0.01,0L0.01,-0.74L0.118,-0.778L0.118,-0.336L0.192,-0.452L0.322,-0.452L0.207,-0.272L0.33,0Z" style="fill-rule:nonzero;"/>
            </g>
            <g transform="matrix(268.983,0,0,268.983,894.464,1897.51)">
                <path d="M0.179,0.06L0.179,-0.74L0.13,-0.724L0.13,-0.791L0,-0.746L0,0.011L0.051,0.011L0.051,0.06L0.179,0.06ZM0.119,0L0.011,0L0.011,-0.74L0.119,-0.776L0.119,0Z" style="fill-rule:nonzero;"/>
            </g>
            <g transform="matrix(268.983,0,0,268.983,942.612,1897.51)">
                <path d="M0.179,-0.526L0.179,-0.684L0.13,-0.684L0.13,-0.733L0,-0.733L0,-0.576L0.051,-0.576L0.051,-0.526L0.179,-0.526ZM0.179,0.06L0.179,-0.413L0.13,-0.413L0.13,-0.462L0,-0.462L0,0.011L0.051,0.011L0.051,0.06L0.179,0.06ZM0.119,-0.584L0.011,-0.584L0.011,-0.724L0.119,-0.724L0.119,-0.584ZM0.119,0L0.011,0L0.011,-0.452L0.119,-0.452L0.119,0Z" style="fill-rule:nonzero;"/>
            </g>
            <g transform="matrix(268.983,0,0,268.983,990.76,1897.51)">
                <path d="M0.35,0.06L0.35,-0.253C0.35,-0.311 0.328,-0.36 0.276,-0.389C0.248,-0.441 0.2,-0.463 0.142,-0.463L0,-0.463L0,0.011L0.049,0.011L0.049,0.06L0.178,0.06L0.178,0.011L0.222,0.011L0.222,0.06L0.35,0.06ZM0.29,0L0.182,0L0.182,-0.304C0.182,-0.342 0.148,-0.344 0.118,-0.344L0.118,0L0.01,0L0.01,-0.454L0.142,-0.454C0.225,-0.454 0.29,-0.386 0.29,-0.304L0.29,0Z" style="fill-rule:nonzero;"/>
            </g>
        </g>
        <g transform="matrix(1.36317,0,0,1.43862,-1173.78,-1026.79)">
            <g transform="matrix(259.332,0,0,259.332,1183.14,1435.71)">
                <path d="M0.314,-0.641L0.284,-0.766C0.272,-0.762 0.261,-0.759 0.249,-0.756C0.244,-0.776 0.24,-0.796 0.234,-0.815C0.114,-0.787 0,-0.701 0,-0.568C0,-0.432 0.145,-0.301 0.145,-0.214C0.145,-0.145 0.072,-0.103 0.013,-0.088C0.022,-0.046 0.032,-0.005 0.043,0.036C0.055,0.034 0.067,0.031 0.078,0.026L0.093,0.086C0.214,0.057 0.323,-0.029 0.323,-0.163C0.323,-0.299 0.179,-0.43 0.179,-0.515C0.179,-0.585 0.255,-0.625 0.314,-0.641ZM0.119,-0.565C0.119,-0.474 0.264,-0.346 0.264,-0.212C0.264,-0.091 0.16,-0.003 0.05,0.024L0.024,-0.082C0.086,-0.098 0.155,-0.144 0.155,-0.215C0.155,-0.308 0.01,-0.434 0.01,-0.569C0.01,-0.69 0.118,-0.774 0.226,-0.804L0.253,-0.698C0.193,-0.682 0.119,-0.635 0.119,-0.565Z" style="fill-rule:nonzero;"/>
            </g>
            <g transform="matrix(259.332,0,0,259.332,1266.9,1435.71)">
                <path d="M0.279,-0.39C0.244,-0.434 0.203,-0.463 0.145,-0.463L0,-0.463L0,0.217L0.049,0.199L0.049,0.266L0.178,0.222L0.178,0.06L0.196,0.06C0.321,0.06 0.373,-0.073 0.373,-0.179C0.373,-0.249 0.345,-0.354 0.279,-0.39ZM0.313,-0.229C0.313,-0.128 0.263,0 0.145,0L0.119,0L0.119,0.166L0.01,0.203L0.01,-0.454L0.145,-0.454C0.265,-0.454 0.313,-0.331 0.313,-0.229ZM0.119,-0.109C0.13,-0.109 0.155,-0.109 0.165,-0.115C0.198,-0.135 0.204,-0.196 0.204,-0.23C0.204,-0.265 0.199,-0.318 0.165,-0.338C0.154,-0.344 0.131,-0.344 0.119,-0.344L0.119,-0.109ZM0.187,-0.284C0.192,-0.265 0.194,-0.246 0.194,-0.227C0.194,-0.2 0.19,-0.173 0.178,-0.149L0.178,-0.284L0.187,-0.284Z" style="fill-rule:nonzero;"/>
            </g>
            <g transform="matrix(259.332,0,0,259.332,1363.63,1435.71)">
                <path d="M0.354,-0.348C0.338,-0.366 0.32,-0.382 0.299,-0.395L0.304,-0.397C0.274,-0.434 0.233,-0.462 0.184,-0.462C0.164,-0.462 0.145,-0.457 0.128,-0.448L0.128,-0.462L0,-0.462L0,0.011L0.049,0.011L0.049,0.06L0.179,0.06L0.179,-0.244C0.179,-0.27 0.193,-0.284 0.219,-0.284C0.233,-0.284 0.245,-0.277 0.254,-0.266L0.354,-0.348ZM0.289,-0.398L0.205,-0.329C0.195,-0.339 0.183,-0.344 0.169,-0.344C0.14,-0.344 0.119,-0.323 0.119,-0.294L0.119,0L0.01,0L0.01,-0.452L0.119,-0.452L0.119,-0.43C0.14,-0.442 0.163,-0.451 0.187,-0.451C0.229,-0.451 0.263,-0.429 0.289,-0.398Z" style="fill-rule:nonzero;"/>
            </g>
            <g transform="matrix(259.332,0,0,259.332,1455.43,1435.71)">
                <path d="M0.179,-0.526L0.179,-0.684L0.13,-0.684L0.13,-0.733L0,-0.733L0,-0.576L0.051,-0.576L0.051,-0.526L0.179,-0.526ZM0.179,0.06L0.179,-0.413L0.13,-0.413L0.13,-0.462L0,-0.462L0,0.011L0.051,0.011L0.051,0.06L0.179,0.06ZM0.119,-0.584L0.011,-0.584L0.011,-0.724L0.119,-0.724L0.119,-0.584ZM0.119,0L0.011,0L0.011,-0.452L0.119,-0.452L0.119,0Z" style="fill-rule:nonzero;"/>
            </g>
            <g transform="matrix(259.332,0,0,259.332,1501.85,1435.71)">
                <path d="M0.35,0.06L0.35,-0.253C0.35,-0.311 0.328,-0.36 0.276,-0.389C0.248,-0.441 0.2,-0.463 0.142,-0.463L0,-0.463L0,0.011L0.049,0.011L0.049,0.06L0.178,0.06L0.178,0.011L0.222,0.011L0.222,0.06L0.35,0.06ZM0.29,0L0.182,0L0.182,-0.304C0.182,-0.342 0.148,-0.344 0.118,-0.344L0.118,0L0.01,0L0.01,-0.454L0.142,-0.454C0.225,-0.454 0.29,-0.386 0.29,-0.304L0.29,0Z" style="fill-rule:nonzero;"/>
            </g>
            <g transform="matrix(259.332,0,0,259.332,1592.62,1435.71)">
                <path d="M0.403,-0.365L0.349,-0.41L0.353,-0.415L0.256,-0.499L0.217,-0.455C0.202,-0.46 0.187,-0.462 0.171,-0.462C0.114,-0.462 0.069,-0.437 0.039,-0.388C0.033,-0.385 0.026,-0.361 0.024,-0.356C0.009,-0.313 0.002,-0.27 0.002,-0.224C0.002,-0.148 0.02,-0.058 0.086,-0.011L0.105,0.047C0.112,0.041 0.119,0.036 0.127,0.031L0.133,0.035L0.155,0.097C0.171,0.083 0.192,0.066 0.214,0.065C0.214,0.095 0.199,0.121 0.166,0.121C0.133,0.121 0.096,0.091 0.073,0.07L-0.017,0.162C0.001,0.178 0.019,0.193 0.039,0.206L0.034,0.211C0.084,0.261 0.146,0.3 0.219,0.3C0.322,0.3 0.392,0.213 0.392,0.114C0.392,0.069 0.377,0.026 0.347,-0.008C0.379,-0.057 0.389,-0.118 0.389,-0.176C0.389,-0.224 0.382,-0.274 0.361,-0.318L0.403,-0.365ZM0.339,-0.414L0.3,-0.37C0.321,-0.325 0.329,-0.275 0.329,-0.226C0.329,-0.168 0.318,-0.107 0.285,-0.058C0.317,-0.022 0.332,0.021 0.332,0.069C0.332,0.159 0.261,0.24 0.169,0.24C0.103,0.24 0.045,0.205 -0.002,0.161L0.073,0.084C0.098,0.107 0.131,0.131 0.166,0.131C0.2,0.131 0.224,0.1 0.224,0.067C0.224,0.038 0.21,0.005 0.176,0.005C0.152,0.005 0.128,0.017 0.109,0.03C0.096,-0.016 0.101,-0.01 0.069,-0.041C0.026,-0.082 0.011,-0.17 0.011,-0.227C0.011,-0.329 0.048,-0.452 0.171,-0.452C0.188,-0.452 0.205,-0.45 0.221,-0.444L0.257,-0.485L0.339,-0.414ZM0.171,-0.108C0.218,-0.108 0.219,-0.199 0.219,-0.23C0.219,-0.261 0.218,-0.343 0.171,-0.343C0.122,-0.343 0.12,-0.26 0.12,-0.227C0.12,-0.195 0.127,-0.108 0.171,-0.108ZM0.205,-0.28C0.209,-0.262 0.21,-0.243 0.21,-0.224C0.21,-0.196 0.208,-0.145 0.185,-0.125C0.182,-0.144 0.181,-0.163 0.181,-0.182C0.181,-0.208 0.182,-0.263 0.205,-0.28Z" style="fill-rule:nonzero;"/>
            </g>
            <g transform="matrix(259.332,0,0,259.332,1697.13,1435.71)">
                <path d="M0.265,-0.612L0.265,-0.74L0.216,-0.74L0.216,-0.791L0.177,-0.791C0.101,-0.791 0.039,-0.729 0.039,-0.653L0.039,-0.463L0,-0.463L0,-0.334L0.039,-0.334L0.039,0.224L0.089,0.208L0.089,0.275L0.217,0.23L0.217,-0.284L0.258,-0.284L0.258,-0.413L0.217,-0.413L0.217,-0.594C0.217,-0.607 0.231,-0.612 0.265,-0.612ZM0.205,-0.672L0.191,-0.672C0.175,-0.672 0.157,-0.67 0.157,-0.65L0.157,-0.454L0.198,-0.454L0.198,-0.344L0.157,-0.344L0.157,0.173L0.048,0.21L0.048,-0.344L0.01,-0.344L0.01,-0.454L0.048,-0.454L0.048,-0.653C0.048,-0.724 0.106,-0.781 0.177,-0.781L0.205,-0.781L0.205,-0.672Z" style="fill-rule:nonzero;"/>
            </g>
            <g transform="matrix(259.332,0,0,259.332,1765.85,1435.71)">
                <path d="M0.179,-0.526L0.179,-0.684L0.13,-0.684L0.13,-0.733L0,-0.733L0,-0.576L0.051,-0.576L0.051,-0.526L0.179,-0.526ZM0.179,0.06L0.179,-0.413L0.13,-0.413L0.13,-0.462L0,-0.462L0,0.011L0.051,0.011L0.051,0.06L0.179,0.06ZM0.119,-0.584L0.011,-0.584L0.011,-0.724L0.119,-0.724L0.119,-0.584ZM0.119,0L0.011,0L0.011,-0.452L0.119,-0.452L0.119,0Z" style="fill-rule:nonzero;"/>
            </g>
            <g transform="matrix(259.332,0,0,259.332,1812.27,1435.71)">
                <path d="M0.384,0.031L0.333,-0.086L0.309,-0.077L0.282,-0.137C0.257,-0.124 0.225,-0.11 0.196,-0.109L0.377,-0.176C0.378,-0.186 0.378,-0.197 0.378,-0.207C0.378,-0.297 0.364,-0.337 0.292,-0.404C0.259,-0.446 0.223,-0.468 0.169,-0.468C0.044,-0.468 0,-0.345 0,-0.239C0,-0.161 0.028,-0.046 0.101,-0.006C0.136,0.04 0.18,0.07 0.239,0.07C0.285,0.07 0.342,0.049 0.384,0.031ZM0.321,-0.024C0.28,-0.006 0.235,0.009 0.19,0.009C0.058,0.009 0.01,-0.128 0.01,-0.239C0.01,-0.339 0.05,-0.458 0.169,-0.458C0.295,-0.458 0.318,-0.335 0.318,-0.235L0.13,-0.163C0.139,-0.13 0.158,-0.1 0.196,-0.1C0.224,-0.1 0.252,-0.112 0.277,-0.124L0.321,-0.024ZM0.207,-0.308C0.203,-0.327 0.194,-0.349 0.171,-0.349C0.136,-0.349 0.127,-0.303 0.123,-0.276C0.151,-0.286 0.18,-0.296 0.207,-0.308Z" style="fill-rule:nonzero;"/>
            </g>
            <g transform="matrix(259.332,0,0,259.332,1911.86,1435.71)">
                <path d="M0.179,0.06L0.179,-0.74L0.13,-0.724L0.13,-0.791L0,-0.746L0,0.011L0.051,0.011L0.051,0.06L0.179,0.06ZM0.119,0L0.011,0L0.011,-0.74L0.119,-0.776L0.119,0Z" style="fill-rule:nonzero;"/>
            </g>
            <g transform="matrix(259.332,0,0,259.332,1958.28,1435.71)">
                <path d="M0.372,0.06L0.372,-0.742C0.356,-0.735 0.34,-0.729 0.323,-0.724L0.323,-0.791C0.308,-0.783 0.209,-0.75 0.193,-0.748L0.193,-0.463L0.177,-0.463C0.052,-0.463 0,-0.332 0,-0.225C0,-0.151 0.025,-0.053 0.094,-0.014C0.128,0.03 0.169,0.06 0.226,0.06L0.372,0.06ZM0.312,0L0.177,0C0.056,0 0.009,-0.124 0.009,-0.227C0.009,-0.329 0.057,-0.454 0.177,-0.454L0.204,-0.454L0.204,-0.74L0.312,-0.778L0.312,0ZM0.204,-0.109L0.204,-0.344L0.186,-0.344C0.127,-0.344 0.117,-0.266 0.117,-0.221C0.117,-0.173 0.126,-0.109 0.187,-0.109L0.204,-0.109ZM0.193,-0.119L0.184,-0.119C0.179,-0.137 0.177,-0.156 0.177,-0.175C0.177,-0.203 0.181,-0.231 0.193,-0.256L0.193,-0.119Z" style="fill-rule:nonzero;"/>
            </g>
        </g>
        <g transform="matrix(1,0,0,1,15.4349,-24.2233)">
            <g transform="matrix(0.91517,0,0,1,275.004,0)">
                <g transform="matrix(145.755,0,0,145.755,3241.81,456.535)">
                    <path d="M0.327,-0.612L0.327,-0.74L0.278,-0.74L0.278,-0.791L0.027,-0.791C0.018,-0.749 0.005,-0.704 0,-0.661L0.06,-0.661C0.056,-0.645 0.052,-0.628 0.049,-0.612L0.087,-0.612L0.087,0.01L0.138,0.01L0.138,0.06L0.266,0.06L0.266,-0.612L0.327,-0.612ZM0.267,-0.671L0.206,-0.671L0.206,0L0.098,0L0.098,-0.671L0.012,-0.671L0.036,-0.78L0.267,-0.78L0.267,-0.671Z" style="fill-rule:nonzero;"/>
                </g>
                <g transform="matrix(145.755,0,0,145.755,3289.47,456.535)">
                    <path d="M0.358,0.06L0.358,-0.253C0.358,-0.311 0.331,-0.357 0.283,-0.389C0.261,-0.429 0.222,-0.451 0.178,-0.46L0.178,-0.742L0.128,-0.724L0.128,-0.791C0.086,-0.776 0.043,-0.762 0,-0.748L0,0.011L0.049,0.011L0.049,0.06L0.178,0.06L0.178,0.011L0.229,0.011L0.229,0.06L0.358,0.06ZM0.298,0L0.19,0L0.19,-0.304C0.19,-0.342 0.158,-0.344 0.128,-0.344L0.118,-0.344L0.118,0L0.01,0L0.01,-0.74L0.118,-0.778L0.118,-0.454L0.149,-0.454C0.232,-0.454 0.298,-0.387 0.298,-0.304L0.298,0Z" style="fill-rule:nonzero;"/>
                </g>
                <g transform="matrix(145.755,0,0,145.755,3341.65,456.535)">
                    <path d="M0.384,0.031L0.333,-0.086L0.309,-0.077L0.282,-0.137C0.257,-0.124 0.225,-0.11 0.196,-0.109L0.377,-0.176C0.378,-0.186 0.378,-0.197 0.378,-0.207C0.378,-0.297 0.364,-0.337 0.292,-0.404C0.259,-0.446 0.223,-0.468 0.169,-0.468C0.044,-0.468 0,-0.345 0,-0.239C0,-0.161 0.028,-0.046 0.101,-0.006C0.136,0.04 0.18,0.07 0.239,0.07C0.285,0.07 0.342,0.049 0.384,0.031ZM0.321,-0.024C0.28,-0.006 0.235,0.009 0.19,0.009C0.058,0.009 0.01,-0.128 0.01,-0.239C0.01,-0.339 0.05,-0.458 0.169,-0.458C0.295,-0.458 0.318,-0.335 0.318,-0.235L0.13,-0.163C0.139,-0.13 0.158,-0.1 0.196,-0.1C0.224,-0.1 0.252,-0.112 0.277,-0.124L0.321,-0.024ZM0.207,-0.308C0.203,-0.327 0.194,-0.349 0.171,-0.349C0.136,-0.349 0.127,-0.303 0.123,-0.276C0.151,-0.286 0.18,-0.296 0.207,-0.308Z" style="fill-rule:nonzero;"/>
                </g>
                <g transform="matrix(145.755,0,0,145.755,3432.6,456.535)">
                    <path d="M0.324,-0.253L0.324,-0.38L0.275,-0.38L0.275,-0.43L0.211,-0.43L0.211,-0.612L0.32,-0.612L0.293,-0.742L0.253,-0.742L0.242,-0.791L0.032,-0.791L0.032,-0.43L0,-0.43L0,-0.302L0.032,-0.302L0.032,0.01L0.083,0.01L0.083,0.059L0.313,0.059L0.313,-0.07L0.263,-0.07L0.263,-0.12L0.211,-0.12L0.211,-0.253L0.324,-0.253ZM0.264,-0.312L0.152,-0.312L0.152,-0.109L0.253,-0.109L0.253,0L0.043,0L0.043,-0.312L0.009,-0.312L0.009,-0.421L0.043,-0.421L0.043,-0.781L0.235,-0.781L0.259,-0.672L0.152,-0.672L0.152,-0.421L0.264,-0.421L0.264,-0.312Z" style="fill-rule:nonzero;"/>
                </g>
                <g transform="matrix(145.755,0,0,145.755,3479.83,456.535)">
                    <path d="M0.396,0.06L0.396,-0.401L0.347,-0.401L0.347,-0.45L0.239,-0.45C0.22,-0.458 0.2,-0.463 0.179,-0.463C0.055,-0.463 0,-0.331 0,-0.225C0,-0.151 0.027,-0.056 0.094,-0.016C0.125,0.032 0.169,0.059 0.227,0.059C0.241,0.059 0.255,0.057 0.268,0.054L0.268,0.06L0.396,0.06ZM0.338,0L0.228,0L0.228,-0.008C0.212,-0.004 0.196,-0.001 0.179,-0.001C0.058,-0.001 0.01,-0.124 0.01,-0.227C0.01,-0.327 0.059,-0.453 0.176,-0.453C0.197,-0.453 0.217,-0.448 0.236,-0.44L0.338,-0.44L0.338,0ZM0.228,-0.144L0.228,-0.306C0.218,-0.326 0.203,-0.344 0.179,-0.344C0.131,-0.344 0.119,-0.26 0.119,-0.224C0.119,-0.188 0.129,-0.109 0.177,-0.109C0.201,-0.109 0.217,-0.124 0.228,-0.144ZM0.219,-0.146C0.212,-0.132 0.201,-0.121 0.185,-0.119C0.18,-0.136 0.178,-0.154 0.178,-0.172C0.178,-0.203 0.186,-0.269 0.219,-0.282L0.219,-0.146Z" style="fill-rule:nonzero;"/>
                </g>
                <g transform="matrix(145.755,0,0,145.755,3537.55,456.535)">
                    <path d="M0.354,-0.348C0.338,-0.366 0.32,-0.382 0.299,-0.395L0.304,-0.397C0.274,-0.434 0.233,-0.462 0.184,-0.462C0.164,-0.462 0.145,-0.457 0.128,-0.448L0.128,-0.462L0,-0.462L0,0.011L0.049,0.011L0.049,0.06L0.179,0.06L0.179,-0.244C0.179,-0.27 0.193,-0.284 0.219,-0.284C0.233,-0.284 0.245,-0.277 0.254,-0.266L0.354,-0.348ZM0.289,-0.398L0.205,-0.329C0.195,-0.339 0.183,-0.344 0.169,-0.344C0.14,-0.344 0.119,-0.323 0.119,-0.294L0.119,0L0.01,0L0.01,-0.452L0.119,-0.452L0.119,-0.43C0.14,-0.442 0.163,-0.451 0.187,-0.451C0.229,-0.451 0.263,-0.429 0.289,-0.398Z" style="fill-rule:nonzero;"/>
                </g>
                <g transform="matrix(145.755,0,0,145.755,3589.14,456.535)">
                    <path d="M0.296,-0.284L0.296,-0.413L0.245,-0.413L0.245,-0.463L0.237,-0.463L0.237,-0.608L0.188,-0.592L0.188,-0.659L0.058,-0.614L0.058,-0.463L0.044,-0.463L0,-0.334L0.058,-0.334L0.058,0.011L0.108,0.011L0.108,0.06L0.237,0.06L0.237,-0.284L0.296,-0.284ZM0.236,-0.344L0.177,-0.344L0.177,0L0.069,0L0.069,-0.344L0.015,-0.344L0.051,-0.454L0.069,-0.454L0.069,-0.608L0.177,-0.646L0.177,-0.454L0.236,-0.454L0.236,-0.344Z" style="fill-rule:nonzero;"/>
                </g>
                <g transform="matrix(145.755,0,0,145.755,3632.29,456.535)">
                    <path d="M0.358,0.06L0.358,-0.253C0.358,-0.311 0.331,-0.357 0.283,-0.389C0.261,-0.429 0.222,-0.451 0.178,-0.46L0.178,-0.742L0.128,-0.724L0.128,-0.791C0.086,-0.776 0.043,-0.762 0,-0.748L0,0.011L0.049,0.011L0.049,0.06L0.178,0.06L0.178,0.011L0.229,0.011L0.229,0.06L0.358,0.06ZM0.298,0L0.19,0L0.19,-0.304C0.19,-0.342 0.158,-0.344 0.128,-0.344L0.118,-0.344L0.118,0L0.01,0L0.01,-0.74L0.118,-0.778L0.118,-0.454L0.149,-0.454C0.232,-0.454 0.298,-0.387 0.298,-0.304L0.298,0Z" style="fill-rule:nonzero;"/>
                </g>
            </g>
            <g transform="matrix(0.91517,0,0,1,275.004,0)">
                <g transform="matrix(145.755,0,0,145.755,3241.81,606.226)">
                    <path d="M0.54,0.059L0.444,-0.742L0.4,-0.742L0.394,-0.791L0.341,-0.791L0.263,-0.509L0.201,-0.742L0.165,-0.742L0.152,-0.791L0.098,-0.791L0,0.01L0.057,0.01L0.051,0.059L0.179,0.059L0.201,-0.113L0.226,-0.018L0.263,-0.018L0.276,0.032L0.316,0.032L0.35,-0.095L0.362,0.01L0.406,0.01L0.412,0.059L0.54,0.059ZM0.48,0L0.37,0L0.333,-0.305L0.258,-0.028L0.234,-0.028L0.162,-0.307L0.122,0L0.011,0L0.107,-0.781L0.143,-0.781L0.245,-0.399L0.348,-0.781L0.384,-0.781L0.48,0Z" style="fill-rule:nonzero;"/>
                </g>
                <g transform="matrix(145.755,0,0,145.755,3320.52,606.226)">
                    <path d="M0.221,0.065C0.354,0.065 0.393,-0.066 0.393,-0.176C0.393,-0.256 0.376,-0.347 0.302,-0.392C0.272,-0.44 0.227,-0.463 0.171,-0.463C0.039,-0.463 0,-0.334 0,-0.224C0,-0.143 0.017,-0.052 0.092,-0.007C0.121,0.041 0.165,0.065 0.221,0.065ZM0.171,-0.454C0.298,-0.454 0.333,-0.329 0.333,-0.224C0.333,-0.121 0.295,0.005 0.171,0.005C0.045,0.005 0.01,-0.124 0.01,-0.228C0.01,-0.331 0.047,-0.454 0.171,-0.454ZM0.224,-0.226C0.224,-0.261 0.222,-0.344 0.171,-0.344C0.12,-0.344 0.118,-0.261 0.118,-0.226C0.118,-0.192 0.12,-0.104 0.171,-0.104C0.222,-0.104 0.224,-0.192 0.224,-0.226ZM0.21,-0.282C0.213,-0.264 0.215,-0.246 0.215,-0.229C0.215,-0.202 0.21,-0.13 0.183,-0.118C0.18,-0.138 0.179,-0.158 0.179,-0.178C0.179,-0.205 0.18,-0.269 0.21,-0.282Z" style="fill-rule:nonzero;"/>
                </g>
                <g transform="matrix(145.755,0,0,145.755,3377.8,606.226)">
                    <path d="M0.35,0.06L0.35,-0.253C0.35,-0.311 0.328,-0.36 0.276,-0.389C0.248,-0.441 0.2,-0.463 0.142,-0.463L0,-0.463L0,0.011L0.049,0.011L0.049,0.06L0.178,0.06L0.178,0.011L0.222,0.011L0.222,0.06L0.35,0.06ZM0.29,0L0.182,0L0.182,-0.304C0.182,-0.342 0.148,-0.344 0.118,-0.344L0.118,0L0.01,0L0.01,-0.454L0.142,-0.454C0.225,-0.454 0.29,-0.386 0.29,-0.304L0.29,0Z" style="fill-rule:nonzero;"/>
                </g>
                <g transform="matrix(145.755,0,0,145.755,3428.81,606.226)">
                    <path d="M0.367,-0.089L0.367,-0.413L0.318,-0.413L0.318,-0.462L0.19,-0.462L0.19,-0.139C0.19,-0.13 0.187,-0.121 0.179,-0.115L0.179,-0.413L0.13,-0.413L0.13,-0.462L0,-0.462L0,-0.139C0,-0.08 0.024,-0.034 0.076,-0.005C0.105,0.046 0.151,0.07 0.209,0.07C0.297,0.07 0.367,-0.001 0.367,-0.089ZM0.308,-0.139C0.308,-0.057 0.242,0.01 0.16,0.01C0.077,0.01 0.011,-0.056 0.011,-0.139L0.011,-0.452L0.119,-0.452L0.119,-0.139C0.119,-0.112 0.134,-0.1 0.16,-0.1C0.186,-0.1 0.199,-0.113 0.199,-0.139L0.199,-0.452L0.308,-0.452L0.308,-0.139Z" style="fill-rule:nonzero;"/>
                </g>
                <g transform="matrix(145.755,0,0,145.755,3482.3,606.226)">
                    <path d="M0.534,0.06L0.534,-0.253C0.534,-0.31 0.512,-0.36 0.461,-0.388C0.433,-0.44 0.382,-0.463 0.324,-0.463C0.292,-0.463 0.261,-0.452 0.234,-0.434C0.207,-0.453 0.175,-0.463 0.142,-0.463L0,-0.463L0,0.011L0.051,0.011L0.051,0.06L0.179,0.06L0.179,0.011L0.222,0.011L0.222,0.06L0.352,0.06L0.352,-0.271L0.356,-0.277L0.356,0.011L0.406,0.011L0.406,0.06L0.534,0.06ZM0.474,0L0.366,0L0.366,-0.304C0.366,-0.328 0.347,-0.344 0.324,-0.344C0.31,-0.344 0.298,-0.337 0.291,-0.325L0.291,0L0.183,0L0.183,-0.304C0.183,-0.326 0.164,-0.344 0.142,-0.344L0.119,-0.344L0.119,0L0.011,0L0.011,-0.454L0.142,-0.454C0.176,-0.454 0.208,-0.442 0.234,-0.421C0.261,-0.441 0.293,-0.452 0.326,-0.452C0.41,-0.452 0.474,-0.388 0.474,-0.304L0.474,0Z" style="fill-rule:nonzero;"/>
                </g>
                <g transform="matrix(145.755,0,0,145.755,3560.14,606.226)">
                    <path d="M0.384,0.031L0.333,-0.086L0.309,-0.077L0.282,-0.137C0.257,-0.124 0.225,-0.11 0.196,-0.109L0.377,-0.176C0.378,-0.186 0.378,-0.197 0.378,-0.207C0.378,-0.297 0.364,-0.337 0.292,-0.404C0.259,-0.446 0.223,-0.468 0.169,-0.468C0.044,-0.468 0,-0.345 0,-0.239C0,-0.161 0.028,-0.046 0.101,-0.006C0.136,0.04 0.18,0.07 0.239,0.07C0.285,0.07 0.342,0.049 0.384,0.031ZM0.321,-0.024C0.28,-0.006 0.235,0.009 0.19,0.009C0.058,0.009 0.01,-0.128 0.01,-0.239C0.01,-0.339 0.05,-0.458 0.169,-0.458C0.295,-0.458 0.318,-0.335 0.318,-0.235L0.13,-0.163C0.139,-0.13 0.158,-0.1 0.196,-0.1C0.224,-0.1 0.252,-0.112 0.277,-0.124L0.321,-0.024ZM0.207,-0.308C0.203,-0.327 0.194,-0.349 0.171,-0.349C0.136,-0.349 0.127,-0.303 0.123,-0.276C0.151,-0.286 0.18,-0.296 0.207,-0.308Z" style="fill-rule:nonzero;"/>
                </g>
                <g transform="matrix(145.755,0,0,145.755,3616.11,606.226)">
                    <path d="M0.35,0.06L0.35,-0.253C0.35,-0.311 0.328,-0.36 0.276,-0.389C0.248,-0.441 0.2,-0.463 0.142,-0.463L0,-0.463L0,0.011L0.049,0.011L0.049,0.06L0.178,0.06L0.178,0.011L0.222,0.011L0.222,0.06L0.35,0.06ZM0.29,0L0.182,0L0.182,-0.304C0.182,-0.342 0.148,-0.344 0.118,-0.344L0.118,0L0.01,0L0.01,-0.454L0.142,-0.454C0.225,-0.454 0.29,-0.386 0.29,-0.304L0.29,0Z" style="fill-rule:nonzero;"/>
                </g>
                <g transform="matrix(145.755,0,0,145.755,3667.12,606.226)">
                    <path d="M0.296,-0.284L0.296,-0.413L0.245,-0.413L0.245,-0.463L0.237,-0.463L0.237,-0.608L0.188,-0.592L0.188,-0.659L0.058,-0.614L0.058,-0.463L0.044,-0.463L0,-0.334L0.058,-0.334L0.058,0.011L0.108,0.011L0.108,0.06L0.237,0.06L0.237,-0.284L0.296,-0.284ZM0.236,-0.344L0.177,-0.344L0.177,0L0.069,0L0.069,-0.344L0.015,-0.344L0.051,-0.454L0.069,-0.454L0.069,-0.608L0.177,-0.646L0.177,-0.454L0.236,-0.454L0.236,-0.344Z" style="fill-rule:nonzero;"/>
                </g>
            </g>
        </g>
        <g transform="matrix(0.959825,-0.454688,62.7567,132.476,-86207.9,-184274)">
            <g transform="matrix(0.153163,0.000525688,-0.0725563,0.0011097,-924.143,1387.82)">
                <path d="M9204.93,5842.59L9064.43,5932.25L9154.09,6072.75L9294.59,5983.09L9204.93,5842.59Z"/>
                <path d="M10716.2,4878.16L10856.7,4788.5L10946.3,4929L10805.9,5018.66L10716.2,4878.16Z"/>
                <path d="M9221.66,5930.77C9543.67,5725.28 10467.1,5135.97 10789.1,4930.48" style="fill:none;stroke:black;stroke-width:55.56px;stroke-dasharray:166.67,55.56,0,55.56;"/>
            </g>
        </g>
        <g transform="matrix(-0.255578,-0.441558,32.6079,-18.8738,-42994.9,27483.5)">
            <g transform="matrix(-0.176739,0.00413486,-0.305349,-0.0023933,4406.46,1353.08)">
                <path d="M14411.5,5787.35L14504.5,5925.64L14642.8,5832.62L14549.8,5694.33L14411.5,5787.35Z"/>
                <path d="M14030.7,5221.26L13937.7,5082.97L14076,4989.94L14169,5128.23L14030.7,5221.26Z"/>
                <path d="M14499.2,5768.5C14390.6,5607.04 14189.8,5308.55 14081.2,5147.09" style="fill:none;stroke:black;stroke-width:55.56px;stroke-dasharray:166.67,55.56,0,55.56;"/>
            </g>
        </g>
        <g transform="matrix(0.434863,-0.206003,109.885,231.961,-153217,-322986)">
            <g transform="matrix(0.33806,0.000300228,-0.160146,0.000633768,399.194,1392.77)">
                <path d="M3129.19,8611.85L3025.12,8742.03L3155.3,8846.1L3259.37,8715.92L3129.19,8611.85Z"/>
                <path d="M3585.06,8041.6L3689.13,7911.42L3819.31,8015.49L3715.24,8145.67L3585.06,8041.6Z"/>
                <path d="M3173.46,8689.92C3301.02,8530.36 3543.41,8227.16 3670.96,8067.6" style="fill:none;stroke:black;stroke-width:55.56px;stroke-dasharray:166.67,55.56,0,55.56;"/>
            </g>
        </g>
        <g transform="matrix(1.52941,-0.724509,-375.87,-793.445,526504,1.11223e+06)">
            <g transform="matrix(0.096122,-8.77708e-05,-0.0455349,-0.00018528,202.415,1401.58)">
                <path d="M3580.89,10788.7L3414.22,10788.6L3414.1,10955.3L3580.76,10955.4L3580.89,10788.7Z"/>
                <path d="M6968.01,10791.2L7134.68,10791.3L7134.56,10958L6967.89,10957.9L6968.01,10791.2Z"/>
                <path d="M3547.49,10872C4126.79,10872.5 6421.99,10874.1 7001.29,10874.6" style="fill:none;stroke:black;stroke-width:55.56px;stroke-dasharray:166.67,55.56,0,55.56;"/>
            </g>
        </g>
        <g transform="matrix(0.903726,-0.428112,-36.0697,-76.1414,52527.1,108307)">
            <g transform="matrix(0.162671,-0.000914631,-0.0770602,-0.00193074,-1102.54,1428.64)">
                <path d="M11726.3,9581.86L11570.6,9641.43L11630.2,9797.09L11785.8,9737.52L11726.3,9581.86Z"/>
                <path d="M13275.4,8989.08L13431,8929.51L13490.6,9085.17L13334.9,9144.74L13275.4,8989.08Z"/>
                <path d="M11724.9,9671.6C12063.5,9542.07 12997.8,9184.53 13336.3,9054.99" style="fill:none;stroke:black;stroke-width:55.56px;stroke-dasharray:166.67,55.56,0,55.56;"/>
            </g>
        </g>
        <g transform="matrix(-0.332677,-0.394635,-136.181,114.8,191903,-158935)">
            <g transform="matrix(-0.224773,-0.000772672,-0.266634,0.000651363,4206.61,1398.9)">
                <path d="M7291.78,9255.75L7355.86,9409.61L7509.72,9345.53L7445.64,9191.68L7291.78,9255.75Z"/>
                <path d="M7006.65,8571.1L6942.57,8417.25L7096.43,8353.17L7160.51,8507.03L7006.65,8571.1Z"/>
                <path d="M7381.53,9254.49C7302.1,9063.77 7150.19,8699.01 7070.76,8508.29" style="fill:none;stroke:black;stroke-width:55.56px;stroke-dasharray:166.67,55.56,0,55.56;"/>
            </g>
        </g>
        <g transform="matrix(2.54187,-0.0983177,-7.4685,-193.087,11983,271311)">
            <g transform="matrix(0.0707084,-3.60038e-05,-0.00273495,-0.000930828,-584.856,1405.42)">
                <path d="M9185.23,6180.55L9018.65,6175.43L9013.52,6342.02L9180.11,6347.14L9185.23,6180.55Z"/>
                <path d="M13914,6325.88L14080.5,6331L14075.4,6497.58L13908.8,6492.46L13914,6325.88Z"/>
                <path d="M9149.35,6262.82C9863.41,6284.76 13230.7,6388.25 13944.7,6410.19" style="fill:none;stroke:black;stroke-width:55.56px;stroke-dasharray:166.67,55.56,0,55.56;"/>
            </g>
        </g>
        <g transform="matrix(-0.108703,-0.0265318,280.121,-1147.68,-388677,1.60652e+06)">
            <g transform="matrix(-1.56278,3.6128e-05,-0.381437,-0.00014802,29825.9,1399.1)">
                <path d="M18270,3523.43L18326,3366.45L18169,3310.47L18113.1,3467.45L18270,3523.43Z"/>
                <path d="M17657.1,5242.09L17601.2,5399.07L17444.2,5343.09L17500.2,5186.1L17657.1,5242.09Z"/>
                <path d="M18202.7,3464.04C18072.9,3828.14 17697.3,4881.4 17567.5,5245.49" style="fill:none;stroke:black;stroke-width:55.56px;stroke-dasharray:166.67,55.56,0,55.56;"/>
            </g>
        </g>
    </g>
</svg>
